<?xml version="1.0" standalone="no"?>
<!DOCTYPE svg PUBLIC "-//W3C//DTD SVG 1.1//EN" "http://www.w3.org/Graphics/SVG/1.1/DTD/svg11.dtd" >
<svg xmlns="http://www.w3.org/2000/svg" xmlns:xlink="http://www.w3.org/1999/xlink" version="1.1">
<metadata>
Created by FontForge 20160405 at Mon Jul 24 17:05:58 2017
 By www-data
Copyright (c) 2016 by Jakob Fischer / pizzadude.dk. All rights reserved.
</metadata>
<defs>
<font id="NicknameDEMO" horiz-adv-x="255" >
  <font-face 
    font-family="Nickname DEMO"
    font-weight="400"
    font-stretch="normal"
    units-per-em="1000"
    panose-1="2 0 5 6 0 0 0 2 0 4"
    ascent="750"
    descent="-250"
    x-height="666"
    cap-height="662"
    bbox="-48 -330 1185.27 978.149"
    underline-thickness="50"
    underline-position="-100"
    unicode-range="U+0020-FB02"
  />
<missing-glyph horiz-adv-x="207" 
 />
    <glyph glyph-name=".notdef" horiz-adv-x="207" 
 />
    <glyph glyph-name="space" unicode=" " horiz-adv-x="207" 
 />
    <glyph glyph-name="exclam" unicode="!" horiz-adv-x="266" 
d="M238 562h-1c0 -11 1 -20 0 -31c0 -19 -2 -36 -3 -55l-4 -74c0 -24 -3 -48 -7 -71l-8 -56c-1 -16 -2 -32 -5 -48c-1 -8 -6 -13 -14 -14c-15 -1 -29 -1 -44 -1c-15 -1 -30 -1 -45 -1h-51c-11 0 -16 5 -16 15c-1 23 -3 44 -3 67s3 45 4 68v43c1 19 2 35 2 54c0 3 1 3 1 6
c0 29 1 58 2 86c0 16 2 31 3 47v34c0 12 1 24 2 36c3 16 9 20 25 19c23 -3 43 -4 66 -5l58 -2c7 0 11 -1 16 -2c13 -2 20 -10 20 -23c1 -31 2 -61 2 -92zM33 44h1c0 25 1 50 2 75c0 3 1 7 2 12c2 9 7 13 15 14c8 2 16 3 25 3c24 0 49 0 73 -1c11 0 22 -1 33 -4
c13 -2 20 -9 19 -22c0 -19 -2 -37 -3 -56v-40c1 -19 -5 -28 -28 -28h-32c-3 0 -5 1 -8 0c-23 -3 -42 -4 -65 -5c-3 -1 -8 -1 -15 -1c-11 1 -16 6 -17 17z" />
    <glyph glyph-name="quotedbl" unicode="&#x22;" horiz-adv-x="563" 
d="M354 484v1h-27c-13 0 -19 6 -20 18l-3 32l-3 89c0 7 1 12 2 15c2 11 8 16 18 16c21 1 42 2 62 2c21 -1 42 -2 63 -5l48 -3c5 0 9 0 12 -1c10 -2 15 -8 16 -17c3 -11 2 -20 3 -29c3 -23 4 -43 5 -66c2 -26 0 -52 -6 -77c-3 -9 -2 -18 -5 -27c-6 -37 -23 -67 -50 -90
c-15 -11 -27 -22 -43 -30c-29 -15 -58 -17 -89 -10c-7 1 -12 3 -17 6c-7 2 -11 7 -11 14c-1 23 -2 43 -1 66c1 11 7 16 18 16c8 0 17 0 26 1c5 1 10 2 16 5c13 7 24 15 35 26c12 12 13 27 10 43c-3 7 -4 9 -12 8c-11 0 -20 -1 -31 -2c-7 0 -13 0 -16 -1zM114 665v1
c23 -1 43 0 66 -3c17 -2 34 -5 49 -9c13 -2 20 -10 21 -24c3 -19 4 -37 5 -56c1 -16 2 -32 2 -48c0 -13 -1 -24 -3 -35c-1 -15 -2 -28 -5 -43c-3 -19 -9 -35 -20 -50c-11 -17 -25 -31 -42 -41c-19 -11 -37 -21 -58 -28c-27 -7 -50 -7 -77 4c-13 7 -17 12 -17 27v54
c0 13 7 20 20 21c11 1 19 2 30 5c18 4 32 14 41 31c8 12 7 25 3 40c-2 5 -6 8 -13 8l-33 -3c-11 0 -22 -1 -33 -1c-13 0 -19 6 -19 19c-1 21 -1 42 -1 65c1 15 1 28 4 41c2 13 9 20 20 23c7 1 11 2 18 2h42z" />
    <glyph glyph-name="numbersign" unicode="#" horiz-adv-x="670" 
d="M146 14v1c-11 0 -22 0 -33 1c-11 0 -17 5 -17 15c-1 15 0 26 0 41c0 8 1 17 2 25c0 13 1 25 2 40c0 7 -4 11 -11 12c-4 1 -9 1 -13 1c-11 0 -23 -1 -34 0c-10 0 -15 5 -15 15c0 13 1 26 1 39c0 20 1 39 1 58v10c1 8 5 12 12 13c19 3 38 4 58 7h3c9 1 14 6 15 15
c1 7 2 12 2 19c0 11 1 20 1 31c0 12 -3 15 -15 16c-15 1 -29 1 -44 4c-3 0 -4 1 -7 1c-10 3 -15 10 -15 19c0 24 1 48 2 72c0 11 0 20 1 31c0 8 1 16 3 24c3 11 10 17 22 18l46 3l10 2c6 2 10 6 11 13c0 20 3 39 -2 58c-1 5 -1 11 0 17l6 33c3 13 7 16 20 15
c20 -1 40 -1 60 -4s39 -1 58 -8c5 -1 9 -3 11 -4c8 -5 12 -11 11 -18l-3 -32c-3 -17 -4 -34 -7 -51c-1 -10 3 -15 14 -15c19 3 38 4 57 5c7 1 15 0 23 0h3c19 1 22 4 23 20l3 79c0 4 1 8 3 12c3 8 8 12 17 12c29 3 57 3 88 6c15 1 31 0 47 0c11 0 17 -5 18 -16
c1 -15 1 -31 1 -47c0 -7 -1 -12 -1 -17c-1 -11 -2 -19 -2 -30c0 -9 4 -13 13 -13h25c14 0 21 -7 21 -22c1 -20 -2 -40 -3 -60c-3 -21 -3 -42 -4 -65c0 -13 -6 -20 -19 -19c-7 0 -13 0 -20 1h-7c-7 -1 -12 -4 -13 -11l-3 -23c-1 -19 -2 -35 -2 -52c-1 -15 2 -18 17 -17
c7 0 11 1 16 2c15 1 23 -6 25 -20l2 -27c1 -21 2 -41 2 -62c0 -11 -5 -16 -16 -16c-15 0 -30 1 -45 2c-11 0 -17 -5 -19 -16c-3 -19 -4 -39 -7 -58s-7 -35 -11 -52c-2 -11 -9 -18 -20 -20c-7 -1 -11 -2 -18 -1c-20 0 -40 0 -60 1c-11 1 -23 1 -34 4c-11 2 -17 8 -16 19l3 78
v30c0 8 -4 12 -12 11c-15 0 -28 -1 -43 -2c-7 -1 -14 -2 -21 -2c-16 0 -32 -3 -49 0c-9 2 -14 -2 -16 -13c0 -3 0 -5 -1 -6c0 -25 -1 -49 -2 -76c0 -12 -1 -25 -4 -37c-1 -9 -7 -15 -19 -16h-32zM370 296h9c10 0 15 5 16 14c3 21 3 41 4 62c0 10 -5 15 -15 15
c-3 0 -8 -1 -15 -2l-82 -4c-9 -1 -15 -6 -17 -15c-3 -7 -3 -14 -4 -21c-1 -11 -2 -22 -2 -33c-1 -9 3 -13 12 -14h6c19 3 35 3 54 0c11 -1 22 -2 34 -2z" />
    <glyph glyph-name="dollar" unicode="$" horiz-adv-x="376" 
d="M294 399c-24 3 -48 3 -72 6c-12 1 -24 0 -36 -3c-13 -4 -17 -16 -10 -28c6 -10 14 -17 23 -22c16 -9 33 -17 50 -25c21 -9 41 -21 56 -41c16 -20 24 -43 27 -68c3 -23 1 -45 -6 -67c-11 -36 -35 -57 -70 -68c-15 -5 -23 -11 -23 -28c0 -13 -1 -26 -4 -38
c0 -7 -2 -11 -3 -16c-3 -7 -9 -11 -16 -11h-21c-23 3 -44 3 -67 4c-9 1 -14 6 -14 14c-1 11 1 21 2 32c1 7 1 11 1 18s-4 11 -11 13c-7 1 -14 1 -21 1c-15 0 -30 2 -45 6c-11 3 -17 9 -17 20s0 20 1 29c0 8 1 15 1 22c-1 19 3 36 8 55c4 13 12 18 25 14c4 -1 8 -3 13 -5
c15 -7 31 -9 47 -10s30 4 41 15s11 23 -1 32c-5 5 -11 9 -18 12l-56 34c-12 8 -24 17 -32 32c-10 16 -14 34 -12 55c2 33 14 62 35 87c20 24 45 42 74 53c12 5 19 13 21 26c3 29 7 57 11 86c3 16 6 20 21 21c25 1 49 0 73 -3c4 -1 9 0 14 0c11 -1 17 -7 17 -17
c0 -24 0 -49 -4 -73c-1 -7 -1 -11 -1 -16c0 -9 4 -14 13 -16c11 -3 19 -3 30 -4c15 -3 19 -6 18 -21l-8 -46l-8 -43l-3 -7c-2 -7 -7 -11 -15 -11c-9 1 -17 0 -28 0z" />
    <glyph glyph-name="percent" unicode="%" horiz-adv-x="828" 
d="M803 284c1 -37 -3 -73 -10 -110c-8 -35 -20 -68 -40 -99c-17 -28 -44 -46 -76 -53c-47 -11 -90 0 -133 25c-9 7 -15 14 -20 22c-9 16 -14 33 -17 52c-3 27 -3 54 -2 81c1 20 0 39 3 58c3 32 0 63 5 95c3 19 6 36 14 53c15 27 33 50 64 58c23 7 43 11 66 16
c11 3 19 1 30 -2c44 -11 76 -36 100 -75c7 -13 11 -27 12 -42c3 -19 3 -36 4 -55c1 -8 0 -16 0 -24zM685 257l-2 42c-1 15 -3 30 -6 45c-1 11 -7 19 -20 22c-21 7 -33 0 -36 -21l-2 -34c0 -17 -1 -33 -1 -50c1 -19 5 -37 2 -57c-1 -7 0 -11 0 -18c1 -15 12 -21 25 -18
s22 11 27 24c11 20 12 42 13 65zM377 39c-20 0 -39 1 -59 1h-51c-13 -1 -19 6 -20 19c0 3 0 5 1 6c1 12 2 24 5 36c3 16 8 32 12 47c8 27 16 54 23 81l20 73c17 60 36 119 52 179c9 35 18 67 29 102l15 57l3 13c1 7 5 11 12 12c9 0 17 1 26 1c24 -3 47 -2 71 1
c20 3 28 -6 24 -25c-4 -25 -5 -50 -9 -75c-3 -23 -7 -46 -12 -71c-7 -32 -12 -65 -19 -98c-3 -15 -7 -31 -11 -46c-11 -39 -21 -75 -34 -112c-3 -7 -3 -15 -6 -23c-9 -32 -17 -65 -25 -98l-11 -55c-1 -7 -3 -11 -4 -14c-3 -7 -9 -11 -16 -11c-5 1 -11 0 -16 0zM308 500
l2 -36c0 -31 -5 -61 -14 -91c-7 -23 -15 -42 -26 -62c-7 -12 -17 -21 -28 -32c-8 -8 -19 -13 -32 -14c-28 -4 -56 -8 -84 -5s-51 15 -66 40c-13 21 -26 41 -30 68c-3 23 -4 45 -1 68c3 25 4 50 7 75c3 27 5 51 12 78c7 29 25 49 54 60c7 3 14 5 23 7c9 3 18 5 27 4
c23 0 45 -4 64 -13c7 -4 15 -6 22 -9c28 -12 44 -34 55 -63c9 -24 12 -50 15 -75zM134 452h1v-18c0 -13 3 -26 9 -38c5 -12 16 -15 27 -10c8 3 13 10 14 19c1 7 0 12 0 19l2 37c0 14 -4 28 -11 41c-4 7 -10 12 -18 14c-11 3 -17 -1 -19 -11c-3 -19 -2 -34 -5 -53z" />
    <glyph glyph-name="ampersand" unicode="&#x26;" horiz-adv-x="534" 
d="M452 -28v1l-33 -3c-4 0 -9 1 -13 1h-10c-12 1 -24 1 -36 0c-11 0 -18 5 -22 15l-9 24c-4 12 -8 14 -20 11l-28 -8c-24 -8 -48 -9 -73 -6c-19 3 -35 4 -54 7c-23 4 -44 13 -61 28c-15 11 -28 24 -41 37c-11 11 -15 23 -20 35c-7 15 -10 30 -10 43c0 19 1 35 8 54
c7 13 10 27 17 40c12 28 32 47 55 66c7 7 14 10 21 17c9 7 9 10 4 21c-11 25 -23 50 -34 77c-13 31 -20 63 -15 98c4 29 11 58 31 81c11 11 19 20 34 27c23 11 44 20 68 25c12 3 24 3 36 4c15 3 28 5 43 5c33 2 62 -8 86 -29c17 -15 25 -35 29 -58s9 -43 12 -64
c3 -17 0 -33 -3 -50c-8 -47 -24 -93 -48 -138c-5 -11 -13 -19 -20 -28c-3 -3 -3 -5 -6 -8c-3 -5 -4 -10 -1 -15c6 -9 12 -18 17 -28c1 0 1 0 1 -1c3 -1 6 -5 9 -4c3 0 5 5 6 8c3 11 2 19 5 30v9c1 11 7 17 16 19c6 2 12 3 18 3c20 -1 40 2 59 5c1 1 3 1 5 1
c11 1 18 -5 20 -16c1 -3 2 -8 2 -15c3 -52 -3 -103 -26 -150c-3 -7 -6 -11 -10 -18c-5 -8 -5 -16 -1 -24l38 -78l9 -26c4 -11 0 -18 -11 -21c-8 -3 -16 -3 -24 -4h-20zM233 504l-3 -18c3 -23 6 -42 13 -61c2 -5 5 -11 9 -16c5 -7 11 -7 17 0c16 23 27 50 34 79
c2 9 -1 17 -9 22c-13 8 -27 11 -42 10c-11 -1 -17 -7 -19 -16zM243 126c3 3 8 3 11 6c4 4 1 9 -2 12c-13 19 -22 41 -33 61c-2 5 -4 9 -7 12c-5 7 -10 8 -15 1s-9 -15 -12 -24c-7 -19 -5 -37 12 -50c13 -11 27 -15 46 -18z" />
    <glyph glyph-name="quotesingle" unicode="'" horiz-adv-x="206" 
d="M38 461h1l-2 83c-1 19 -2 38 -2 57c-1 19 -3 39 -3 58c-1 16 3 19 18 22c19 2 39 1 60 -2c11 -3 19 -2 30 -5c8 -1 15 -4 22 -7c9 -5 13 -12 12 -21l-3 -39l-4 -54l-2 -68c0 -21 1 -41 1 -61c0 -8 -1 -15 -2 -22c-2 -9 -8 -13 -17 -12c-4 0 -9 1 -16 2c-19 3 -34 3 -53 6
c-8 1 -16 1 -23 4c-9 3 -14 8 -14 17z" />
    <glyph glyph-name="parenleft" unicode="(" horiz-adv-x="365" 
d="M292 700v-14c-1 -11 -2 -23 -2 -35c1 -21 1 -42 4 -62c2 -17 -4 -29 -17 -36c-16 -11 -25 -24 -36 -39c-13 -20 -25 -42 -32 -65c-11 -31 -19 -62 -24 -94c-7 -35 -2 -68 9 -101c8 -31 19 -58 35 -85c12 -19 23 -39 39 -55c10 -11 22 -16 36 -15h10c11 0 17 -6 18 -17
l2 -38c1 -13 1 -25 0 -38c-1 -11 1 -22 2 -33c1 -7 1 -15 1 -22c0 -10 -4 -15 -13 -16c-15 -3 -27 -6 -42 -3c-11 3 -22 1 -33 4c-23 3 -39 13 -58 25c-20 13 -38 26 -57 41c-24 16 -42 37 -61 58c-19 23 -28 50 -35 78c-7 27 -11 55 -16 82c-3 11 -4 21 -1 32
c1 8 0 15 0 23c-1 36 4 71 9 106c4 24 7 49 14 73l21 77c8 28 20 54 35 79c19 32 44 58 79 73c10 5 18 9 24 13c17 11 35 16 54 23c7 3 11 3 18 3c9 0 15 -5 16 -15c1 -1 1 -4 1 -7z" />
    <glyph glyph-name="parenright" unicode=")" horiz-adv-x="350" 
d="M328 306c-1 -36 0 -64 -3 -92c-3 -36 -11 -70 -23 -103c-8 -23 -18 -44 -27 -67c-6 -15 -14 -28 -25 -39c-31 -33 -64 -59 -107 -75c-22 -8 -44 -12 -67 -11c-13 0 -20 7 -20 20c0 31 1 62 1 93c0 5 -1 10 -1 15c-2 13 3 21 16 25l14 3c13 4 24 9 35 18l21 22
c11 11 15 24 18 39c3 19 7 38 8 57c3 20 0 41 0 62c-1 35 -7 67 -15 102c-5 23 -11 43 -18 66c-7 19 -11 35 -18 52c-8 20 -21 36 -39 49c-9 7 -19 11 -30 13c-13 1 -15 4 -15 17c0 35 0 71 1 107c0 11 1 22 3 32c3 13 11 19 24 19c10 -1 20 -3 30 -6c19 -5 36 -11 55 -18
c35 -13 65 -31 92 -56c33 -31 54 -70 61 -117c7 -35 12 -69 19 -104c3 -19 5 -38 6 -58c3 -24 3 -48 4 -65z" />
    <glyph glyph-name="asterisk" unicode="*" horiz-adv-x="569" 
d="M354 566v-27v-36c0 -11 6 -16 17 -13c16 4 32 10 49 14l80 20c11 2 19 -2 23 -11c11 -28 23 -56 28 -87c2 -11 -1 -19 -10 -24c-7 -5 -14 -9 -21 -13l-68 -35l-20 -8c-9 -5 -12 -11 -8 -20c3 -5 4 -11 7 -16l55 -103c11 -19 8 -25 -11 -36c-28 -16 -55 -32 -86 -44
l-16 -8c-11 -5 -16 -5 -23 6s-11 19 -16 30l-37 72l-15 30c0 1 -1 2 -2 3c-5 9 -11 10 -16 1c-5 -7 -9 -15 -13 -23c-15 -27 -28 -55 -43 -83c-5 -9 -9 -18 -14 -29c-1 -4 -3 -7 -4 -9c-5 -7 -11 -9 -18 -5c-3 1 -4 2 -5 3c-19 17 -42 28 -63 40c-12 7 -23 13 -35 21
c-13 8 -15 15 -10 30c6 17 14 33 24 47l31 42l30 45c3 3 4 8 3 9c-3 3 -7 4 -10 3c-17 -3 -35 -2 -52 -3c-15 -3 -28 -3 -43 -4c-5 0 -8 1 -11 3c-5 3 -7 7 -7 13l-3 63l-3 29c-1 13 4 20 16 22c27 3 50 5 77 2c27 -4 55 -5 82 -3h8c12 0 18 6 19 17c0 15 1 28 2 43
c1 25 1 50 4 74c0 17 1 33 2 49c0 12 5 18 16 18c13 1 26 0 39 0c15 0 29 -1 44 -1c11 0 17 -5 19 -16c3 -15 3 -30 4 -45z" />
    <glyph glyph-name="plus" unicode="+" horiz-adv-x="444" 
d="M253 57l-1 -1l-80 8c-15 2 -22 11 -20 27c4 32 5 63 2 92c-3 11 -1 23 -4 34c-2 10 -8 15 -18 15c-19 3 -38 4 -57 1c-15 -1 -31 -3 -46 0c-11 2 -17 8 -17 19s1 22 2 33c3 19 5 36 2 55c-1 4 -1 8 0 13c0 9 5 14 15 14c19 0 39 -1 58 -1c15 -1 31 -1 47 -1
c11 1 17 7 17 18c1 29 8 58 7 87c-1 9 1 19 2 28c0 3 1 7 4 12c2 5 6 7 11 7h1c23 -3 44 1 67 -2c11 -3 22 -1 33 -2c15 -1 22 -8 22 -22c0 -21 2 -42 5 -63c3 -15 2 -30 2 -45c1 -11 7 -17 18 -18c21 -1 43 -2 64 -5h17c13 -1 20 -7 20 -20l2 -64c1 -8 2 -17 2 -26
c0 -11 -5 -17 -16 -18c-25 -3 -50 -9 -75 -9l-26 -2c-13 -2 -19 -10 -16 -23c4 -23 6 -46 5 -68c-1 -19 -2 -35 -5 -54c-2 -11 -8 -17 -19 -18c-8 0 -17 -1 -25 -1z" />
    <glyph glyph-name="comma" unicode="," horiz-adv-x="264" 
d="M235 62c-3 -25 -2 -48 -6 -72c-7 -45 -30 -79 -71 -103c-11 -7 -23 -8 -35 -9c-15 0 -29 -2 -44 -1c-9 0 -18 2 -28 5c-9 3 -14 9 -13 18v36c1 7 1 12 1 19c0 11 5 17 16 20s22 4 33 8c11 2 18 8 22 19l2 8c0 7 -4 11 -11 12h-5l-38 2c-11 0 -20 7 -19 20v72v29
c0 5 2 10 3 15c4 13 11 16 23 16c11 -1 19 -2 30 -2c20 0 39 -1 59 -1c11 0 23 1 35 1c8 0 16 -1 23 -4c10 -3 16 -11 17 -22c3 -29 3 -58 6 -86z" />
    <glyph glyph-name="hyphen" unicode="-" horiz-adv-x="366" 
d="M294 215v-2l-56 9c-13 3 -25 5 -38 6c-21 3 -42 4 -63 -1c-12 -3 -24 -3 -36 0c-15 3 -31 4 -46 4c-12 0 -21 4 -21 21c-1 35 0 69 0 104c0 9 4 14 13 16c11 1 20 1 31 1h36c11 0 19 0 28 1c19 1 35 3 54 3c23 -1 43 -4 64 -7c15 -1 30 -3 45 -8c13 -4 19 -11 20 -22
c3 -19 4 -35 5 -54c1 -15 0 -30 0 -46c0 -4 0 -7 -1 -10c-2 -10 -8 -15 -19 -15h-16z" />
    <glyph glyph-name="period" unicode="." horiz-adv-x="235" 
d="M33 38h-1l4 43v9c0 16 0 32 1 49c0 12 6 19 17 21c20 4 39 10 59 11c23 3 44 0 65 -1c11 -1 17 -7 19 -19c3 -23 5 -42 2 -65s-3 -46 -4 -69c0 -5 0 -8 -1 -10c-3 -9 -8 -14 -17 -13c-11 0 -20 1 -31 2c-3 0 -5 1 -8 1c-28 -3 -55 5 -83 8c-3 0 -4 1 -5 1
c-11 3 -16 10 -17 21c-1 4 0 7 0 11z" />
    <glyph glyph-name="slash" unicode="/" horiz-adv-x="335" 
d="M81 -2v-3c-16 3 -33 4 -49 5c-1 1 -2 1 -5 2c-11 3 -15 7 -12 19l4 31c8 49 20 96 31 144c15 64 29 125 45 189c11 44 21 88 34 132c8 27 12 52 19 79c5 17 9 34 16 51c3 9 9 13 18 13c32 3 63 3 95 6c11 0 20 -1 31 -2c7 -1 11 -6 10 -13c0 -7 -1 -15 -4 -22
c-7 -31 -9 -61 -12 -92c-2 -28 -5 -56 -9 -84c-5 -39 -15 -76 -26 -113l-49 -170c-7 -23 -10 -47 -15 -70s-10 -47 -14 -70l-3 -11c-3 -9 -10 -15 -19 -17c-9 -3 -18 -4 -29 -4c-19 -1 -38 0 -57 0z" />
    <glyph glyph-name="zero" unicode="0" horiz-adv-x="487" 
d="M234 683c20 -1 39 -3 56 -11l56 -23c19 -7 33 -20 46 -35c32 -35 47 -75 55 -119c4 -21 7 -43 10 -64s4 -41 1 -64c-4 -43 -9 -84 -17 -127c-4 -20 -7 -41 -12 -61c-9 -40 -26 -75 -50 -105c-15 -19 -31 -33 -54 -41c-11 -4 -18 -9 -29 -12c-24 -8 -50 -10 -78 -7
c-39 7 -76 16 -111 36c-33 19 -48 46 -59 81c-8 27 -13 52 -16 79c-1 15 -1 28 -1 41c0 8 -1 16 -1 24c0 27 2 55 5 82c5 51 9 101 18 152c7 38 23 72 46 103c17 21 38 37 62 50c19 11 37 17 60 20c5 0 10 1 13 1zM181 369l-8 -95c1 -15 3 -26 2 -38c-1 -14 3 -26 12 -37
c3 -3 4 -7 7 -10c11 -17 27 -22 48 -17c36 11 55 36 63 72c7 29 8 57 9 88v23c0 9 1 19 0 28c-1 15 -2 29 -5 44c-3 20 -4 39 -8 58c-2 13 -8 26 -19 38c-11 11 -33 15 -46 3c-7 -6 -13 -12 -16 -17c-12 -19 -22 -39 -27 -62c-5 -27 -9 -51 -12 -78z" />
    <glyph glyph-name="one" unicode="1" horiz-adv-x="318" 
d="M119 217l-2 57c-3 15 2 34 3 57c3 23 3 44 6 67l4 54c1 2 1 6 1 11c-1 7 -5 9 -11 7c-7 -1 -12 -4 -17 -7l-43 -21c-3 -1 -4 -2 -5 -2c-10 -4 -17 -1 -21 9l-11 31c-3 11 -6 21 -10 32l-4 19c-2 9 1 16 8 21l100 84c7 5 10 10 17 15c5 3 10 6 16 7l64 3c15 1 29 0 44 -1
c13 0 19 -6 19 -19c3 -27 4 -55 4 -82c1 -23 -1 -42 -1 -65c0 -12 1 -25 1 -37c0 -25 -1 -49 -1 -74c0 -39 1 -76 2 -115c0 -11 -1 -20 -1 -29c0 -20 1 -39 0 -59c0 -15 -1 -30 -1 -45c-1 -13 0 -25 -1 -38c0 -19 -1 -37 -5 -56c-3 -15 -7 -19 -22 -22l-54 -8
c-15 -3 -28 -4 -43 -7c-12 -3 -18 5 -21 14s-3 19 -4 28c-3 22 -5 44 -6 67c-1 11 -1 22 -1 33z" />
    <glyph glyph-name="two" unicode="2" horiz-adv-x="496" 
d="M290 208c7 -3 9 -4 13 -4c11 -1 22 -1 33 -1h22c16 0 32 1 49 2c12 0 25 1 37 2c16 1 25 -6 27 -21c1 -8 1 -16 1 -24v-77c0 -11 1 -21 1 -32s-6 -18 -17 -21l-59 -15c-7 -1 -12 -2 -15 -2l-50 3c-7 0 -12 -1 -19 -1c-27 1 -51 -1 -78 2c-28 3 -56 -1 -84 -1
c-15 1 -27 2 -42 2h-24c-5 -1 -10 -1 -17 -1c-8 1 -13 6 -14 14s-2 16 -2 24c0 43 1 84 2 125c0 7 2 12 3 19c1 5 6 10 13 15l87 51c22 13 39 30 52 51c11 16 22 31 30 48c13 27 12 54 1 82c-1 3 -2 5 -5 8c-15 15 -30 27 -53 27c-7 0 -11 1 -18 1c-27 0 -52 -3 -79 -10
l-14 -3c-11 -2 -18 3 -21 14c-1 5 -3 13 -4 22c-3 16 -4 32 -7 49c-3 15 -3 28 -4 43c-1 3 -1 8 -1 13c-1 11 4 19 13 24c5 3 10 4 17 7c32 11 62 21 97 21c19 -1 37 1 56 1c23 0 46 -2 69 -11c27 -11 49 -23 68 -46c21 -27 37 -53 48 -84c5 -16 6 -33 9 -52
c7 -32 -2 -62 -11 -93c-7 -23 -19 -44 -31 -65c-3 -7 -7 -12 -11 -19c-15 -28 -34 -51 -57 -74c-3 -3 -7 -7 -11 -13z" />
    <glyph glyph-name="three" unicode="3" horiz-adv-x="524" 
d="M188 517v1c-21 -1 -43 -1 -64 -4h-15c-15 0 -18 5 -18 17l-4 79c-1 8 -1 15 -1 23c0 11 5 17 15 19l45 8c27 5 51 11 76 16c10 2 20 3 31 3l39 2c15 3 29 0 44 -4c7 -3 12 -4 15 -5c24 -5 41 -19 56 -38c18 -23 30 -47 37 -72c2 -8 3 -16 3 -25c1 -11 0 -22 0 -33
c1 -12 -1 -23 -6 -34l-20 -44c-7 -13 -6 -17 5 -25c11 -7 19 -12 28 -20c19 -16 27 -37 36 -60c9 -27 8 -51 5 -78c-3 -31 -13 -59 -28 -86c-13 -24 -28 -47 -48 -67c-9 -11 -16 -20 -27 -29c-19 -17 -41 -26 -65 -31c-23 -5 -43 -9 -66 -8c-11 1 -20 1 -29 4
c-5 0 -9 1 -14 1c-28 -3 -56 5 -83 10c-32 7 -62 20 -91 35c-3 3 -7 4 -10 7c-9 7 -11 16 -7 25l10 24l13 34c3 8 7 16 11 24l10 22c5 11 13 14 24 10c23 -7 45 -12 68 -19c8 -2 17 -3 26 -3c11 -1 22 0 33 -1c24 0 46 5 69 10c15 4 28 12 39 25c9 12 14 35 3 52
c-15 21 -35 34 -62 34c-19 0 -38 -2 -57 -3c-1 0 -1 0 -2 -1c-16 -1 -21 5 -20 21c3 15 1 28 2 43c0 8 -1 16 0 24c0 8 4 13 12 15c7 3 15 3 22 4c20 1 38 9 54 20c16 12 20 35 5 51c-9 11 -21 20 -36 23c-11 3 -22 3 -34 4c-9 1 -18 0 -29 0z" />
    <glyph glyph-name="four" unicode="4" horiz-adv-x="567" 
d="M309 15v35c-3 19 2 39 5 60c3 19 4 36 5 55c0 9 -4 13 -13 14l-39 2l-63 3c-13 1 -25 1 -40 1l-62 4c-9 0 -17 -2 -26 -2c-15 1 -26 0 -41 3c-11 2 -16 9 -15 20c0 15 1 27 2 42c1 21 3 42 3 63c1 15 0 28 1 43l4 68l3 41c1 29 2 57 5 85c1 15 3 28 6 43l2 18
c1 11 7 18 18 20l48 6c21 3 41 4 64 4c3 0 8 1 13 2c14 1 20 -5 18 -19c-3 -17 -4 -33 -5 -52c-3 -19 -3 -39 -4 -58c0 -7 2 -11 1 -18c-1 -20 -1 -40 -4 -60c-3 -23 -4 -47 -7 -71v-6c1 -9 6 -14 14 -14c11 -1 23 -1 35 0c20 1 40 5 61 2c7 -1 11 0 18 0c11 0 16 5 15 15
c0 19 -1 36 -1 53c-1 9 -1 18 -1 26c-3 19 -2 38 -5 57v12c1 11 7 17 18 19c31 5 61 11 92 8l26 -4c11 -3 16 -8 16 -17c1 -13 3 -26 2 -39c-3 -19 -1 -35 -1 -54c1 -15 1 -30 1 -45v-4c0 -11 6 -16 17 -17c11 0 21 1 32 -2c12 -1 15 -5 18 -17l2 -36c3 -39 -2 -75 -7 -112
c-2 -12 -9 -18 -20 -19s-22 -1 -33 -1c-13 1 -19 -4 -19 -16c0 -19 1 -36 0 -55c-1 -27 -2 -51 -5 -76c-1 -15 -10 -21 -25 -20c-3 0 -3 1 -6 1c-11 3 -22 0 -33 -1c-23 -4 -47 -7 -71 -9c-13 -1 -19 6 -19 19z" />
    <glyph glyph-name="five" unicode="5" horiz-adv-x="495" 
d="M236 -23l-37 -3c-28 4 -57 0 -86 7c-23 5 -44 9 -65 20c-3 1 -5 3 -7 4c-11 7 -14 12 -11 25c4 27 13 51 20 76l8 30l2 9c4 16 10 20 26 15c32 -11 64 -12 99 -11c28 1 52 14 75 31c21 15 35 35 43 60c12 39 2 76 -37 96c-3 1 -4 3 -7 4c-15 9 -34 16 -55 20
c-32 5 -63 8 -95 11c-3 0 -6 1 -9 1c-8 1 -13 5 -15 14c-1 9 -3 19 -3 28c-3 23 -4 45 -5 68c-1 27 -2 53 -2 80v127c0 19 5 24 24 24c12 -1 25 -2 38 -2c16 0 31 1 46 2c13 0 27 2 40 2c23 -1 45 1 68 4c31 3 60 1 91 -2l9 -2c9 -3 13 -8 14 -17c1 -3 1 -6 1 -11v-67
c0 -7 1 -13 2 -20v-6c1 -15 -9 -20 -22 -19l-31 4c-11 0 -22 0 -33 -1c-16 0 -32 -2 -48 -3c-9 -1 -18 -1 -26 -4c-9 -2 -13 -7 -13 -15l3 -69c0 -7 4 -11 11 -12l39 -6c21 -3 41 -10 60 -22l22 -13c21 -13 38 -28 50 -51c7 -15 16 -29 25 -44c11 -21 18 -43 23 -66
c3 -19 3 -36 2 -55c-1 -44 -15 -84 -36 -121c-13 -23 -32 -43 -53 -58c-20 -15 -40 -28 -63 -39c-27 -13 -55 -20 -82 -23z" />
    <glyph glyph-name="six" unicode="6" horiz-adv-x="504" 
d="M204 420c5 0 9 0 11 1c17 4 34 8 51 13c23 7 44 4 67 -1c17 -4 34 -8 50 -15c23 -9 37 -24 49 -45c17 -31 28 -63 35 -94c11 -48 9 -95 -12 -140c-11 -24 -25 -44 -44 -63c-19 -21 -39 -37 -62 -48c-16 -7 -32 -11 -48 -11c-11 0 -19 -1 -28 -2c-23 -1 -42 4 -63 8
c-20 3 -39 8 -58 17c-21 11 -41 22 -57 39c-15 15 -27 27 -38 44c-7 11 -12 21 -16 32c-9 26 -13 52 -14 77c-1 23 -1 46 0 69c0 15 -1 30 0 45c5 36 5 72 16 107c5 16 11 32 20 49c7 15 13 30 24 43c19 27 38 53 69 70c3 1 5 2 8 5c27 21 59 33 90 46c15 7 29 9 44 12
c8 1 17 0 26 -1l44 -10c28 -7 49 -23 68 -42c6 -5 7 -11 4 -18l-8 -19c-11 -27 -25 -52 -40 -77c-7 -10 -15 -14 -24 -12c-8 3 -17 1 -25 4c-19 3 -36 4 -55 1c-21 -4 -38 -13 -51 -28c-11 -12 -20 -26 -29 -39c-5 -7 -5 -9 -4 -17zM272 176c3 0 5 -1 8 0c20 3 38 5 54 18
c15 11 20 27 16 46c0 3 -1 4 -1 7c-9 35 -36 58 -73 59c-25 0 -49 -6 -68 -25c-9 -9 -19 -18 -30 -27c-6 -6 -7 -12 -4 -19c11 -17 21 -32 38 -43c19 -12 39 -16 60 -16z" />
    <glyph glyph-name="seven" unicode="7" horiz-adv-x="413" 
d="M32 525v56v56c0 14 7 21 21 21c19 1 38 1 57 1c17 1 34 3 50 3c13 1 25 0 38 -1c13 0 25 -2 38 -1s27 -2 40 -3c20 -3 39 -3 59 -6c12 -3 24 -2 35 -5c16 -1 20 -6 23 -22l2 -45c0 -9 2 -19 2 -28c0 -5 -2 -11 -3 -16c-16 -45 -31 -89 -42 -136c-5 -17 -11 -33 -15 -50
c-4 -13 -6 -27 -9 -40c-4 -17 -8 -34 -13 -50c-5 -17 -10 -34 -17 -50c-5 -15 -9 -27 -16 -42l-9 -23c-13 -25 -24 -50 -33 -77c-4 -11 -9 -20 -13 -31c-5 -11 -15 -18 -30 -19c-5 -1 -10 -1 -17 -1l-75 -3c-11 -1 -22 -2 -33 -2c-13 0 -19 6 -18 19c1 7 1 12 4 19l44 124
c16 41 34 81 50 124c7 19 11 38 18 58c11 31 19 61 31 90c7 15 11 31 16 46c3 10 -1 15 -11 16h-43h-31l-63 -4c-8 0 -16 1 -24 2c-5 0 -8 3 -11 9c-1 4 -2 8 -2 11z" />
    <glyph glyph-name="eight" unicode="8" horiz-adv-x="505" 
d="M32 156c-1 15 3 32 8 51c4 13 10 25 17 38c8 15 17 27 28 39c9 11 7 18 -1 27c-13 15 -24 29 -35 44c-14 21 -20 44 -19 71c1 25 4 50 8 75c4 28 15 54 30 78c13 19 28 38 45 55l13 15c23 21 48 34 76 41c11 3 20 3 31 3c9 0 17 -1 26 0c31 1 58 -8 85 -23
c12 -5 23 -11 32 -18c25 -19 43 -42 59 -69c11 -16 18 -31 21 -50c4 -27 10 -51 3 -78c-7 -29 -16 -56 -33 -80c-11 -15 -19 -30 -28 -46c-5 -8 -3 -15 5 -21c15 -11 30 -23 42 -38c23 -27 32 -56 33 -89s-8 -65 -26 -94c-13 -20 -28 -39 -45 -58c-9 -10 -18 -19 -28 -28
c-17 -15 -35 -28 -58 -35s-45 -12 -69 -11c-31 1 -61 5 -89 16c-47 17 -84 43 -108 87c-15 29 -23 59 -23 98zM248 368v1h8c16 -1 29 6 40 19c6 8 12 17 17 28c7 17 5 35 1 54c-4 15 -9 27 -21 36l-20 15c-12 9 -26 12 -41 10c-31 -4 -50 -20 -59 -49c-7 -23 -7 -45 0 -67
c7 -23 21 -35 44 -42c11 -3 20 -4 31 -5zM251 99c28 -3 56 22 61 45c2 11 3 21 3 32c0 23 -10 40 -31 53c-7 4 -15 5 -23 3c-13 -5 -26 -8 -39 -15c-6 -3 -12 -7 -18 -12c-19 -19 -25 -51 -13 -78c6 -11 15 -19 27 -22c11 -3 22 -3 33 -6z" />
    <glyph glyph-name="nine" unicode="9" horiz-adv-x="507" 
d="M260 694v-1c7 0 12 -1 17 0c17 3 33 -1 49 -5l29 -8c23 -7 41 -18 58 -33c8 -7 15 -14 20 -21c27 -33 42 -72 46 -117c4 -57 -4 -111 -23 -166c-15 -44 -28 -89 -44 -132c-9 -23 -17 -47 -28 -71c-11 -27 -17 -56 -28 -84l-8 -24c-3 -11 -11 -17 -23 -17l-87 -3
c-5 0 -11 -1 -16 -1c-11 0 -15 5 -13 16c7 25 11 50 19 74c7 20 11 41 18 62l15 44c1 3 3 8 4 15c1 5 0 7 -5 7c-3 0 -7 -1 -11 -2c-16 -3 -31 -6 -47 -6c-27 -1 -50 7 -73 20c-28 16 -48 38 -67 65c-21 28 -35 60 -43 96c-4 21 -3 43 0 64c4 20 10 39 15 58
c4 15 12 26 20 38c17 27 37 52 62 72c23 19 50 35 79 46c12 5 25 9 40 12c8 3 17 1 25 2zM321 458c-1 7 -1 14 -4 21c-3 12 -10 23 -18 32c-12 13 -28 22 -43 30c-12 5 -26 9 -39 2c-19 -9 -36 -22 -45 -41c-13 -26 -15 -52 -7 -79c7 -19 21 -30 37 -38c13 -8 28 -11 44 -8
c9 1 18 3 27 6c10 2 18 7 24 15c16 18 24 38 24 60z" />
    <glyph glyph-name="colon" unicode=":" horiz-adv-x="225" 
d="M95 493v-2h74c9 0 15 -5 16 -15c1 -1 1 -2 1 -3c0 -19 1 -39 1 -58c-1 -24 -3 -47 -8 -71c-4 -13 -9 -17 -24 -18c-27 -1 -52 -1 -79 -5c-7 -1 -14 1 -21 2c-8 1 -13 7 -14 16l-4 78c-1 19 -2 38 -2 57c-1 11 4 16 14 17zM137 100l-75 4c-9 1 -15 6 -17 15l-2 7
c-1 19 -2 35 -2 52c-3 21 -3 41 -4 62v6c1 10 6 15 15 15c21 3 42 3 62 4c15 1 28 3 41 3c11 1 17 -4 20 -15s3 -22 6 -33l8 -94c1 -13 -4 -21 -17 -23c-13 -3 -26 -2 -35 -3z" />
    <glyph glyph-name="semicolon" unicode=";" horiz-adv-x="239" 
d="M43 11h-1c1 15 2 28 5 43s7 19 22 22c11 3 21 5 28 14c4 5 6 9 7 12c2 10 -2 15 -11 15c-4 0 -8 -1 -12 -1c-1 0 -3 -1 -4 -1c-21 -3 -26 3 -29 24l-4 61c-1 15 -1 30 -1 45c1 12 8 17 19 15c15 -2 29 -2 44 0c19 3 37 2 56 5c8 0 17 2 25 3c13 3 21 -3 23 -16
c1 -11 1 -19 1 -30c3 -21 3 -42 4 -63c1 -33 -6 -64 -17 -95l-8 -22c-7 -21 -20 -37 -40 -49c-25 -15 -53 -22 -85 -20c-3 0 -5 1 -8 2c-9 2 -14 8 -14 17c-1 7 0 12 0 19zM138 327l-59 -3h-18c-11 1 -17 6 -18 17c-3 12 -3 24 -4 36c-3 29 -3 57 -6 85v22c1 11 7 17 18 17
c23 0 44 1 67 -4l48 -8l7 -2c11 -3 16 -11 16 -22c0 -12 0 -24 1 -37c0 -7 1 -14 1 -21c3 -15 3 -28 4 -43c0 -3 1 -8 2 -15c2 -14 -4 -21 -18 -22c-13 -1 -26 0 -41 0z" />
    <glyph glyph-name="less" unicode="&#x3c;" horiz-adv-x="419" 
d="M291 651c19 -1 36 -2 55 -2l11 -2c10 -3 13 -9 9 -19c-1 -3 -2 -6 -5 -10c-17 -27 -34 -53 -53 -80s-35 -55 -54 -82c-11 -15 -22 -28 -34 -43l-5 -6c-6 -7 -7 -15 -2 -23c3 -7 7 -11 11 -18c21 -32 41 -65 64 -97c17 -25 26 -51 41 -78c21 -40 34 -84 54 -125
c9 -19 4 -24 -12 -29c-24 -8 -48 -13 -73 -17c-15 -3 -30 -3 -45 -4c-11 -1 -19 1 -24 14c-9 25 -24 50 -44 74c-13 15 -25 32 -38 48c-18 23 -36 45 -54 66c-20 23 -42 42 -65 61c-11 8 -17 16 -16 31s0 27 0 42c1 11 -1 21 2 32c1 6 3 12 7 18c19 23 35 45 54 68
c31 39 58 79 82 122c4 8 7 18 11 27l6 12c3 9 9 13 19 13l97 8c0 -1 0 -1 1 -1z" />
    <glyph glyph-name="equal" unicode="=" horiz-adv-x="373" 
d="M335 407h-2c1 -19 2 -36 2 -55c0 -11 -6 -17 -17 -16c-12 0 -24 1 -36 2c-23 3 -47 3 -71 6c-28 3 -56 2 -85 -1c-20 -1 -41 -4 -62 -7c-3 0 -5 0 -6 -1c-12 0 -18 6 -19 18v17c-1 21 -2 42 -2 63c-1 9 -2 17 -2 26c0 13 6 20 19 21l62 3c31 0 63 0 94 -1
c21 -1 41 -3 62 -6c13 -2 25 -3 37 -3c15 -1 19 -4 22 -19c3 -16 3 -31 4 -47zM335 193h2l-3 -43l-3 -11c-3 -8 -9 -12 -17 -12l-58 3h-7c-27 -1 -50 1 -77 4c-9 0 -18 0 -27 -1l-47 -3c-11 -1 -19 -2 -30 -2c-12 0 -19 6 -21 18c-3 15 -3 31 -4 46c-1 17 -1 34 -1 51
c-1 11 4 18 15 19c11 3 18 2 29 3c35 3 67 -1 100 -4l78 -8c11 -1 22 -1 33 -1c7 0 12 -1 19 -2c12 -2 18 -8 19 -19c1 -13 0 -25 0 -38z" />
    <glyph glyph-name="greater" unicode="&#x3e;" horiz-adv-x="408" 
d="M179 28v-1c-16 1 -32 1 -48 4l-53 4h-1c-17 2 -22 10 -15 25c4 11 9 18 14 29c15 28 28 55 41 83c19 35 31 72 51 107c5 7 8 14 11 22c7 19 15 36 26 52c9 12 8 17 -1 28c-23 28 -45 56 -66 85c-23 31 -42 62 -65 93c-8 12 -18 24 -27 36c-5 6 -11 14 -16 24
c-5 9 -3 16 8 19c15 3 29 7 44 8c19 3 38 2 57 2c23 0 47 -1 71 -2c11 -1 19 -3 26 -14s14 -19 22 -30c23 -33 46 -65 74 -96c16 -18 32 -34 49 -48c7 -6 10 -14 9 -24c-1 -9 0 -18 1 -29v-9v-59c0 -11 -3 -21 -9 -31l-48 -79c-4 -5 -7 -10 -8 -13c-17 -33 -37 -65 -57 -97
c-9 -15 -16 -31 -24 -46l-14 -26c-6 -11 -16 -17 -29 -17h-23z" />
    <glyph glyph-name="question" unicode="?" horiz-adv-x="481" 
d="M459 437v-14c3 -27 -8 -49 -20 -70c-19 -31 -42 -52 -73 -69c-7 -4 -14 -8 -21 -13c-13 -9 -20 -21 -20 -38c0 -20 1 -40 2 -60v-7c0 -11 -11 -18 -19 -15c-23 3 -43 7 -64 10c-23 3 -45 7 -68 7c-13 1 -26 4 -41 7c-7 2 -12 8 -13 18c-3 17 0 33 3 49c3 11 4 22 7 33
c11 31 32 49 60 61c21 9 42 17 62 26c13 7 27 15 39 24c16 12 24 29 24 52c-1 23 -10 42 -27 55c-11 9 -25 12 -40 11s-29 -4 -44 -11c-16 -7 -25 -21 -27 -40c-3 -15 -2 -29 -5 -44c0 -5 -1 -10 -1 -15c-2 -9 -8 -14 -17 -13c-11 0 -18 3 -29 3c-19 3 -36 2 -55 5l-36 3
c-12 1 -18 8 -17 21c1 51 8 97 27 144c12 28 26 55 47 78c14 15 30 26 49 33c15 7 31 12 47 16c17 5 35 7 55 5l38 -2c15 -1 28 -5 41 -12c7 -4 14 -7 21 -10c15 -7 31 -18 46 -32c28 -25 45 -57 56 -93c9 -35 14 -68 13 -103zM276 123c7 0 15 0 23 -1c11 -2 17 -8 18 -18
l3 -31l10 -70c0 -5 0 -9 -1 -11c-1 -5 -4 -9 -11 -10c-4 0 -8 -1 -12 0c-31 5 -58 2 -89 -1c-7 -1 -15 0 -22 0c-9 0 -17 1 -25 2c-19 0 -25 8 -26 21c-3 15 -3 26 -4 41c-1 13 -1 26 -1 39c-1 13 5 21 18 23c32 5 64 10 96 14c7 1 14 2 23 2z" />
    <glyph glyph-name="at" unicode="@" horiz-adv-x="775" 
d="M428 587c-35 -3 -64 -2 -95 -5s-61 -9 -89 -21c-27 -11 -46 -30 -57 -56c-5 -13 -8 -24 -11 -34l-9 -48c-3 -18 -5 -36 -6 -54c-1 -16 -2 -32 -1 -48c1 -27 5 -54 20 -78c18 -30 45 -48 82 -54c27 -5 50 -10 77 -14c8 -1 17 -2 26 -2c13 -3 26 -3 39 -4c9 0 18 0 27 1
c17 3 33 4 50 9c11 3 20 2 31 3l95 12c8 1 16 3 24 6c11 2 17 -2 19 -13c7 -35 12 -70 12 -106c0 -16 -4 -21 -20 -25c-36 -11 -73 -17 -110 -22c-25 -3 -50 -1 -75 -4c-19 -1 -38 -2 -58 -5c-3 -1 -8 -1 -15 -1c-23 -1 -44 0 -65 -3c-25 -3 -49 0 -74 4
c-27 4 -53 13 -78 25c-9 5 -19 9 -28 13c-19 9 -35 22 -50 39c-16 19 -31 38 -42 61c-15 31 -19 60 -15 92l9 86c3 35 8 69 15 103c11 41 22 81 41 118c17 32 38 61 69 82c35 24 71 43 112 54c11 3 21 3 32 6c15 3 26 3 41 4h22l51 -2c33 -3 66 -5 98 -16c4 -1 8 -2 11 -2
c37 -5 71 -17 106 -32c24 -11 42 -30 57 -51l14 -19c19 -23 28 -49 33 -77c3 -16 4 -32 5 -48c1 -21 -5 -41 -8 -64c-7 -33 -21 -61 -42 -88c-9 -11 -18 -19 -29 -24s-19 -11 -30 -16c-17 -9 -34 -15 -51 -17c-20 -3 -39 -7 -59 -6c-27 1 -50 9 -69 28c-3 3 -4 2 -7 5
c-4 3 -8 3 -12 0l-8 -6c-15 -15 -32 -22 -52 -26c-27 -6 -55 -4 -83 5c-17 5 -33 15 -46 29c-11 11 -20 23 -29 35c-10 15 -15 31 -15 49c0 19 1 36 8 53c7 21 19 36 36 46c20 11 39 20 62 24c24 3 46 -1 69 -9l26 -9c11 -4 13 -3 16 8c3 9 10 15 21 16l42 6c7 1 11 3 18 4
c16 3 22 -1 25 -16l3 -35c1 -12 1 -25 4 -37c0 -4 1 -8 3 -12c4 -10 11 -15 22 -15c29 -1 49 12 59 39c8 19 9 39 6 60c-3 17 -12 29 -23 42c-16 17 -37 28 -57 39c-7 4 -16 3 -25 6l-44 8c-19 3 -36 3 -51 4zM362 408l-19 -2c-16 -3 -24 -21 -23 -32c5 -33 38 -51 69 -36
c19 11 24 30 13 45c-8 15 -21 26 -40 25z" />
    <glyph glyph-name="A" unicode="A" horiz-adv-x="498" 
d="M210 647v-3c25 3 50 4 75 7c3 0 5 1 8 1c21 -1 42 -3 63 -7c11 -3 21 -3 32 -6c12 -3 19 -11 21 -24c7 -31 11 -61 16 -92c7 -41 12 -81 19 -121c4 -29 7 -58 10 -86c3 -23 2 -46 5 -69c4 -37 6 -74 7 -110c3 -31 -1 -62 -2 -93c0 -11 -6 -16 -17 -16c-19 -1 -38 0 -57 3
l-45 8l-7 2c-10 3 -15 10 -15 20l-2 49c-3 28 -4 56 -7 84c-1 5 0 9 0 14c-1 13 -7 19 -20 19c-11 0 -19 0 -30 -1c-17 -3 -35 -3 -52 -6c-11 -1 -13 -4 -16 -15l-8 -48c-4 -20 -5 -41 -9 -62c-5 -24 -8 -48 -11 -73c-3 -12 -7 -15 -20 -18l-48 -9c-3 0 -4 -1 -7 -1
c-19 -1 -35 -2 -54 -2c-11 0 -16 5 -15 16c1 13 3 26 6 41l9 50l13 80l11 66c7 40 14 79 22 118c9 48 17 95 28 143l13 55c4 19 6 37 10 56v4c3 16 9 18 22 21c17 3 35 2 52 5zM307 366v14v1c0 11 -1 22 -2 33l-8 86l-3 24c-2 7 -6 11 -12 12c-5 0 -9 1 -14 1
c-19 1 -21 -1 -24 -20l-16 -87c-4 -23 -8 -43 -11 -64c-4 -20 2 -25 22 -21c13 3 26 2 39 5l16 2c9 1 13 5 13 14z" />
    <glyph glyph-name="B" unicode="B" horiz-adv-x="489" 
d="M68 650h40c27 1 53 -1 79 -6c24 -4 48 -5 71 -10c27 -7 53 -13 76 -30c25 -19 50 -38 67 -66c9 -15 13 -31 16 -48c11 -64 -6 -118 -49 -165c-11 -13 -10 -16 5 -24c19 -9 36 -17 51 -32c16 -13 26 -28 31 -45l9 -30c4 -20 1 -41 -9 -62c-11 -23 -27 -41 -46 -58
c-24 -23 -52 -35 -83 -46c-7 -3 -14 -3 -21 -4l-58 -8c-31 -3 -59 -5 -90 -4c-27 1 -51 2 -78 5c-11 1 -21 5 -32 9c-8 3 -12 8 -12 17c0 21 1 42 2 63l3 58l3 60c1 19 0 34 3 53c3 43 4 86 4 130c-1 35 -1 70 -1 105c-1 36 -1 72 2 107l2 18c1 8 6 12 15 13zM191 488l3 -64
h-1l2 -46c1 -12 6 -14 18 -17c19 -1 35 4 54 11c15 7 24 17 28 31c9 28 1 51 -18 72c-16 19 -38 26 -61 33c-19 5 -25 0 -25 -20zM230 252v-1c-7 0 -10 1 -17 0s-11 -5 -12 -13c0 -3 1 -5 1 -8l8 -70c1 -11 4 -14 15 -17c21 -4 41 0 62 4c18 4 29 15 32 33c1 7 2 12 2 16
c-3 23 -13 47 -44 51c-15 3 -31 4 -47 5z" />
    <glyph glyph-name="C" unicode="C" horiz-adv-x="397" 
d="M162 341c-3 -45 11 -85 35 -122c9 -15 22 -27 37 -36c16 -9 32 -15 47 -17c19 -3 39 -6 58 -10c13 -3 18 -10 16 -23c0 -7 -1 -12 -1 -19c1 -27 1 -51 1 -78c0 -5 0 -9 -1 -12c-1 -13 -7 -20 -24 -19c-20 1 -41 2 -61 5c-31 4 -61 9 -89 24c-19 9 -37 19 -56 30
c-17 9 -30 23 -43 38c-23 29 -39 60 -47 95c-7 25 -10 50 -13 77c-1 19 0 39 3 58c3 23 3 45 10 68c12 44 26 87 53 126l21 26c27 32 60 53 99 68c19 8 37 15 58 16c19 1 38 5 58 1c11 -3 20 -6 29 -13c6 -5 9 -12 8 -19c-1 -13 -1 -26 -4 -39c-3 -27 -7 -52 -11 -77
c-3 -15 -5 -16 -20 -19c-8 -1 -16 -1 -25 0c-19 1 -36 -1 -53 -8c-9 -3 -18 -7 -27 -11c-33 -15 -51 -38 -55 -71c-3 -13 -2 -26 -3 -39z" />
    <glyph glyph-name="D" unicode="D" horiz-adv-x="469" 
d="M37 80v66c0 41 -1 81 0 124c0 21 2 41 3 62c3 29 2 57 5 85c1 29 2 57 5 88c0 7 0 13 1 20c0 27 1 53 2 80c0 14 1 29 3 44c1 10 6 15 16 16c20 3 41 5 61 5c31 1 62 3 93 0c41 -3 80 -12 116 -35c19 -12 36 -27 51 -43c5 -5 9 -11 12 -16c17 -33 31 -66 38 -102
c6 -28 7 -55 2 -81l-8 -59c-3 -23 -11 -44 -19 -67c-3 -11 -8 -21 -11 -32c-12 -31 -27 -60 -45 -87c-8 -11 -17 -19 -25 -28c-11 -11 -19 -23 -30 -32c-25 -23 -50 -44 -75 -65c-13 -11 -30 -15 -46 -20c-23 -7 -46 -12 -70 -19c-7 -3 -14 -1 -21 -2c-11 0 -20 -1 -29 -1
h-7c-11 1 -18 6 -20 17c-1 9 -2 17 -2 26c-1 19 0 37 0 56zM193 448c0 -20 -1 -44 -2 -67c0 -11 0 -19 -1 -30c-3 -24 -4 -49 -4 -73v-16c0 -23 -1 -45 -2 -68c0 -11 5 -13 14 -7c5 4 11 8 16 13l44 49c9 11 17 21 24 32c21 39 33 79 33 123c0 36 -11 65 -38 89
c-20 19 -44 24 -71 27c-7 1 -12 -3 -14 -12c0 -3 -1 -4 0 -7c0 -17 1 -33 1 -53z" />
    <glyph glyph-name="E" unicode="E" horiz-adv-x="378" 
d="M33 88h1l3 122c0 23 1 42 4 65c0 7 -1 14 0 21c0 25 1 49 2 74c0 15 2 28 3 43l2 44c1 23 1 44 4 67c1 19 0 37 3 56l3 53l2 8c3 13 10 19 22 19c19 3 39 2 59 2c11 0 23 -1 35 -3h13c15 -1 28 -2 43 -2c13 0 25 2 38 1c19 0 38 -1 57 -1c8 -1 13 -6 14 -13v-4
c0 -35 1 -68 1 -103c0 -12 -6 -19 -17 -21c-19 -3 -38 -4 -55 -2c-17 1 -35 -2 -54 -7c-7 -2 -10 -7 -10 -14c0 -9 1 -18 1 -27l3 -30l2 -7c2 -10 8 -14 17 -12c19 4 38 2 57 -1c11 -1 21 0 32 -3c11 -2 16 -9 17 -20c3 -24 4 -48 5 -71v-14c0 -11 -5 -16 -14 -17
c-12 -3 -25 -3 -38 -4c-17 -3 -35 -3 -52 -4c-9 0 -17 0 -26 -1c-15 -1 -18 -5 -18 -20l4 -63c0 -5 0 -9 1 -11c1 -10 6 -15 15 -15c17 -1 35 -2 52 -2l46 -2c13 0 20 -7 21 -21v-1l2 -107v-6c0 -13 -6 -20 -19 -20c-28 1 -56 0 -84 3l-93 9c-7 1 -14 0 -22 0l-61 2
c-11 1 -17 7 -18 16z" />
    <glyph glyph-name="F" unicode="F" horiz-adv-x="357" 
d="M95 641v-2c21 3 42 5 63 6c15 1 29 2 44 2h45l68 -4c9 0 16 -5 19 -16s6 -20 3 -31v-6c0 -25 0 -50 -1 -75v-7c-3 -16 -9 -19 -25 -18c-7 0 -13 -1 -20 -1h-58c-9 0 -19 -1 -28 -2c-13 -3 -17 -6 -17 -19c1 -21 2 -42 2 -63c1 -11 2 -21 2 -32l3 -11c1 -4 4 -6 9 -6
c3 -1 7 -1 11 0c19 3 36 1 55 0c8 -1 17 -1 26 -1h4c17 -3 22 -6 22 -25l3 -79c0 -19 -5 -24 -24 -24l-78 -4c-7 0 -13 0 -20 -1c-9 -1 -13 -6 -12 -15c1 -15 2 -28 5 -43v-6l3 -70c1 -15 2 -31 5 -46c0 -7 0 -12 -1 -19c0 -7 -4 -11 -12 -13c-3 -1 -7 -1 -13 -1
c-25 0 -50 1 -75 2h-37c-5 0 -9 0 -11 1c-8 2 -12 7 -13 14v4l-2 88c0 29 -2 57 -3 85v8v111c0 23 -1 44 0 67c0 27 1 52 2 77c1 28 1 56 4 84c1 24 1 47 4 71c0 12 7 19 21 20h27z" />
    <glyph glyph-name="G" unicode="G" horiz-adv-x="504" 
d="M474 239v-42c-1 -27 -1 -52 -4 -79c-1 -15 -4 -29 -12 -42c-5 -8 -10 -14 -17 -21c-12 -11 -24 -20 -39 -28s-28 -12 -44 -15l-60 -12c-21 -4 -41 -5 -62 -3c-19 1 -38 4 -57 11c-12 3 -23 7 -32 12c-19 11 -38 22 -54 38c-20 19 -34 42 -42 69c-11 35 -16 67 -21 102
c-5 34 -4 69 2 104c7 44 19 86 39 126c19 40 45 73 78 100l27 22c21 17 44 26 71 33c16 3 32 5 48 4c12 -1 24 1 36 0s23 -5 35 -6c13 -3 27 -1 40 -4c4 0 9 -1 16 -2c9 -3 13 -8 12 -17c0 -11 -3 -22 -4 -33c-3 -17 -3 -35 -6 -52c-1 -13 -3 -27 -6 -40
c-3 -11 -8 -17 -21 -17c-20 0 -40 0 -60 -1c-12 -1 -25 -4 -37 -5c-29 -3 -55 -13 -79 -29c-33 -21 -53 -49 -61 -86c-8 -40 0 -78 19 -113c5 -9 11 -18 16 -25c19 -28 44 -42 76 -49c13 -2 27 0 41 7c9 5 14 12 15 23c1 15 2 27 2 42c0 3 1 2 0 5c-1 11 -1 20 -20 19
c-16 0 -32 -1 -47 -1c-7 0 -11 1 -16 2c-13 2 -18 9 -16 22c1 11 4 19 5 30c1 19 4 36 1 55v12c-1 15 10 19 21 19c5 -1 9 -2 14 -2c17 -3 33 0 49 1c3 1 7 1 12 1c37 -4 75 -2 112 -9c1 -1 3 -1 6 -1c15 0 17 -3 20 -18l3 -37c0 -23 1 -47 1 -70z" />
    <glyph glyph-name="H" unicode="H" horiz-adv-x="511" 
d="M334 647h59h39h21c20 -1 24 -10 24 -25c-1 -20 -1 -40 -1 -61l-4 -117c-1 -28 -4 -55 -5 -83c-1 -12 -1 -24 -1 -36c-3 -27 -4 -55 -5 -82c-1 -12 0 -24 -1 -36c-3 -32 -3 -63 -4 -95c-1 -16 -1 -32 -1 -49l-3 -49c0 -3 0 -6 -1 -8c-3 -10 -9 -15 -18 -15
c-12 0 -25 1 -37 1s-23 -1 -35 -1c-15 -1 -31 -1 -47 -1c-10 0 -15 5 -16 15c0 3 -1 4 -1 7c0 40 -1 80 -2 119c0 17 -1 33 -1 50c0 16 2 32 2 48c0 7 0 11 -1 18c-1 8 -6 12 -13 12c-27 1 -50 0 -77 -4c-13 -3 -17 -7 -17 -20c0 -21 2 -42 2 -62c0 -16 -1 -32 -2 -48
l-3 -78c-1 -3 -1 -9 -1 -16c0 -13 -6 -19 -19 -19h-39c-23 1 -42 -1 -65 -4c-4 -1 -9 -1 -13 -1c-8 0 -13 4 -14 13c-1 1 -1 4 -1 7c0 19 -1 34 -1 53c0 11 1 22 2 34l8 105l8 98l2 55c3 27 4 53 5 80c3 27 2 52 5 79l4 48c0 9 1 19 1 28c0 13 5 25 9 37c3 9 9 13 19 13
l56 -3c7 -1 14 -1 21 -1c12 -1 24 -2 36 -2c12 -1 18 -8 18 -20c-1 -20 -1 -41 -4 -61c-4 -39 -8 -74 -11 -113c-3 -17 -2 -34 -2 -51c0 -9 4 -14 13 -13c21 3 42 1 63 -2h9c8 2 12 6 12 13c1 39 8 74 8 113c0 20 3 40 4 61c0 15 -1 31 -2 46v7c2 11 8 16 18 16z" />
    <glyph glyph-name="I" unicode="I" 
d="M32 39h1c-1 11 -2 21 -2 32c0 15 1 29 2 44v14v55l3 58l3 57l6 102l2 51c1 16 2 32 5 48v10l3 94c0 8 1 16 2 24c3 15 8 19 24 22c13 1 26 4 41 5c17 3 34 2 51 5c9 0 18 1 26 2c3 0 7 -1 11 -2c9 -2 14 -7 15 -15c3 -23 4 -46 1 -69c-3 -20 -4 -41 -5 -61
c-3 -32 -4 -63 -7 -94c-1 -13 -1 -26 -1 -41l-3 -78c-1 -13 0 -25 -1 -37c-3 -29 -4 -57 -7 -86v-8l-3 -94l-2 -36c-1 -17 -10 -26 -26 -27c-23 -3 -43 -1 -66 -4c-15 -1 -29 -4 -44 -5c-3 -1 -7 -1 -12 -1c-11 0 -16 5 -17 16v19z" />
    <glyph glyph-name="J" unicode="J" horiz-adv-x="541" 
d="M288 295v63c1 23 2 43 2 64c0 17 -2 34 -3 51c0 5 0 10 -1 13c0 11 -5 17 -16 16c-25 -1 -49 -2 -74 -5c-19 -1 -36 -2 -55 1c-12 2 -17 9 -16 22c4 23 5 46 6 69c0 11 1 23 2 34c1 8 6 13 15 14l53 4l59 2c7 0 12 0 19 1c15 3 30 3 46 2c15 -3 30 -2 45 -3
c19 -3 35 -2 54 -5c24 -3 48 -4 71 -5c3 -1 5 0 8 0c13 -1 19 -7 19 -19c-1 -17 -2 -34 -2 -50v-11c0 -11 0 -19 -1 -28c0 -11 -6 -18 -17 -20l-37 -4c-19 -3 -22 -5 -22 -25c0 -19 1 -38 2 -57c1 -33 -1 -66 -4 -99c-3 -29 -4 -57 -7 -85c-3 -20 -8 -36 -15 -55
c-8 -24 -16 -47 -29 -68c-29 -49 -70 -80 -124 -93c-17 -4 -34 -4 -51 -7c-29 -4 -57 1 -85 16c-17 9 -32 22 -46 38c-7 7 -10 13 -17 20c-23 25 -35 54 -38 87c-3 31 -5 63 -6 94c0 19 3 39 4 58c0 1 1 4 2 8c2 7 7 11 14 10c11 0 21 -2 32 -3c23 -4 44 -8 67 -11
c8 -1 16 0 24 0c4 0 7 0 9 -1c9 -2 13 -7 12 -16c0 -11 -2 -22 -2 -33c0 -17 -1 -34 2 -50c2 -15 8 -29 19 -43c10 -13 23 -16 39 -9c18 9 29 23 34 42c7 25 10 50 9 76z" />
    <glyph glyph-name="K" unicode="K" horiz-adv-x="565" 
d="M185 200c-1 -6 -2 -10 -1 -13c4 -21 3 -41 4 -64c0 -15 2 -29 3 -44c3 -23 3 -47 4 -70c0 -5 -1 -9 -1 -16c0 -9 -11 -17 -20 -16l-19 2c-17 3 -34 2 -51 -1c-15 -1 -30 -2 -45 -2c-13 1 -16 5 -19 18c-1 7 -1 11 -1 18c-3 27 -4 51 -4 78c-1 32 0 65 0 97
c0 31 2 61 1 92c-1 32 2 64 2 96c1 23 1 46 1 69c1 28 1 56 4 84l3 58c1 2 1 5 1 8c2 9 8 13 17 12c31 -3 60 -1 89 0c9 1 18 0 27 -1c7 -1 12 -6 13 -14l12 -81c3 -17 2 -34 3 -51c0 -17 0 -35 1 -52v-19c0 -1 1 -3 3 -5c3 3 6 4 9 7c5 5 9 10 13 17c19 27 38 54 53 85
c12 23 27 45 40 68c11 19 18 35 29 54c5 9 9 19 16 28c4 9 11 14 22 14c27 -1 53 -3 79 -6c13 -1 26 0 39 0c1 0 1 1 2 1c15 -1 25 -5 17 -24l-25 -60c-11 -23 -18 -44 -29 -65c-12 -27 -25 -51 -40 -76c-8 -15 -15 -30 -24 -45l-37 -58c-3 -4 -4 -8 -7 -13
c-5 -9 -4 -13 3 -20c21 -21 39 -44 56 -68c32 -43 63 -88 91 -135c7 -11 12 -20 17 -31c7 -13 3 -21 -12 -24l-18 -2c-19 -3 -39 -3 -58 -6c-19 -1 -37 -2 -56 -5c-4 -1 -8 0 -12 -1c-10 -1 -18 3 -24 11l-33 43c-9 11 -18 23 -29 34c-11 12 -22 20 -34 31
c-9 8 -17 17 -25 25l-33 30c-4 3 -10 6 -15 9c-1 0 -1 -1 -2 -1z" />
    <glyph glyph-name="L" unicode="L" horiz-adv-x="394" 
d="M264 13c-19 1 -43 -1 -68 -4c-12 -1 -24 0 -36 0c-7 0 -13 1 -20 1h-81c-5 0 -8 0 -10 1c-7 1 -12 5 -13 11c-1 7 -2 11 -2 14c0 25 -1 49 0 74c0 35 1 67 4 102c0 16 1 33 2 50c1 27 1 53 4 80c4 43 7 83 12 126c4 41 9 81 14 124c1 10 3 19 6 28c3 12 10 15 22 15h39
l46 -4h3c19 -4 22 -11 19 -30s-6 -35 -7 -54s-1 -39 -1 -58c-1 -17 -2 -33 -2 -49l-3 -68l-3 -53c-1 -9 -1 -17 -1 -28v-90c0 -6 0 -10 1 -13c1 -9 7 -13 16 -11c9 3 18 5 29 6c15 3 29 2 44 2c7 1 14 1 21 1c23 0 44 0 67 -1c9 -1 14 -6 15 -16c0 -9 -1 -18 0 -27
c0 -20 1 -40 1 -60c0 -13 -1 -26 -2 -38c-1 -17 -7 -22 -23 -25c-15 -3 -29 -5 -44 -6s-28 0 -49 0z" />
    <glyph glyph-name="M" unicode="M" horiz-adv-x="664" 
d="M445 448c-7 -1 -8 -6 -11 -10c-7 -9 -11 -18 -16 -27c-17 -32 -34 -62 -53 -91l-28 -36c-3 -3 -2 -4 -5 -5c-9 -7 -16 -7 -22 1l-21 32c-17 29 -33 59 -52 88c-5 8 -10 14 -15 21l-20 25c-3 4 -4 7 -11 6c0 -3 -2 -7 -2 -11c0 -12 1 -23 1 -34c0 -16 -1 -32 -1 -47
c0 -13 2 -25 2 -37c0 -11 -1 -21 -2 -32l-4 -52c-1 -31 -1 -59 -1 -90c0 -9 1 -18 1 -27c0 -15 -1 -27 -1 -42v-24c0 -11 -6 -18 -18 -20c-15 -3 -30 -5 -45 -6c-21 -2 -42 -3 -63 -3c-14 0 -21 7 -21 22c-1 25 -1 50 -1 75c0 21 0 41 1 61v72v67c0 37 -1 74 4 111
c1 4 0 10 0 15c1 39 0 79 3 119c0 19 2 35 3 52c2 11 9 18 20 20c21 3 42 3 62 0c21 -3 42 -5 63 -4c16 0 28 -7 37 -21c21 -33 41 -68 66 -99c4 -5 7 -10 10 -15l9 -12c6 -8 11 -8 16 0s9 17 14 26l57 106l8 17c3 10 11 15 23 15c4 -1 9 -1 13 -1c23 -3 46 -4 69 -5
c13 0 25 3 38 4c7 1 12 2 19 1c12 0 19 -6 21 -19c3 -17 2 -35 5 -52l9 -73c1 -5 1 -10 1 -14c3 -19 3 -36 4 -55l3 -53l3 -81c0 -11 -1 -19 -1 -28l3 -80l8 -83c1 -8 -1 -17 -1 -25c0 -11 1 -22 2 -33c0 -12 1 -23 1 -35c0 -15 -4 -19 -19 -22l-51 -3c-25 -1 -50 0 -75 -1
c-7 0 -14 -1 -21 -1c-8 0 -13 4 -14 11s-1 11 -1 18c-1 19 -1 39 0 59c0 17 0 33 1 50v37c1 33 2 66 2 99c1 19 0 38 0 58c-1 36 -2 72 -2 108c0 7 -1 11 -4 13z" />
    <glyph glyph-name="N" unicode="N" horiz-adv-x="598" 
d="M211 355l-4 -22c0 -8 1 -17 1 -26c0 -7 -1 -12 -1 -19l-3 -62l-4 -31c-3 -23 -3 -44 -6 -67c-4 -31 -3 -61 -3 -92c0 -7 0 -12 -1 -19c0 -11 -5 -16 -15 -16c-13 -1 -25 0 -38 0c-11 1 -21 1 -32 0c-20 -3 -40 0 -60 4c-9 1 -13 6 -13 16c0 12 1 24 2 35c1 32 0 63 3 94
c0 23 1 44 4 67l3 38c1 19 1 39 4 58c1 23 2 45 5 68c1 17 4 34 5 51c1 16 0 31 3 46l6 75c3 16 4 32 5 48c3 16 7 22 23 23c19 1 35 2 54 -1c16 -3 32 -3 48 -6c12 -1 24 -1 36 -4c2 0 5 -1 9 -2c11 -2 19 -9 23 -21c3 -7 4 -14 7 -21c7 -15 14 -29 23 -44
c25 -43 45 -85 64 -130c11 -25 22 -52 35 -79c1 -3 3 -6 6 -9c5 3 5 7 6 11l2 16v46c1 27 2 52 2 77l2 49l4 81c1 15 2 29 2 44c1 12 7 18 19 18c8 0 15 -2 23 -1c11 0 22 1 34 2c11 1 21 3 32 2c10 -2 15 -7 16 -16c1 -7 1 -12 1 -17c3 -24 2 -49 5 -73l3 -57l2 -87
c0 -23 1 -43 1 -66c1 -29 1 -59 1 -88c0 -31 1 -58 2 -89l4 -74c0 -15 1 -30 1 -45c0 -4 -1 -8 -1 -11c-2 -9 -7 -13 -15 -14l-59 -8c-11 -1 -21 0 -32 -1l-59 -4c-1 0 -1 -1 -2 -1c-20 -1 -28 1 -36 20c-15 37 -29 74 -44 110l-36 87c-19 40 -34 80 -53 120
c-3 7 -5 13 -14 17z" />
    <glyph glyph-name="O" unicode="O" horiz-adv-x="678" 
d="M650 340h-1v-5c3 -39 -8 -76 -21 -113c-3 -5 -4 -10 -7 -17c-8 -27 -22 -49 -37 -72c-8 -12 -16 -23 -24 -32c-8 -8 -14 -17 -22 -25c-31 -32 -64 -56 -107 -71c-21 -7 -44 -9 -67 -12c-25 -4 -49 -1 -74 0c-15 1 -28 6 -43 13c-21 8 -40 18 -60 29c-7 3 -13 9 -20 14
l-35 26c-23 16 -42 35 -57 58c-19 31 -37 58 -45 93c-2 6 -3 12 -3 17c-3 27 -2 55 3 83c7 35 14 70 26 103c8 24 20 47 33 68c21 35 41 67 68 96c15 17 33 31 52 43c5 4 9 7 16 11c25 17 52 30 83 35c11 1 19 2 30 1c28 0 56 -1 84 -2c15 -1 29 -5 42 -12
c16 -7 31 -15 46 -23c23 -11 38 -28 54 -47c24 -27 39 -58 52 -91c15 -35 22 -70 29 -106c3 -21 2 -41 5 -62zM476 342c0 11 1 19 -2 28c-1 11 -4 19 -5 28c-7 35 -24 60 -45 87c-13 16 -30 24 -49 32c-17 8 -35 13 -54 4h-2c-16 -3 -31 -10 -45 -22
c-13 -11 -24 -22 -35 -37c-33 -44 -61 -122 -53 -180c5 -36 21 -67 48 -92c13 -12 28 -20 44 -28c23 -11 44 -16 68 -15c27 3 51 10 68 33l7 7c24 27 39 58 48 93c7 20 7 41 7 62z" />
    <glyph glyph-name="P" unicode="P" horiz-adv-x="479" 
d="M466 452c1 -33 -6 -65 -15 -96c-5 -17 -13 -32 -26 -45c-25 -29 -49 -58 -76 -87c-6 -6 -12 -11 -18 -14c-33 -17 -67 -30 -106 -37c-9 -2 -13 -7 -14 -16v-74v-15v-16v-33c0 -9 -5 -14 -14 -14c-25 3 -49 -7 -73 -10c-16 -1 -32 -1 -47 -4c-7 -1 -12 -2 -19 -2
c-11 -1 -18 4 -21 15c-1 7 -1 11 -1 18c0 15 0 28 1 43c0 4 -2 9 -1 14c0 17 1 34 1 51c1 11 0 22 0 33c0 40 -1 80 0 119c0 32 1 64 3 96c1 32 3 65 6 98c3 35 4 70 7 105c3 23 2 44 5 67c1 13 1 21 20 26c19 4 34 5 53 8c25 1 49 2 74 5c3 0 7 -1 11 -1
c27 -4 54 -7 81 -15c16 -5 34 -7 49 -16c20 -11 38 -23 53 -36c5 -5 10 -10 15 -17c27 -35 43 -74 50 -117c3 -11 2 -22 2 -33zM203 436l-1 -1v-28l4 -57c1 -21 4 -27 29 -24s46 15 63 36c11 13 18 27 22 43c5 28 -1 53 -13 80c-6 13 -15 23 -27 30c-23 13 -46 15 -71 15
c-7 0 -11 -4 -12 -13c0 -8 1 -16 1 -24c3 -19 2 -38 5 -57z" />
    <glyph glyph-name="Q" unicode="Q" horiz-adv-x="662" 
d="M446 -169h-18c-25 0 -50 3 -74 14c-17 8 -30 20 -45 32c-27 22 -44 49 -51 81l-3 18c-2 11 -9 19 -21 23c-31 11 -59 23 -84 42c-20 15 -38 29 -57 48c-27 27 -43 57 -54 92s-16 70 -17 106c0 19 -2 39 -1 59c3 36 8 72 15 108c5 25 16 46 31 66c15 21 31 42 48 62
c12 13 25 23 40 34c23 19 47 31 74 42c19 8 38 12 57 17c12 3 25 4 38 7c11 3 19 2 30 3c28 2 55 -1 80 -8c19 -7 37 -13 52 -26c8 -8 18 -12 27 -20c15 -15 30 -28 42 -47l26 -37c11 -15 19 -31 26 -50c7 -17 13 -34 18 -51s8 -34 11 -51c1 -7 1 -12 1 -17
c3 -39 0 -75 -13 -110c-20 -55 -42 -106 -77 -153c-25 -35 -56 -66 -96 -86c-17 -8 -33 -17 -52 -22c-1 0 -3 -1 -6 -2c-5 -3 -7 -7 -4 -12c0 -1 1 -3 2 -4c15 -17 31 -28 54 -24c15 2 22 -5 22 -20c0 -20 -1 -41 -2 -61v-29c0 -3 -1 -7 -2 -11c-2 -9 -8 -13 -17 -13z
M230 354c15 0 28 1 43 -2c44 -11 77 -36 94 -79c12 -30 18 -61 18 -93c0 -5 0 -11 1 -16c1 -7 5 -9 11 -6c7 4 11 7 15 12c23 20 38 44 50 71c16 39 28 76 21 119c-5 35 -12 66 -31 97c-15 25 -33 45 -54 61c-6 5 -12 8 -18 9c-16 1 -33 3 -49 -4c-19 -7 -35 -15 -54 -22
c-32 -13 -55 -35 -78 -60c-19 -21 -27 -48 -32 -76c-1 -9 3 -13 11 -13h13c13 1 27 2 39 2zM260 169c-3 12 -3 21 -6 32c-2 8 -7 16 -15 24c-13 12 -29 12 -45 11c-7 0 -9 -4 -6 -11l12 -18c12 -17 25 -33 41 -46c4 -3 9 -6 14 -3c3 3 4 8 5 11z" />
    <glyph glyph-name="R" unicode="R" horiz-adv-x="563" 
d="M212 208c-7 -7 -6 -11 -7 -18c-3 -28 -4 -56 -4 -84c-1 -24 -2 -47 -5 -70l-8 -63c0 -3 -1 -8 -2 -13c-3 -8 -9 -12 -17 -12l-42 3c-25 1 -49 4 -73 3c-13 0 -20 7 -19 20c0 41 1 82 2 125c0 19 1 35 1 54l4 64v28c1 19 2 38 2 57c1 29 3 57 6 85l11 119c3 27 4 51 7 78
l4 33c1 4 2 8 4 11c3 7 9 10 16 10c2 -1 5 -1 9 -1c19 -3 36 0 55 3c43 5 83 9 126 6c19 -1 38 -6 57 -10c3 0 6 -2 9 -2c31 -6 58 -20 82 -43c25 -25 49 -50 61 -85c7 -16 8 -34 12 -50c2 -11 3 -22 3 -32c0 -11 -1 -23 -4 -34c-2 -20 -7 -39 -15 -57
c-11 -24 -26 -43 -45 -60c-7 -7 -15 -11 -23 -18l-8 -6c-6 -6 -6 -12 -1 -18c15 -19 28 -39 43 -58l33 -46c19 -27 36 -52 51 -80c1 -2 3 -5 4 -9c3 -9 1 -15 -8 -17c-8 -3 -17 -2 -25 -3c-35 -3 -67 -3 -102 -10c-9 -2 -17 1 -24 9c-21 23 -42 46 -62 70l-67 79
c-11 13 -22 25 -34 37c-3 3 -4 2 -7 5zM214 368v-39c0 -11 5 -15 15 -12c17 4 33 10 50 15c45 16 64 67 61 101c-5 47 -40 63 -71 62c-13 -1 -26 -2 -39 -5c-15 -3 -18 -7 -18 -22c1 -33 2 -67 2 -100z" />
    <glyph glyph-name="S" unicode="S" horiz-adv-x="508" 
d="M62 26v36c0 24 1 47 1 70l2 13c3 11 10 15 21 13l48 -9c13 -3 25 -4 38 -2c11 3 25 2 40 -1c25 -4 48 0 70 12c11 5 17 13 18 24c1 4 0 9 -1 14c-4 14 -12 24 -24 31c-11 7 -21 12 -33 16c-26 11 -52 21 -78 30l-22 8c-22 8 -41 19 -58 34c-28 27 -46 59 -53 98
c-3 21 -4 41 -3 62c1 20 7 40 14 59c9 24 21 46 36 67c19 27 42 43 71 54c12 4 23 10 35 14c15 5 30 9 47 12c29 5 58 7 87 6c23 -1 47 -3 71 -6c3 0 7 -2 10 -3c8 -3 11 -9 10 -18c-3 -13 -4 -26 -7 -39l-14 -68c0 -1 -1 -3 -2 -6c-3 -9 -9 -14 -19 -13c-31 3 -59 5 -90 6
c-23 1 -44 -2 -63 -15c-5 -3 -10 -7 -14 -11c-5 -7 -8 -14 -7 -23c4 -21 15 -37 33 -46c19 -10 39 -19 61 -28l17 -8l46 -20c29 -13 56 -32 80 -53c17 -13 28 -31 36 -51c8 -19 16 -37 19 -56c0 -3 1 -4 1 -5c0 -37 -3 -72 -18 -107c-9 -22 -22 -41 -37 -56
c-16 -16 -32 -33 -52 -44c-25 -14 -52 -25 -83 -34c-24 -7 -50 -10 -77 -10c-13 1 -26 3 -39 6c-27 7 -53 11 -80 18l-25 9c-9 4 -13 11 -13 20z" />
    <glyph glyph-name="T" unicode="T" horiz-adv-x="462" 
d="M303 2l-65 -3l-54 4c-1 1 -2 1 -4 1c-11 3 -16 9 -17 20c-1 24 -1 48 -4 72c0 17 -1 35 -2 52l-3 81c0 5 0 10 -1 13l-3 84c-3 31 -3 62 -2 93c0 15 -1 29 -1 44v30c0 19 -4 22 -23 22c-31 0 -63 4 -94 9c-10 2 -15 8 -14 17c0 10 1 20 3 30l8 68l2 10c2 6 6 9 12 9
c7 0 12 -1 17 -1c11 0 19 1 30 2c19 3 37 5 56 5c39 -1 76 4 115 9c23 3 47 3 71 6l56 3c9 1 18 1 27 1c11 -1 13 -3 16 -14c0 -3 1 -5 1 -8c3 -23 4 -46 5 -69c2 -17 3 -34 3 -51c1 -13 -5 -19 -18 -19c-31 1 -60 -5 -89 -10c-1 0 -2 0 -2 -1c-15 -3 -18 -8 -17 -23l4 -32
c4 -31 8 -59 11 -90c1 -9 0 -17 0 -28c0 -13 -1 -26 0 -39c1 -19 1 -34 4 -53l4 -61c3 -19 1 -36 4 -55l3 -54l2 -49c0 -3 -1 -6 -2 -10c-1 -7 -6 -12 -14 -13s-16 -2 -25 -2z" />
    <glyph glyph-name="U" unicode="U" horiz-adv-x="583" 
d="M310 16h-37c-20 0 -39 -1 -59 4c-17 5 -35 10 -50 21c-11 7 -23 13 -34 22c-32 25 -55 57 -72 93c-7 15 -11 31 -13 50c-3 23 -4 45 -7 68c-1 16 -4 32 -5 48c-1 27 -1 55 0 82c0 17 1 34 2 53l4 40c3 15 3 31 4 46c3 23 4 44 7 67c0 9 2 17 3 26c2 13 9 19 22 17
c11 -1 23 0 36 2l23 2c21 1 41 0 64 3c9 0 14 -4 15 -13c0 -5 -1 -10 -1 -15c-3 -31 -5 -62 -6 -93c-3 -31 -2 -61 -3 -92c-1 -23 -1 -43 -1 -66c0 -29 -1 -58 2 -86c1 -17 0 -34 5 -51c3 -13 10 -24 20 -31c13 -11 27 -19 43 -23c20 -7 45 0 58 17c13 15 22 32 29 51
c11 31 17 63 20 96c3 21 3 41 6 64c0 7 -1 14 -1 21c1 24 1 48 1 72l-4 98c0 12 -1 25 -1 37c1 9 5 14 14 16c11 3 19 2 30 5c20 4 40 9 60 12c19 3 36 1 55 1c7 1 12 -3 14 -12c0 -1 1 -4 1 -5c-1 -21 -2 -42 -2 -63c-1 -8 -1 -16 -1 -24c-1 -35 -1 -69 -4 -104l-8 -112
c-4 -47 -11 -93 -22 -140c-3 -13 -8 -26 -14 -39c-11 -23 -21 -44 -32 -65c-8 -16 -17 -31 -30 -43c-20 -17 -39 -34 -64 -43c-23 -9 -46 -13 -67 -14z" />
    <glyph glyph-name="V" unicode="V" horiz-adv-x="633" 
d="M325 244c3 4 5 8 6 11l10 43c7 28 14 55 22 83c11 43 24 86 36 129l20 80l7 19c7 17 10 35 13 54c3 15 6 18 22 21c15 3 30 4 46 7c13 1 26 1 39 1c15 0 27 -2 42 -2c20 0 25 -7 20 -26l-20 -84c-15 -61 -25 -121 -44 -181l-27 -92l-38 -114l-48 -132l-12 -31
c-5 -12 -14 -18 -27 -18c-33 -1 -66 0 -99 3c-16 2 -32 3 -49 3c-16 1 -22 4 -27 19c-9 27 -18 51 -29 78c-7 16 -10 32 -17 48c-3 8 -6 17 -10 26c-4 11 -8 23 -13 35l-23 52c-15 33 -27 67 -38 102c-12 36 -19 74 -30 111c-11 36 -20 73 -31 110c-3 11 -3 18 -6 29
c-2 12 4 18 17 18c29 -1 58 -1 87 -4c15 -1 31 -3 46 -6c8 -1 14 -5 17 -14c8 -17 17 -33 22 -50c16 -59 38 -113 59 -169c12 -31 21 -61 29 -93c5 -19 12 -36 19 -55c1 -3 3 -7 6 -10c1 0 2 -1 3 -1z" />
    <glyph glyph-name="W" unicode="W" horiz-adv-x="913" 
d="M632 284h3c1 5 3 9 4 13l8 51c3 20 7 40 11 59c13 59 27 115 39 172c3 12 4 25 5 38l7 42c3 14 11 21 25 22c13 3 25 3 38 4c7 0 14 -1 22 -1h30c12 0 25 -1 37 -2c3 0 7 -1 12 -4c7 -3 10 -9 10 -16c0 -4 -1 -8 -1 -11c-3 -17 -4 -35 -7 -52l-2 -17
c-7 -29 -9 -59 -12 -88c-2 -25 -5 -48 -9 -71c-8 -48 -17 -95 -27 -141c-4 -23 -12 -43 -16 -66c-8 -39 -22 -75 -31 -114c-7 -27 -12 -52 -17 -79c-2 -13 -9 -20 -22 -22c-24 -4 -49 -9 -74 -8c-16 0 -33 -3 -49 -4c-17 -2 -35 -1 -54 2c-14 2 -23 10 -27 24
c-11 39 -25 76 -32 116c-1 5 -2 11 -5 17l-33 120c-2 8 -4 14 -7 19c-2 3 -4 5 -6 5c-3 0 -5 -2 -6 -5c-3 -8 -4 -16 -7 -23c-3 -12 -6 -24 -10 -36c-12 -44 -25 -88 -38 -132c-5 -17 -10 -34 -17 -51c-5 -15 -10 -18 -25 -15c-15 2 -30 2 -45 0c-8 -1 -15 0 -23 -1
c-17 -1 -35 -4 -52 -5c-8 -1 -15 -1 -22 -1c-8 0 -14 4 -18 11l-4 10l-15 38c-4 11 -8 19 -9 30c-1 9 -3 17 -6 25c-9 32 -16 65 -27 97c-5 21 -12 42 -19 63c-13 43 -25 86 -34 130l-6 24c-12 39 -20 79 -28 119c-7 31 -11 58 -14 89c0 1 -1 3 -1 4c1 7 4 11 11 11
c9 0 18 -1 26 -3c24 -7 49 -7 74 -10c7 0 15 -1 22 -1c10 -1 17 -7 20 -17c3 -7 2 -11 5 -18c9 -32 19 -64 27 -96c11 -40 19 -81 30 -121l24 -90c1 -5 3 -9 4 -11s3 -4 6 -7c7 3 7 8 8 13l22 89l24 90l22 89c5 23 9 47 16 70c3 12 7 16 19 15c27 -3 54 1 81 2
c11 0 22 -1 33 -2c8 -1 13 -8 16 -15l15 -51c7 -23 8 -47 15 -70c15 -55 30 -107 50 -159c9 -21 15 -42 23 -65c3 -5 4 -11 7 -16c1 -3 3 -3 6 -6z" />
    <glyph glyph-name="X" unicode="X" horiz-adv-x="650" 
d="M539 49v1c-15 0 -30 -1 -46 0c-9 0 -17 1 -28 1c-7 1 -12 4 -16 8l-6 6c-19 27 -39 50 -58 77l-34 47l-18 24c-9 11 -16 10 -21 -2c-7 -13 -12 -25 -19 -40l-8 -16c-13 -23 -22 -48 -31 -75c-8 -25 -20 -49 -32 -72c-4 -10 -12 -15 -24 -14h-54c-12 0 -24 1 -36 1
c-11 0 -19 -1 -28 -1c-12 0 -23 0 -34 1s-14 7 -10 16c5 13 10 24 15 34l27 55c16 36 34 71 53 106l55 90c8 15 12 30 19 45c4 9 3 18 -3 27l-13 20l-36 61c-12 20 -23 41 -34 62l-48 94c-5 9 -8 20 -15 29c-3 7 -9 11 -14 18c-3 3 -4 6 -7 9c-3 5 -2 9 4 12c4 1 6 2 7 2
c15 3 30 4 46 7c7 1 14 2 21 2c28 0 55 0 82 -1c7 0 13 -3 17 -8l20 -24c4 -7 8 -12 13 -17c23 -21 39 -46 55 -73c7 -11 12 -20 19 -29c3 -4 4 -10 11 -9c7 0 7 6 10 10l14 40c11 28 18 57 29 84c7 16 13 19 30 18c24 -2 48 -2 72 0c13 1 26 0 39 -1c7 -1 11 -6 12 -13
c0 -7 0 -12 -1 -19l-20 -66c-8 -28 -16 -57 -25 -86c-3 -11 -7 -21 -12 -30l-22 -50c-4 -12 -11 -21 -16 -32c-6 -10 -6 -19 1 -28l44 -57c8 -11 17 -20 24 -31l72 -102c11 -15 22 -29 31 -45c7 -13 13 -27 17 -40c5 -14 0 -22 -16 -23c-24 -3 -49 -2 -74 -3z" />
    <glyph glyph-name="Y" unicode="Y" horiz-adv-x="606" 
d="M44 671h22c21 1 41 2 64 2c11 0 20 0 31 -1c8 0 14 -4 19 -12c7 -9 12 -18 19 -27c13 -17 26 -33 41 -50c21 -27 42 -53 65 -80c11 -15 16 -13 23 4c17 35 31 70 52 105c11 19 19 37 30 56c5 10 13 15 24 14c11 0 22 2 33 1c19 -1 38 -1 57 -4c15 -1 29 -3 44 -6h5
c11 -2 15 -8 13 -19c0 -3 -1 -5 -2 -8l-23 -57c-9 -19 -18 -38 -29 -57c-31 -57 -67 -111 -100 -167c0 -1 -1 -2 -2 -3c-11 -11 -13 -25 -14 -40c-1 -27 -3 -55 -2 -83c1 -19 -1 -35 -1 -54c-1 -9 0 -18 -1 -27c-3 -31 -4 -62 -5 -93c-1 -11 0 -23 0 -35c0 -4 -1 -8 -1 -11
c-3 -12 -10 -18 -21 -18l-70 3l-31 2c-12 0 -23 1 -35 2c-10 1 -15 7 -15 20c-1 16 -1 31 -1 47c0 9 1 18 0 27c0 21 -1 41 -2 64c0 15 1 28 0 43c0 9 -1 17 -1 25v29c0 24 0 48 -1 72c0 12 -3 22 -10 31c-24 31 -45 63 -68 94c-19 27 -36 55 -51 83c-3 3 -4 5 -5 8
c-20 24 -36 49 -53 76c-5 8 -10 15 -17 22c-4 4 -7 7 -8 9c-5 7 -2 13 7 13c7 1 13 0 20 0z" />
    <glyph glyph-name="Z" unicode="Z" horiz-adv-x="541" 
d="M272 216l-9 -11c7 -5 10 -5 15 -5c15 0 29 2 44 -1c27 -3 53 -1 80 -4l60 -3c7 0 14 0 22 -1c14 0 21 -7 22 -21c0 -1 1 -1 1 -4c0 -20 1 -41 1 -62c0 -20 -1 -40 -2 -59c-1 -13 -7 -18 -20 -17l-46 3c-23 1 -43 0 -66 3c-17 1 -35 -2 -51 -5c-25 -5 -51 -7 -76 -8
c-35 -1 -71 -1 -107 -1c-27 -1 -54 -1 -81 -6c-1 -1 -3 -1 -6 -1c-9 0 -15 4 -17 13c-1 8 -2 17 -2 25c0 24 1 48 1 72c0 5 1 10 1 17c1 19 1 37 4 56c0 7 2 12 7 16l12 11c24 23 50 44 73 67c20 20 38 41 58 61c11 11 21 19 32 30c35 33 64 70 95 107c4 7 10 10 15 17
c7 9 5 14 -6 17c-16 4 -32 4 -48 3c-35 -3 -70 -5 -105 -2c-27 1 -54 4 -81 -1c-11 -3 -19 -1 -30 0c-9 0 -15 5 -16 16l-3 40c0 20 -1 41 -1 61c0 15 4 20 19 21c27 3 52 6 77 7c21 3 41 2 61 3c15 1 30 3 46 6l34 8c17 4 35 4 52 3c17 0 33 -2 49 -3c23 -3 47 -3 72 -1
c5 1 10 0 15 0c11 0 18 -5 21 -15c3 -9 5 -18 6 -29c4 -36 11 -72 10 -108c0 -15 1 -26 2 -41c0 -11 -1 -22 -8 -31c-7 -11 -13 -20 -21 -29c-29 -35 -58 -71 -90 -103l-67 -63c0 -1 -1 -2 -2 -2c-15 -15 -31 -30 -46 -46z" />
    <glyph glyph-name="bracketleft" unicode="[" horiz-adv-x="329" 
d="M33 8h-1c3 19 2 34 5 53l4 73c2 27 5 56 9 86c3 15 2 28 2 43c-1 28 -1 57 0 86c1 31 -1 61 -2 92c-1 7 0 13 -1 20v82c0 37 0 75 1 112c0 11 1 19 2 30c1 13 8 20 21 21c16 1 33 4 49 5c8 1 15 0 22 0c12 1 24 1 35 1c5 0 9 1 14 1c21 0 42 -1 63 -1c16 0 21 -4 24 -20
c7 -27 7 -53 10 -80l4 -34c0 -7 0 -12 -1 -17c-1 -9 -6 -13 -14 -12c-9 0 -17 1 -26 2c-11 3 -21 4 -32 5c-13 1 -19 -4 -18 -15c3 -24 2 -49 5 -74v-4c0 -35 1 -68 1 -101c0 -23 -2 -43 -3 -66s-1 -46 -1 -69c1 -19 2 -37 2 -56v-14c0 -9 5 -14 14 -15h22c11 0 20 0 29 -1
c11 -2 17 -9 17 -22c1 -11 0 -20 1 -31l4 -69c0 -13 1 -27 0 -40c-1 -10 -6 -15 -16 -16c-11 -1 -21 0 -32 -1c-12 0 -24 -1 -36 -2c-21 -1 -42 -4 -63 -5c-15 -1 -26 -2 -41 -2c-17 0 -34 1 -51 2c-14 0 -21 7 -21 22c-1 3 -1 9 -1 16v15z" />
    <glyph glyph-name="backslash" unicode="\" horiz-adv-x="334" 
d="M253 -5v3c-19 0 -38 -1 -57 0c-11 0 -20 1 -29 4c-9 2 -16 8 -19 17l-3 11c-4 23 -9 47 -14 70s-8 47 -15 70l-49 170c-11 37 -21 74 -26 113c-4 28 -7 56 -9 84c-3 31 -5 61 -12 92c-3 7 -4 15 -4 22c-1 7 3 12 10 13c11 1 20 2 31 2c32 -3 63 -3 95 -6
c9 0 15 -4 18 -13c7 -17 11 -34 16 -51c7 -27 11 -52 19 -79c13 -44 23 -88 34 -132c16 -64 30 -125 45 -189c11 -48 23 -95 31 -144l4 -31c3 -12 -1 -16 -12 -19c-3 -1 -4 -1 -5 -2c-16 -1 -33 -2 -49 -5z" />
    <glyph glyph-name="bracketright" unicode="]" horiz-adv-x="336" 
d="M297 531h1v-51c0 -20 2 -41 2 -61c0 -13 -1 -25 -2 -40v-29v-83c0 -15 1 -27 1 -42v-32c0 -12 1 -25 1 -37c0 -31 0 -63 -1 -94c-1 -27 -3 -50 -6 -77c0 -2 -1 -5 -2 -9c-1 -7 -6 -12 -13 -13s-15 -2 -22 -2c-9 0 -17 1 -26 2c-29 0 -57 1 -88 1c-11 0 -19 -1 -30 -2
c-15 -3 -28 -2 -43 -5c-7 0 -10 -1 -17 -2c-13 -1 -19 5 -19 18c0 28 0 57 1 85c0 9 1 17 1 26c1 10 5 16 14 19c13 3 26 6 39 10l26 9c9 4 14 11 14 22c-1 35 2 69 6 104c1 1 1 4 1 7c0 31 -1 63 2 95c1 21 -1 42 -2 63c0 21 -1 41 -2 61l-8 69c-1 9 -6 14 -16 15
c-11 1 -22 1 -33 1l-13 2c-9 1 -14 7 -14 16v49c0 16 2 32 2 48l2 25c1 11 7 18 17 20c12 3 24 4 36 5c27 1 54 2 81 2c25 0 50 -2 75 -3c11 -1 18 -7 21 -18c3 -8 3 -16 4 -24l8 -77c3 -12 2 -24 2 -36v-37z" />
    <glyph glyph-name="asciicircum" unicode="^" horiz-adv-x="471" 
d="M165 268h-19c-27 3 -49 -3 -72 -7l-23 -4c-2 -1 -5 -1 -9 -1c-19 -3 -21 7 -18 20c7 43 14 84 29 124c16 43 28 88 40 132c11 39 23 75 34 114l6 14c4 12 7 15 22 15c11 0 19 -1 30 0l50 3c15 1 26 2 41 2l49 3c20 1 23 -1 31 -20c7 -20 15 -41 24 -60
c9 -21 15 -43 20 -66l27 -121c4 -19 5 -36 8 -55l8 -69v-9c0 -9 -5 -15 -14 -19c-23 -8 -48 -8 -73 -7c-13 0 -27 1 -40 1c-13 -1 -21 5 -24 18c-5 35 -13 68 -24 103l-21 78c0 2 -1 4 -2 7l-6 6c-3 -3 -5 -3 -6 -6c-3 -5 -3 -9 -6 -16l-12 -47l-24 -107l-2 -8
c-3 -12 -9 -19 -24 -18z" />
    <glyph glyph-name="underscore" unicode="_" horiz-adv-x="334" 
d="M33 -1l3 51c0 3 1 6 2 10c3 9 9 15 19 17h4l78 2c19 0 35 2 54 1c15 0 29 -2 44 -3l37 -2h3c20 -3 27 -8 26 -28l-3 -101c0 -13 -5 -19 -16 -19c-9 0 -18 -1 -27 -1c-23 0 -42 1 -65 1c-11 1 -19 2 -30 2c-8 0 -15 -1 -23 -1c-28 -1 -56 -1 -84 -1c-12 0 -18 6 -18 17
c-3 19 -3 36 -4 55z" />
    <glyph glyph-name="grave" unicode="`" horiz-adv-x="261" 
d="M87 662c11 -3 22 -3 37 -6l56 -8c9 -1 15 -6 18 -16l9 -45c8 -31 16 -62 23 -93c1 -5 2 -9 2 -10c2 -10 -2 -16 -12 -18l-56 -9c-15 -3 -21 -1 -32 14l-86 140c-5 8 -10 15 -14 23c-8 13 -5 21 10 24l5 2c12 0 24 1 40 2z" />
    <glyph glyph-name="a" unicode="a" horiz-adv-x="605" 
d="M571 73l4 -38c0 -11 -2 -13 -13 -16c-9 -3 -18 -2 -27 -3c-11 -1 -19 -2 -30 -2c-12 0 -23 1 -34 1s-21 0 -32 -1c-15 -2 -24 5 -26 20l-13 74l-9 63c-4 21 -6 22 -27 29c-23 5 -45 8 -66 8c-15 0 -27 0 -42 1c-13 1 -17 -1 -18 -14c-3 -27 -8 -50 -9 -77
c-1 -20 -4 -40 -7 -60c-1 -9 -2 -18 -5 -27c-3 -12 -10 -16 -22 -17l-84 -8c-21 -3 -42 -2 -65 -5c-3 0 -6 0 -8 1c-10 1 -14 7 -12 17c3 12 4 25 7 38l22 111c5 27 11 52 16 77l21 100c3 12 4 25 5 37c8 48 17 95 29 142l23 96c1 7 2 10 5 17c4 15 14 23 30 24
c35 4 67 8 102 5c21 -3 43 -1 64 -4l60 -8l70 -8c24 -3 23 -8 26 -27l8 -66c1 -16 2 -33 5 -49c3 -32 5 -64 10 -95c4 -27 10 -53 14 -80l8 -51c3 -16 5 -33 6 -49c3 -20 3 -40 6 -60c3 -24 4 -47 7 -71c0 -9 0 -17 1 -25zM373 362v1c0 1 -1 1 -1 2c-3 24 -5 48 -9 72
c-3 15 -6 31 -10 46c-2 9 -7 13 -15 14c-9 1 -18 2 -27 2c-8 0 -13 -4 -16 -12s-3 -17 -6 -26c-7 -28 -11 -57 -16 -86c-3 -7 -5 -14 -6 -21c-2 -11 3 -16 14 -15c3 0 5 0 6 1l71 4c10 1 15 7 15 18z" />
    <glyph glyph-name="b" unicode="b" horiz-adv-x="503" 
d="M51 602h-1l3 55c0 2 1 5 2 9c2 13 9 21 22 24c19 4 36 8 55 11c20 4 40 5 60 8c3 0 3 1 6 0l59 -3c5 -1 10 0 15 -3c40 -11 76 -26 111 -49c19 -13 34 -29 53 -44l9 -13l22 -44c8 -19 9 -38 6 -58c-4 -35 -20 -64 -43 -89c-11 -11 -22 -18 -33 -27c-15 -11 -14 -13 1 -21
c35 -16 53 -44 65 -79l7 -19c7 -17 8 -35 4 -54c-4 -30 -13 -58 -28 -83c-5 -7 -9 -14 -14 -19l-36 -36c-3 -3 -8 -5 -12 -8c-9 -5 -19 -7 -27 -14c-20 -15 -44 -19 -67 -26l-53 -13c-7 -3 -14 -3 -21 -4c-27 -1 -54 -1 -81 -4c-17 -1 -35 -4 -52 -5c-11 -1 -19 0 -30 0
c-8 0 -15 7 -15 16c0 8 0 17 1 26c4 15 3 31 2 46l-4 61v52c0 15 -1 26 -1 41c-1 35 2 66 5 101c3 19 2 35 3 52l3 66c1 13 2 26 2 41c1 35 2 71 2 106zM220 226v-12l2 -46c0 -13 4 -16 17 -15c17 3 34 8 52 17c7 3 12 7 17 12c15 15 27 35 15 62c-9 20 -22 34 -45 39
c-16 3 -31 0 -47 -3c-7 -1 -10 -5 -10 -14c-1 -13 -1 -25 -1 -40zM317 486c0 20 -8 33 -25 39c-20 8 -39 13 -62 16c-20 3 -25 -3 -22 -23c3 -11 3 -20 4 -31c3 -20 5 -41 9 -62c1 -11 7 -15 18 -13s21 5 31 9c29 11 46 30 47 65z" />
    <glyph glyph-name="c" unicode="c" horiz-adv-x="453" 
d="M23 303c0 43 4 85 12 126c3 19 7 36 12 53c3 11 8 21 13 32l36 63c16 27 39 44 64 60c23 15 47 26 71 37c23 11 45 14 68 18c9 1 18 1 27 0c16 -1 32 -1 48 -4c8 -1 15 -1 23 -4c9 -3 14 -9 14 -20c1 -35 -3 -67 -6 -100l-3 -10c-3 -10 -9 -16 -20 -18l-72 -11l-25 -3
c-40 -6 -70 -28 -90 -65c-12 -21 -17 -43 -18 -67c0 -39 7 -74 20 -107l22 -50c11 -19 22 -36 43 -44c11 -5 23 -8 36 -9c16 -3 33 -3 48 -6s28 -3 43 -2s21 -3 22 -18c3 -19 4 -37 5 -56c3 -23 2 -46 3 -69c0 -12 -6 -19 -17 -21c-13 -4 -26 -5 -41 -8
c-21 -3 -43 -4 -64 -7c-19 -3 -36 0 -55 4c-30 6 -60 17 -89 34c-37 21 -67 48 -88 87c-15 26 -25 53 -30 82l-9 42c-3 20 -2 41 -3 61z" />
    <glyph glyph-name="d" unicode="d" horiz-adv-x="557" 
d="M232 708c33 3 71 -6 108 -17c15 -4 31 -8 44 -16c23 -12 43 -28 60 -47c16 -19 28 -39 39 -59c13 -23 26 -46 34 -71c13 -39 18 -80 16 -123c-1 -17 -3 -34 -6 -51c-4 -15 -5 -29 -8 -44c-3 -23 -10 -44 -18 -65c-9 -21 -17 -43 -30 -63c-1 -1 -3 -3 -4 -6
c-16 -37 -45 -63 -74 -90c-23 -23 -51 -36 -79 -51c-19 -11 -39 -15 -62 -20c-27 -7 -54 -11 -82 -14c-13 0 -25 -1 -37 -1c-13 -1 -25 -1 -37 -1s-18 3 -22 15c-3 7 -3 13 -6 20c-7 27 -10 51 -13 78c-4 35 -9 70 -14 105c-3 19 -3 39 -4 58c-1 27 -2 55 -2 83
c0 20 2 40 3 60v6c-1 31 1 61 4 92c3 33 4 66 7 98c3 25 3 49 6 74c1 13 7 21 20 25c11 4 20 7 31 10c39 11 79 18 126 15zM191 457v-57h-1c3 -36 4 -73 4 -110c1 -29 4 -57 7 -85l3 -18c2 -8 7 -12 15 -11c20 3 39 4 58 11l28 11c17 7 32 15 44 30c27 33 43 71 48 112
c1 17 0 31 -5 42c-3 8 -4 16 -7 24c-9 29 -22 55 -43 76c-5 4 -9 9 -16 12c-15 7 -27 14 -42 19c-24 9 -47 13 -74 9c-17 -4 -22 -9 -21 -28v-2c0 -11 1 -23 2 -35z" />
    <glyph glyph-name="e" unicode="e" horiz-adv-x="487" 
d="M406 602l3 -53v-6c-1 -9 -3 -13 -14 -16c-7 -1 -11 -1 -16 -1c-31 -4 -61 -4 -92 -5c-17 -1 -34 -2 -51 -5c-15 -3 -16 -6 -16 -21c-1 -13 -1 -26 0 -39c0 -11 -1 -22 2 -33c1 -8 5 -12 13 -13c7 -1 11 0 18 0h47c15 0 29 0 44 -1c27 -1 52 -3 77 -6c12 -1 19 -8 20 -21
l6 -78c1 -7 2 -15 2 -22c0 -9 -4 -15 -13 -17c-19 -3 -35 -8 -54 -7c-7 0 -11 1 -18 1c-37 1 -74 -5 -110 -10l-25 -3c-9 -3 -12 -4 -12 -13c-1 -12 -2 -24 -2 -35c-1 -8 -1 -15 -1 -23c0 -11 6 -14 17 -15c15 -1 29 -1 44 2c21 4 41 4 64 4c31 -1 60 0 91 -1c5 0 9 0 12 -1
c8 -2 12 -7 13 -15v-13c1 -20 3 -39 3 -58c1 -12 0 -23 -1 -35v-12c-1 -9 -6 -15 -14 -16c-17 -3 -33 -4 -50 -5c-12 -1 -25 0 -37 -1l-33 -3c-23 -3 -45 -3 -68 -3c-40 3 -80 1 -120 -8c-19 -4 -36 -7 -55 -4c-9 1 -19 0 -28 -1c-12 -1 -20 6 -19 18c1 13 2 25 5 38v7v78
c1 33 2 66 5 101c1 29 3 57 6 86l9 118c3 37 7 74 7 111c1 27 4 51 7 76l3 27c1 13 8 23 24 24h15c12 1 23 1 34 1s23 -1 34 -1c20 1 40 3 61 3c15 1 30 0 45 -1c23 -3 45 -6 68 -5c11 1 19 0 30 -1c11 0 17 -5 19 -15c3 -11 2 -19 2 -30c0 -7 0 -15 -1 -23z" />
    <glyph glyph-name="f" unicode="f" horiz-adv-x="445" 
d="M433 635v-54v-57c-1 -11 -6 -17 -17 -17c-24 -1 -49 -1 -74 2c-7 1 -14 1 -21 1h-90c-7 0 -11 -1 -18 -2s-11 -5 -11 -12c0 -24 1 -47 2 -71c0 -11 0 -19 1 -30c0 -3 0 -6 1 -8c2 -7 6 -9 12 -7c28 7 57 4 85 7l41 2c5 0 9 0 11 -1c11 -1 16 -7 17 -16c3 -7 2 -13 3 -20
c3 -27 4 -54 5 -81c1 -7 1 -14 0 -21c0 -9 -5 -15 -15 -17c-35 -7 -68 -14 -103 -13h-39c-4 0 -9 -1 -16 -2s-11 -5 -11 -13v-78c0 -11 0 -23 1 -34l3 -57c1 -15 -3 -20 -18 -20c-13 0 -26 1 -39 2c-23 3 -44 2 -67 -1c-7 -1 -16 0 -25 2c-7 1 -12 6 -13 17c0 8 1 16 1 25v8
c0 17 -1 33 -1 50c0 19 1 36 2 55c0 15 1 30 1 45c1 35 1 67 1 102c0 20 0 40 -1 60c0 19 -1 35 -1 54c0 20 2 40 2 61c0 23 -1 43 -2 66c0 12 0 24 -1 36c0 15 -1 27 -1 42c0 11 5 16 16 16c24 3 47 4 70 4c16 1 32 -1 48 0c15 0 31 -1 47 2c12 0 24 2 36 -1
c8 -1 16 -1 24 -1c25 0 49 2 76 -3c19 -3 36 -4 52 -2h5c16 0 21 -5 21 -20z" />
    <glyph glyph-name="g" unicode="g" horiz-adv-x="554" 
d="M520 334h-1l3 -89c0 -21 0 -42 -1 -62c-1 -19 -2 -34 -5 -53v-8c-1 -27 -1 -51 -1 -78c0 -15 -4 -20 -19 -25l-29 -7c-12 -3 -25 -3 -37 -6c-20 -3 -40 -4 -60 -3c-25 0 -50 -1 -75 2c-32 3 -63 8 -94 21l-79 35c-9 4 -18 10 -26 19s-17 16 -25 25c-7 5 -11 11 -14 18
c-19 39 -33 81 -30 125c1 43 4 84 13 125c3 12 3 24 6 35c4 24 14 45 23 66c9 19 16 37 27 54c8 15 17 26 26 38c39 47 88 73 147 88c21 5 43 6 66 3c20 -3 41 -1 61 2c15 1 29 1 44 -2c11 -3 17 -10 17 -23c-1 -21 -1 -42 -1 -63c0 -12 1 -24 1 -36c0 -3 -1 -7 -2 -12
c-1 -6 -5 -10 -11 -11c-5 -1 -11 -1 -16 -1c-23 -1 -46 -1 -69 -8c-32 -9 -59 -26 -86 -47c-24 -20 -39 -46 -50 -75c-7 -15 -13 -31 -16 -48c-4 -20 -7 -40 -10 -61c-2 -29 7 -53 26 -72c13 -12 29 -19 48 -23c24 -4 48 -5 72 -5c9 1 14 6 14 16v40v36c0 8 -4 12 -11 13
c-9 0 -18 -1 -29 -2c-9 0 -17 -2 -25 -2c-9 -1 -15 4 -17 14c-1 7 -2 12 -2 15c1 11 2 23 2 35l2 30c1 16 2 31 5 46c1 11 8 17 21 16l87 -4c9 0 19 1 28 1l44 3c11 1 22 1 33 1c13 0 20 -6 20 -19c3 -27 2 -52 5 -77z" />
    <glyph glyph-name="h" unicode="h" horiz-adv-x="599" 
d="M391 558c1 27 0 52 0 77v7c1 12 6 18 17 19h60c16 0 32 -1 48 -1h15c10 0 16 -4 19 -13c1 -5 2 -10 2 -13c3 -25 4 -50 7 -75c1 -24 4 -48 5 -72c0 -23 -1 -45 -1 -68c-1 -16 -3 -32 -3 -48c-1 -72 -2 -141 -2 -213c0 -31 2 -61 3 -92v-18c-2 -10 -8 -15 -18 -14
c-19 3 -36 -2 -55 -6l-28 -8c-17 -4 -34 -4 -51 -4c-9 0 -14 5 -16 14c-3 9 -4 18 -5 27l-3 45l-3 43c0 12 2 24 3 36c1 16 4 32 5 48c1 13 0 28 -1 41c0 9 -5 14 -14 14c-4 0 -9 -1 -14 -2c-17 -3 -34 -3 -53 -1c-7 1 -12 0 -19 0c-19 -1 -38 0 -58 0c-3 0 -5 0 -7 -1
c-10 0 -15 -5 -16 -16c-1 -8 -1 -16 -1 -24c-3 -20 -3 -41 -4 -61v-6c-1 -27 -1 -52 -1 -79c0 -16 -1 -32 -2 -48c-1 -10 -7 -15 -16 -15c-13 0 -25 -1 -38 2l-80 9l-9 2c-15 3 -19 6 -20 21c0 15 -1 30 -1 45c0 27 0 52 -1 79c0 33 1 65 5 98l2 52c3 36 4 71 5 107
c1 17 3 34 3 53v92c0 9 -3 17 -2 25c0 20 3 39 10 58c5 15 11 19 27 19c12 0 24 -2 36 -2l50 -2c9 0 18 -1 27 -2c8 -2 13 -8 15 -17l8 -69c0 -3 1 -4 1 -7c0 -31 1 -61 1 -92l-3 -57c0 -12 5 -18 16 -18c19 0 37 0 56 -1c20 -1 40 -4 60 -7c7 -1 15 -2 23 -2
c9 0 13 5 14 14c1 4 0 8 0 13c1 39 2 75 2 114z" />
    <glyph glyph-name="i" unicode="i" 
d="M37 118c0 16 1 31 1 46c0 16 -2 31 -2 47c-1 12 0 24 0 36v15c1 17 4 34 1 51c-1 16 1 31 1 46c1 39 0 79 1 118l4 125c1 12 1 25 1 37c1 11 6 17 15 20c7 1 12 2 15 2c21 1 44 -1 69 -5c15 -3 30 -1 45 -4h6c20 0 27 -7 28 -27c0 -48 -4 -96 -11 -144
c-7 -31 -8 -63 -4 -95c1 -7 0 -14 1 -21c1 -27 4 -54 5 -81c1 -24 0 -49 0 -74v-5c-1 -36 -2 -71 -2 -107c0 -19 0 -36 1 -53c0 -24 -6 -30 -29 -29l-60 2c-19 0 -38 -1 -58 -1c-2 -1 -5 -1 -8 0c-10 1 -15 7 -16 16l-3 35c0 17 -1 34 -1 50z" />
    <glyph glyph-name="j" unicode="j" horiz-adv-x="501" 
d="M201 517v2c-12 0 -24 -1 -35 0c-12 0 -18 6 -18 18l-3 82c0 9 -2 18 -3 29v11c2 11 7 16 16 16c11 0 21 1 32 1c12 0 24 -2 36 -3c5 0 11 1 16 1l58 3c11 0 22 1 34 1c13 0 27 -2 40 -3c27 -3 51 -4 78 -7c13 -1 19 -8 19 -20c0 -11 1 -19 1 -28c0 -8 -1 -16 -1 -23
c0 -19 1 -35 2 -54c0 -4 0 -7 -1 -9c-1 -7 -5 -12 -13 -14h-13c-7 -1 -11 -4 -12 -10c-1 -3 -1 -7 -1 -12l3 -95c1 -19 2 -37 2 -56c3 -29 4 -58 4 -87c-1 -44 -3 -88 -14 -131c-7 -24 -14 -47 -29 -68c-11 -15 -24 -27 -39 -39c-12 -9 -26 -18 -41 -27
c-21 -11 -41 -13 -64 -10c-21 1 -43 4 -64 8c-13 2 -24 5 -34 10c-20 8 -38 17 -55 28c-19 11 -28 27 -40 43c-16 23 -25 47 -30 74c-5 22 -9 45 -12 70c-3 21 -2 41 -2 61c0 12 6 18 18 18c11 0 22 -1 33 -2c7 0 11 -1 18 -1c24 1 48 0 72 -3l10 -2c9 -3 14 -8 14 -17
c0 -20 3 -41 8 -62c3 -17 9 -33 22 -45c17 -16 42 -14 57 3c16 20 24 43 28 68c4 23 2 46 -1 69l-4 47c-3 35 -2 68 -5 103c0 8 0 15 -1 22c0 9 0 18 -1 27c-1 8 -5 12 -14 12c-24 1 -48 1 -71 1z" />
    <glyph glyph-name="k" unicode="k" horiz-adv-x="622" 
d="M216 416c3 3 7 6 10 10c27 34 56 69 86 104l45 54c19 24 36 51 51 80c5 9 11 14 19 14s15 -2 22 -2c33 -3 65 -8 98 -15l27 -3c17 -2 21 -10 10 -24c-20 -27 -37 -54 -53 -82c-13 -21 -29 -40 -40 -63c-21 -37 -47 -70 -71 -105c-8 -12 -18 -21 -29 -32
c-9 -9 -9 -17 0 -25c11 -9 20 -19 31 -28c25 -23 48 -46 67 -71c24 -32 49 -63 73 -94l30 -42c3 -3 3 -5 6 -8c7 -12 4 -19 -9 -21c-6 -2 -12 -3 -18 -3c-35 -3 -69 -3 -104 -6l-18 -2c-8 0 -15 4 -21 11c-19 23 -36 46 -55 69l-33 32c-19 17 -37 32 -56 51s-36 38 -56 55
c-4 3 -5 7 -12 4c-1 -4 -2 -7 -2 -9c0 -17 1 -34 2 -50c0 -17 2 -33 3 -50c0 -17 2 -33 1 -52c0 -27 -1 -54 -1 -82c-1 -9 -6 -14 -15 -16c-9 -1 -18 -2 -27 -2l-88 -8c-11 -1 -22 -1 -34 -1c-9 0 -14 5 -16 14c-1 3 -1 6 -1 11c0 27 0 54 -1 81c0 27 -1 51 -1 78
c0 17 2 35 1 52c-1 31 2 60 5 91c1 17 2 35 2 52l2 101c1 31 1 62 4 93c3 35 6 68 17 103c3 13 7 17 22 17h30c25 1 49 0 73 -1c7 0 12 0 15 -1c9 -2 14 -7 15 -16c1 -8 0 -15 0 -23c0 -12 -1 -25 -1 -37c-3 -20 -2 -41 -5 -62v-8l-4 -74l-2 -46c0 -5 -1 -9 6 -13z" />
    <glyph glyph-name="l" unicode="l" horiz-adv-x="422" 
d="M283 19c-21 0 -41 -1 -62 -2c-4 0 -8 1 -12 1c-23 3 -45 6 -68 3c-15 -1 -31 1 -47 1h-22c-3 -1 -6 -1 -11 -1c-8 1 -13 5 -15 13l-2 12v46l-4 44c-1 23 -2 46 -2 69c-1 23 -2 44 -2 67c0 32 1 63 2 95v28c3 21 3 41 4 64l2 39c0 23 0 43 1 66s2 42 5 65c0 3 1 3 1 6
c3 14 11 22 24 24c8 3 15 4 23 5c15 3 28 4 43 7c7 1 15 0 22 0l52 -4c15 -1 19 -5 18 -20c-4 -40 -9 -80 -12 -120c-3 -17 -2 -34 -3 -53l-3 -71c0 -8 0 -15 -1 -22l-3 -62c-1 -27 -4 -51 -1 -78c1 -9 0 -19 0 -30c0 -5 0 -8 1 -10c1 -6 4 -9 9 -10c1 -1 4 -1 7 -1
c35 -1 67 -8 100 -13c17 -3 35 -3 52 -6c11 -1 18 -5 19 -16c4 -23 7 -45 10 -68c3 -12 2 -25 2 -37c0 -13 -6 -21 -18 -23c-16 -3 -32 -5 -49 -6c-20 -3 -40 -2 -60 -2z" />
    <glyph glyph-name="m" unicode="m" horiz-adv-x="716" 
d="M106 -1h-15c-15 0 -27 -1 -42 2c-9 1 -14 7 -14 18c3 32 3 63 4 94c1 9 0 18 1 27c0 15 1 31 2 47c0 7 1 13 1 20c0 15 2 30 2 45c-1 32 1 63 4 95c1 16 2 33 2 49c3 36 3 72 4 107c1 19 2 35 2 52c3 23 2 44 5 67c0 7 1 13 4 20c2 11 8 16 18 17c9 3 19 3 28 4l69 9
c9 1 18 0 27 -1c5 -1 9 -4 14 -10c7 -11 14 -19 21 -28c27 -37 54 -72 85 -105c4 -5 8 -9 11 -14c7 -7 13 -7 20 -1c3 3 5 5 6 7c11 15 22 28 33 44c15 21 27 42 42 65c0 1 1 2 1 3c9 16 23 24 40 23c20 -1 38 5 57 8c7 1 14 3 21 2c29 -4 57 -2 85 3c1 0 2 1 3 1
c15 1 24 -3 24 -20c0 -3 1 -3 1 -4c1 -23 2 -46 2 -69c0 -27 2 -50 5 -77c1 -15 0 -29 -1 -44v-9l-4 -98l-3 -58l-4 -48l-2 -57c0 -13 1 -26 1 -38c1 -32 0 -64 5 -96c1 -11 0 -21 0 -32c0 -10 -5 -16 -15 -18c-16 -3 -32 -8 -49 -7c-6 1 -12 0 -19 -2c-15 -3 -32 -3 -49 -1
c-11 3 -21 3 -32 4s-20 7 -20 22c1 19 0 36 1 55c0 23 2 43 3 66v42c1 29 2 59 2 88c1 21 2 41 2 64c1 15 0 28 0 41c1 11 2 21 2 32c0 7 -1 14 -3 21c0 3 -2 5 -5 7c-3 1 -6 0 -7 -4l-23 -31l-63 -95l-36 -47c-3 -3 -2 -4 -5 -5c-6 -5 -12 -4 -17 1c-3 3 -5 5 -6 7l-56 81
c-5 9 -12 17 -17 26c-9 13 -18 24 -28 33l-19 20c-3 3 -5 4 -7 3c-3 0 -4 -3 -4 -8c3 -21 2 -43 5 -64c3 -19 5 -34 2 -53v-3c0 -20 -1 -40 -1 -60c0 -49 -1 -98 -2 -147c0 -19 -1 -39 -2 -58c0 -3 -1 -8 -2 -13c-2 -9 -7 -13 -15 -14z" />
    <glyph glyph-name="n" unicode="n" horiz-adv-x="654" 
d="M216 359c-7 -8 -4 -16 -5 -24c-3 -31 -2 -61 -5 -92l-4 -37l-4 -55c-1 -27 -1 -50 -1 -77c0 -16 0 -31 -1 -47c0 -15 -8 -23 -23 -24h-16l-74 -4c-11 0 -21 -1 -32 -1s-16 5 -16 16c-1 11 -1 23 0 34c3 35 9 70 10 105c0 19 1 35 1 54l4 56c1 17 2 34 2 51
c3 31 3 59 4 90c1 5 0 10 0 15l2 52v36c3 32 3 63 6 95c1 13 4 26 7 39c2 9 8 14 19 14c11 1 23 0 34 1c12 0 25 1 37 2c13 1 25 3 38 2c8 -1 16 -1 23 -1c11 0 19 -5 24 -16c3 -8 5 -16 9 -23c9 -17 18 -35 29 -51c14 -22 26 -44 35 -65c7 -15 14 -28 22 -38
c25 -32 46 -64 69 -99c3 -5 7 -10 11 -15c2 -3 6 -7 12 -13c3 3 4 6 5 9c1 5 2 9 2 12v58c1 32 0 65 3 98c1 19 -1 38 -1 57s1 34 1 53c1 4 1 9 1 13c0 11 5 17 15 18c15 1 30 1 45 1c9 0 17 -1 28 -1c15 -1 29 -3 44 -3c11 -1 19 -6 23 -17c7 -13 6 -27 6 -42
c0 -16 0 -32 1 -49l4 -69c3 -24 3 -49 4 -73c1 -27 3 -54 2 -82c-1 -19 -1 -37 2 -56v-9l-2 -34c-1 -19 -3 -38 -3 -57c-1 -17 0 -34 -1 -50c0 -13 -2 -25 -3 -37c-3 -15 -4 -28 -7 -41c-1 -9 -6 -15 -15 -19c-23 -8 -48 -14 -72 -18c-7 -1 -14 0 -21 0l-41 2l-21 2
c-9 1 -16 6 -20 15l-14 31l-31 55c-7 12 -10 23 -17 35l-14 34c-5 11 -9 19 -16 30l-43 67c-16 27 -33 50 -49 77c-5 8 -5 7 -12 10z" />
    <glyph glyph-name="o" unicode="o" horiz-adv-x="639" 
d="M29 300h-1c3 32 2 65 5 97c5 39 14 75 27 110c11 28 22 54 38 78c21 33 48 55 82 68c23 9 46 14 67 17c16 3 32 1 48 1c13 0 25 -1 40 -1c9 -1 18 -1 29 -4c27 -7 51 -15 76 -26c32 -15 61 -35 86 -60c16 -16 27 -36 38 -56c19 -36 30 -74 39 -113c7 -32 10 -63 8 -92
c-1 -16 -1 -31 -1 -46c1 -20 -3 -39 -7 -58c-8 -32 -23 -60 -42 -87c-4 -7 -8 -12 -12 -17l-22 -24c-21 -23 -47 -40 -71 -59c-27 -20 -53 -36 -88 -40l-65 -9c-47 -3 -90 5 -127 36c-21 17 -43 32 -63 51c-27 24 -43 54 -58 87c-15 35 -23 70 -26 107c-1 13 0 25 0 40z
M446 338c-1 13 0 27 -3 40l-8 39c-13 49 -44 80 -91 94c-7 1 -12 2 -19 1c-11 0 -21 -1 -32 -3c-8 -3 -16 -4 -24 -7c-26 -13 -45 -31 -58 -56c-15 -31 -29 -64 -34 -99c-1 -9 -2 -17 -1 -26c0 -19 4 -37 11 -54c10 -35 31 -62 62 -80c23 -13 44 -23 71 -18c19 3 36 6 51 18
c27 19 47 44 61 75c11 25 13 49 14 76z" />
    <glyph glyph-name="p" unicode="p" horiz-adv-x="546" 
d="M187 651c23 0 52 -1 83 -2c23 -1 45 -3 67 -6c37 -5 72 -14 107 -29c15 -7 25 -19 36 -30c21 -21 32 -47 39 -74c5 -19 9 -36 11 -51c3 -11 1 -22 1 -33c0 -12 -1 -24 -2 -36c-1 -28 -7 -54 -18 -81c-19 -52 -55 -89 -100 -117c-16 -11 -31 -20 -50 -28
c-27 -12 -55 -19 -83 -26l-14 -2c-13 0 -27 0 -40 -1c-9 0 -14 -5 -15 -14v-29c3 -19 3 -39 6 -58c1 -12 0 -24 0 -36c0 -11 -6 -17 -18 -17c-15 0 -29 1 -44 2c-19 1 -36 1 -55 4c-15 3 -29 4 -44 7c-12 2 -17 9 -16 20c0 28 1 55 1 83c1 11 0 22 0 33c0 21 1 42 0 63
c0 43 -2 84 -2 127c0 47 1 93 2 140c1 20 2 39 2 58c3 29 3 57 4 86c1 1 1 2 1 3c3 20 5 23 25 27c7 3 15 3 22 6c28 11 57 12 94 11zM211 401h-2l2 -51l4 -56c1 -9 6 -13 14 -12c7 0 12 1 19 1c28 1 53 6 76 23l22 15c14 11 24 22 29 35c9 21 12 42 10 65c0 6 -2 12 -5 19
c-11 25 -29 44 -53 58c-11 7 -22 10 -34 11l-29 3c-17 3 -32 3 -47 -1c-8 -1 -12 -5 -12 -14s0 -17 1 -26c1 -23 2 -47 5 -70z" />
    <glyph glyph-name="q" unicode="q" horiz-adv-x="681" 
d="M332 672h36c19 1 37 1 57 -3c33 -5 62 -18 89 -40c15 -12 27 -26 40 -38c32 -31 53 -66 70 -106c9 -23 16 -44 20 -68c3 -16 3 -33 6 -50c5 -32 2 -63 -5 -94c-3 -15 -3 -28 -7 -41c-15 -40 -31 -78 -56 -113c-15 -21 -31 -42 -51 -59c-4 -4 -8 -8 -13 -11l-46 -25
c-14 -6 -15 -14 -3 -23c8 -6 17 -9 28 -9l55 -4c9 -1 14 -7 14 -16c4 -39 -1 -75 -10 -112c-1 -4 -2 -7 -2 -8c-3 -9 -10 -15 -19 -17l-45 -8c-1 0 -2 -1 -3 -1c-28 3 -56 1 -83 14c-17 9 -30 22 -41 37c-21 33 -34 68 -40 104c0 1 -1 2 -1 5c-3 12 -6 15 -18 16
c-15 3 -30 4 -45 7c-21 4 -40 13 -59 24c-25 13 -47 30 -66 49c-21 20 -40 40 -55 67c-7 13 -13 24 -18 39c-7 16 -14 31 -21 44c-10 18 -16 38 -18 59c-3 24 -5 48 -2 72l8 54c5 35 19 64 35 93c13 24 29 48 49 67c27 27 55 49 90 64c11 4 24 7 36 11l56 16c13 3 25 3 38 4
zM502 338c-3 15 -2 31 -5 47c-4 29 -15 57 -30 82c-15 27 -40 38 -67 47c-13 4 -27 6 -40 9h-8c-24 0 -46 -5 -65 -16c-17 -8 -34 -18 -45 -34c-15 -20 -27 -40 -40 -60c-5 -9 -8 -18 -11 -29c-5 -12 0 -17 13 -15c3 0 8 1 15 2c43 8 84 -1 122 -27l20 -16
c9 -6 16 -14 21 -23l8 -12c22 -30 36 -63 42 -100c1 -4 1 -9 4 -13c2 -6 6 -7 12 -4c3 1 5 3 7 5c9 9 17 19 22 31c17 40 22 82 25 126zM240 248h-12c-11 -2 -14 -7 -7 -16c7 -11 14 -20 25 -29l34 -26l18 -9c11 -5 16 -2 15 11v3c-5 21 -15 38 -28 51c-11 11 -26 16 -45 15
z" />
    <glyph glyph-name="r" unicode="r" horiz-adv-x="622" 
d="M209 188v-36c0 -19 2 -41 2 -65c0 -15 -1 -31 -1 -47c0 -7 0 -11 -1 -18c0 -11 -6 -18 -17 -19c-5 -1 -10 0 -15 0c-11 -1 -22 0 -33 -1c-9 0 -18 -1 -27 -1c-17 -1 -35 -2 -52 -2c-16 0 -21 4 -22 21c-3 27 -3 52 -4 79c-1 13 -1 27 -1 40c0 31 1 60 4 89
c1 12 0 23 0 35c0 8 -1 16 -2 24c-3 52 -4 104 -1 155v9l2 112c0 19 1 36 2 55c0 5 1 9 2 14c1 7 5 13 13 16c15 7 31 11 48 13l92 8c8 0 17 -1 25 -1c15 -1 27 0 40 -1c35 -1 66 -2 101 -7c23 -3 45 -6 68 -13c11 -3 20 -7 28 -14c26 -22 45 -48 57 -79
c12 -33 21 -68 18 -104c-4 -64 -30 -118 -73 -165c-13 -15 -31 -27 -53 -34c-17 -7 -17 -11 -5 -23l31 -33c13 -13 27 -26 42 -38c19 -19 40 -35 59 -54s36 -41 55 -61l3 -4c5 -9 4 -15 -5 -19l-28 -8c-20 -4 -40 -7 -60 -10l-61 -9c-4 0 -8 -1 -12 -1c-7 -1 -14 3 -19 10
c-23 27 -42 52 -65 79c-17 20 -35 41 -54 61c-11 11 -22 19 -33 30l-28 25c-5 4 -8 10 -15 7s-5 -8 -5 -15zM264 515c-11 -1 -23 -3 -36 -6c-11 -3 -16 -10 -15 -21v-28v-134c0 -13 4 -16 17 -15c3 0 2 1 5 1c32 6 62 20 89 42c11 8 20 18 27 33c13 29 13 58 0 86
c-10 21 -26 34 -47 38c-12 3 -25 3 -40 4z" />
    <glyph glyph-name="s" unicode="s" horiz-adv-x="526" 
d="M232 706c12 -3 25 -4 38 -5c7 -1 12 -2 17 -2c21 0 41 0 61 1c13 0 27 0 40 -1c9 -1 18 -3 27 -6c11 -3 17 -10 17 -22l-4 -50l-6 -48c0 -3 -1 -8 -2 -15c-3 -10 -10 -15 -21 -14c-23 3 -45 4 -68 5c-17 0 -33 -1 -50 -4c-9 0 -19 1 -28 -2c-15 -3 -28 -7 -39 -18
c-7 -7 -13 -13 -16 -21c-7 -17 0 -31 11 -43c8 -11 19 -15 30 -20c23 -11 48 -17 73 -22c24 -5 49 -12 73 -17c13 -3 26 -9 37 -17c11 -11 23 -19 34 -30c19 -20 29 -45 36 -72l4 -23c7 -21 6 -42 3 -63c-1 -17 -2 -34 -7 -50c-9 -32 -23 -62 -47 -86
c-28 -27 -60 -47 -99 -55c-32 -7 -65 -10 -97 -14c-19 -3 -34 1 -51 2l-28 2c-32 3 -62 12 -93 23c-1 1 -4 2 -8 3c-10 5 -15 13 -14 24l3 18c4 37 11 72 22 107c1 4 3 7 4 10c4 8 10 11 19 8c7 -2 14 -5 21 -9c25 -15 52 -18 80 -19c13 -1 25 -3 37 -6c23 -7 46 -4 70 7
c9 4 15 11 19 20s3 17 -2 25c-7 9 -13 14 -22 19c-24 12 -48 18 -75 25c-45 11 -89 26 -126 57c-31 25 -55 55 -66 95c-7 31 -12 59 -9 90c1 27 5 53 14 80c8 27 21 50 37 73c24 29 53 50 93 53c17 1 35 3 52 6c2 0 4 0 6 1z" />
    <glyph glyph-name="t" unicode="t" horiz-adv-x="491" 
d="M349 366v-77c0 -27 0 -52 1 -79c0 -24 -1 -49 2 -73c3 -25 4 -50 3 -75c0 -12 -1 -23 -2 -34s-7 -17 -18 -18c-19 -3 -37 -4 -56 -7c-31 -4 -60 3 -91 7c-11 1 -16 7 -16 19c1 21 2 42 2 63c1 11 1 19 1 30l2 111c0 15 3 27 3 40c0 21 -2 41 -3 62c0 8 0 16 1 24v9v33
c0 23 -1 46 -2 69c0 4 0 7 -1 8c-2 7 -6 10 -12 10c-11 -1 -21 0 -32 -3c-23 -5 -47 -9 -72 -10c-3 0 -4 -1 -7 -1c-7 0 -14 1 -17 12c-5 11 -7 22 -7 33c0 25 -1 50 -2 74c-1 12 -3 23 -6 34c0 1 -1 1 -1 4c-3 19 5 24 21 25c19 0 39 1 58 2c35 0 67 -2 102 1
c24 1 49 4 73 7c17 1 33 1 50 1c13 0 26 1 41 1l54 -3c10 -1 20 -1 30 0c13 0 19 -8 20 -19c0 -36 1 -72 1 -108c0 -5 0 -11 -1 -16c-1 -11 -7 -17 -17 -18c-9 -3 -17 -4 -26 -4l-56 -2c-7 0 -12 1 -19 0s-11 -5 -11 -13v-16c2 -31 5 -63 9 -94c1 -2 1 -5 1 -9z" />
    <glyph glyph-name="u" unicode="u" horiz-adv-x="611" 
d="M32 402h2c0 20 -1 40 0 60c1 19 4 36 5 55c1 16 2 32 2 47c1 19 1 39 1 58c0 11 6 17 17 19c15 3 30 1 45 -2c27 -3 54 -5 81 -1l17 2c3 0 7 -1 11 -1c9 -2 13 -7 13 -16c0 -20 0 -41 -1 -62c-1 -23 -2 -45 -5 -68l-2 -54l-3 -62l-3 -48l-2 -16c0 -27 6 -50 17 -71
c4 -8 7 -17 12 -24c15 -23 41 -28 64 -16c25 13 37 34 45 59c7 21 8 43 11 66l8 59c1 9 2 17 2 28c3 25 3 49 4 74c1 9 0 18 -1 27c-4 27 -4 53 0 80c3 16 2 33 1 49c0 19 1 21 20 22c29 3 59 2 88 -1c23 -3 42 -2 65 -2c7 0 13 1 20 1c13 1 19 -5 18 -18
c-3 -29 -3 -59 -6 -88c-1 -12 1 -24 -2 -36l-13 -97l-9 -74c-3 -27 -5 -54 -10 -81c-4 -23 -11 -46 -22 -66c-13 -27 -25 -52 -40 -77c-17 -29 -37 -54 -62 -74c-19 -15 -40 -24 -63 -31c-7 -1 -12 -3 -17 -4c-10 -3 -21 -4 -32 -4c-16 0 -32 -1 -49 -2c-31 -3 -58 6 -85 21
c-21 12 -40 27 -59 44c-11 11 -20 24 -27 37c-23 39 -36 78 -45 121c-4 17 -3 34 -6 53c-3 39 -2 75 -5 114z" />
    <glyph glyph-name="v" unicode="v" horiz-adv-x="644" 
d="M334 246l5 10l11 43c8 32 16 63 23 95c12 48 24 95 39 142c11 37 19 75 24 114c1 11 7 19 19 22c19 7 38 10 58 10c28 0 56 1 84 3h10c9 -1 14 -7 14 -16c0 -3 -1 -7 -2 -11c-8 -43 -17 -86 -26 -129l-16 -74c-7 -25 -9 -49 -16 -73c-5 -19 -9 -38 -16 -57
c-27 -88 -49 -176 -80 -264c-4 -14 -13 -21 -26 -22l-59 -9c-21 -3 -41 -5 -62 -2c-8 1 -16 0 -24 0c-19 0 -35 1 -54 1c-7 0 -12 4 -15 12c-11 23 -19 47 -26 72c-9 39 -21 74 -36 110c-13 31 -27 62 -38 94l-39 101c-7 16 -14 32 -19 49c-12 39 -23 77 -34 116l-11 41
c-4 17 2 25 19 25l48 2c8 0 16 -1 23 2c19 4 38 2 57 -1c7 -1 15 -3 22 -3c11 -1 17 -6 20 -16l33 -99c9 -27 19 -52 27 -79c7 -19 10 -40 15 -60l23 -88c5 -17 9 -33 16 -50c1 -4 2 -8 9 -11z" />
    <glyph glyph-name="w" unicode="w" horiz-adv-x="945" 
d="M458 358c-3 -5 -3 -9 -4 -12l-12 -40c-11 -32 -18 -63 -22 -95c-1 -11 -2 -18 -5 -29c-11 -47 -23 -93 -39 -138c-4 -11 -10 -18 -23 -21c-23 -3 -46 -7 -70 -6c-17 0 -35 -1 -52 -1c-16 0 -32 2 -48 2c-9 0 -17 -1 -26 -1c-11 -1 -18 4 -22 14c-7 17 -12 33 -15 48
s-8 29 -11 44c-9 43 -19 82 -26 125c-7 35 -9 71 -14 107c-7 39 -12 76 -17 115c-7 47 -15 90 -18 137c-1 9 -2 17 -2 26c-1 12 4 18 17 18l99 -2c11 0 22 -3 33 -4c11 -2 17 -9 19 -20c3 -9 4 -19 5 -28c4 -23 9 -47 12 -70c7 -48 14 -95 25 -142c7 -27 10 -52 14 -79
c1 -3 2 -8 5 -15c1 -3 3 -6 6 -9c5 3 5 8 8 12c7 20 9 41 14 62c5 29 10 57 17 85l21 86c3 7 3 12 6 19c11 31 17 61 24 92c1 8 2 16 5 24c2 9 7 13 15 13c24 3 48 4 72 4c16 0 31 -2 46 -3c8 0 16 -1 24 -1c11 0 18 -4 22 -13c7 -13 12 -24 17 -35c15 -31 26 -62 33 -95
c5 -27 12 -51 20 -78c8 -20 13 -41 20 -62l9 -29l6 -9c7 3 7 8 8 12l15 46c1 3 2 8 5 15c8 19 12 37 16 57l19 90c3 15 4 30 7 45c3 11 4 22 7 33c3 10 10 15 19 16c23 3 45 7 68 8l83 3c15 1 24 -3 23 -22c0 -19 -3 -38 -6 -57c-7 -29 -10 -57 -15 -86
c-3 -21 -4 -43 -8 -64c-3 -18 -7 -37 -14 -56c-8 -27 -18 -51 -27 -78l-26 -80c-7 -16 -13 -33 -17 -50c-7 -23 -11 -47 -16 -71c-7 -27 -14 -52 -17 -79c-2 -11 -9 -19 -21 -23c-22 -7 -45 -8 -68 -4c-7 1 -12 2 -19 2c-19 0 -36 1 -53 1c-11 0 -21 -1 -31 -3
c-23 -3 -28 0 -35 23c-3 12 -8 23 -9 35c-4 28 -11 53 -18 80c-5 15 -5 29 -9 44c-4 23 -10 43 -15 66l-24 84c-1 7 -2 12 -10 17z" />
    <glyph glyph-name="x" unicode="x" horiz-adv-x="699" 
d="M260 682v-1h29c12 1 21 -5 27 -16c7 -11 10 -21 17 -32l56 -92l11 -19c5 -9 10 -10 16 -1c7 9 12 18 19 27l28 40c12 19 20 39 29 59l12 24c4 7 12 10 23 10c17 0 34 1 51 1c4 1 9 0 13 0c16 -2 31 -2 46 0c5 1 11 1 16 1c7 0 10 -3 10 -9c0 -7 -1 -11 -2 -14
c-4 -12 -7 -24 -14 -35l-43 -78c-16 -31 -33 -61 -46 -92c-19 -41 -38 -79 -65 -115l-2 -3c-7 -9 -8 -20 -2 -31l23 -48c12 -23 24 -43 37 -66c7 -11 13 -17 20 -28c13 -19 25 -38 40 -57l17 -25l33 -49c4 -5 8 -11 4 -18s-11 -7 -18 -7c-16 -1 -31 -2 -47 1
c-9 0 -19 -1 -28 -2c-21 -3 -41 -2 -62 -5l-40 -2c-11 -1 -19 5 -25 16l-32 63l-23 52l-19 42c-8 19 -16 35 -25 52c-3 5 -3 10 -10 11c-7 0 -7 -6 -10 -11l-14 -40c-7 -21 -16 -42 -27 -61c-19 -32 -34 -64 -50 -96c-4 -8 -8 -14 -19 -14c-19 0 -35 -2 -54 -2
c-15 0 -29 3 -44 3c-23 1 -43 0 -66 0h-14c-9 1 -13 6 -10 15c1 4 2 7 3 8l28 56c8 16 15 32 22 49c13 27 28 50 47 73c11 12 19 25 30 38c11 15 20 27 29 42l33 51c7 11 11 22 18 34c3 6 3 12 0 18c-11 23 -19 45 -30 68c-8 18 -17 36 -27 54c-16 29 -28 58 -43 89
c-4 11 -10 20 -15 31c-3 5 -4 9 -5 12c-2 11 2 17 12 18c12 3 25 3 37 4c32 3 63 4 95 7z" />
    <glyph glyph-name="y" unicode="y" horiz-adv-x="594" 
d="M194 67h-1l6 66l4 44c3 24 4 48 5 72c1 27 2 50 -2 77c-1 8 -4 17 -10 26c-8 15 -17 27 -26 42l-15 21c-19 20 -30 44 -42 68c-19 32 -34 65 -53 97l-33 57c-4 6 -7 12 -9 19c-3 11 0 17 11 18c11 3 19 2 30 2c23 3 43 4 64 7l45 3c14 0 24 -6 29 -18l14 -27
c7 -15 15 -29 23 -44c17 -28 29 -58 41 -89c3 -8 6 -17 10 -26l6 -12c3 -5 7 -5 10 0l6 9l48 107c16 37 35 73 59 105c5 7 13 11 23 11l32 -2c16 -3 31 -2 47 -5c7 -1 14 -1 21 -1l23 -2c10 -2 14 -8 12 -18c-7 -23 -15 -46 -23 -69c-5 -15 -13 -30 -20 -45l-44 -89
c-7 -12 -11 -25 -18 -37l-27 -50c-9 -16 -17 -32 -25 -48c-4 -7 -5 -16 -4 -27c1 -23 2 -42 2 -65l2 -113c1 -27 3 -51 3 -78c1 -7 -1 -11 -2 -18c-3 -8 -8 -12 -16 -12c-17 1 -33 3 -50 3l-61 2c-4 0 -9 -1 -14 -1c-19 0 -38 -1 -57 -2s-23 3 -24 22v20z" />
    <glyph glyph-name="z" unicode="z" horiz-adv-x="524" 
d="M35 542v35v62c0 12 3 16 15 17c7 1 15 0 22 0l59 2c19 1 38 2 57 2l70 2c19 1 37 2 56 5l33 3c25 1 50 2 75 2c11 0 22 -1 32 -3c10 -1 15 -6 15 -14c1 -19 2 -38 2 -57c1 -15 0 -29 0 -44c1 -12 1 -25 4 -37c3 -19 -3 -36 -19 -50l-31 -30c-17 -16 -31 -34 -42 -54
c-15 -24 -27 -46 -46 -67c-19 -23 -31 -46 -46 -71c-3 -5 -6 -10 -10 -15c-1 -3 -3 -5 -3 -8c-3 -9 0 -14 9 -14h19c23 3 44 -1 65 -4c13 -2 25 -3 36 -2c21 1 41 -1 61 -4c9 -1 14 -6 15 -15l3 -31c3 -16 6 -33 7 -50c1 -19 1 -36 -2 -55c-1 -12 -6 -15 -18 -18
c-15 -1 -30 -1 -45 -4c-30 -2 -61 -6 -92 -12c-31 -5 -63 -11 -94 -14c-32 -4 -64 -5 -96 -2c-21 3 -42 0 -63 -1h-34c-9 0 -13 5 -13 14c0 12 0 24 1 35c0 15 2 27 3 40c3 28 7 56 4 84c-1 10 3 20 10 30c23 32 49 58 74 89c27 31 48 63 68 98c9 16 18 32 29 48
c11 15 19 30 30 46c1 1 2 2 2 3c4 9 2 13 -7 13h-33c-27 -1 -55 -2 -82 -2c-21 0 -42 2 -65 3c-7 0 -10 -1 -17 -1c-12 0 -18 6 -18 17v29z" />
    <glyph glyph-name="braceleft" unicode="{" horiz-adv-x="383" 
d="M268 -32c-43 -1 -79 13 -111 38c-15 12 -25 28 -29 48c-3 12 -3 26 -6 39c-3 24 2 47 3 71c0 7 -1 15 -2 22c-4 19 -10 38 -19 55c-11 21 -29 34 -53 38l-16 3c-8 2 -13 7 -15 15l-3 25c-3 23 -2 44 -5 65c0 8 -1 15 -1 22c-1 4 -1 8 0 12c1 8 5 13 14 14c12 3 24 2 36 6
l24 8c15 5 27 15 34 32c5 14 7 28 5 41c-7 51 4 96 35 135c9 11 18 23 30 32c17 13 36 20 57 22c11 1 22 3 33 2c12 0 23 -2 34 -5c8 -2 12 -7 12 -16c0 -24 -1 -48 -1 -72c-1 -12 0 -25 0 -37c0 -15 -3 -17 -16 -21c-19 -7 -34 -26 -35 -47c-1 -16 0 -32 0 -48
c0 -7 1 -13 1 -20c-1 -13 -7 -25 -19 -34l-28 -20c-1 -1 -3 -3 -6 -4c-5 -5 -5 -9 0 -13c5 -5 12 -9 17 -16c7 -7 13 -14 19 -22c9 -15 9 -31 8 -48c-3 -27 -10 -54 -7 -81c0 -8 1 -16 3 -24c1 -7 5 -14 13 -21c11 -9 24 -15 37 -18c7 0 11 -1 16 -4c8 -3 13 -9 14 -18
c3 -21 4 -42 7 -63l2 -35c0 -8 1 -17 1 -26s-4 -14 -11 -17c-13 -5 -25 -9 -37 -12s-24 -2 -35 -3z" />
    <glyph glyph-name="bar" unicode="|" horiz-adv-x="230" 
d="M203 610h-1c0 -8 1 -16 0 -24l-3 -60c-3 -35 -3 -69 -2 -104c1 -33 2 -66 1 -99c0 -31 -1 -59 -4 -88c0 -19 1 -34 -2 -53c-3 -25 1 -50 1 -75c0 -3 1 -8 2 -15c3 -23 3 -42 6 -65v-12c-1 -10 -7 -15 -16 -15c-13 0 -26 2 -39 3c-8 0 -16 1 -24 0c-15 0 -28 -2 -43 -3
c-9 -1 -18 -2 -27 -2c-14 0 -21 7 -21 21c-1 31 0 59 0 90v56c-1 19 1 34 2 53c3 19 2 37 1 56c0 19 -1 37 -2 56s-1 36 -1 55c-1 20 -1 41 -1 61c0 28 0 55 1 83c0 7 1 10 1 17v99c0 7 1 12 2 19c2 9 7 13 16 14l41 2l90 2c14 0 21 -7 21 -20c1 -17 1 -35 1 -52z" />
    <glyph glyph-name="braceright" unicode="}" horiz-adv-x="385" 
d="M369 364h-1c3 -19 3 -35 4 -54c0 -4 -1 -8 -1 -11c-2 -9 -7 -15 -15 -18c-4 -1 -7 -2 -10 -2c-17 -3 -32 -7 -48 -12c-15 -5 -24 -17 -25 -36c0 -15 1 -31 2 -47c1 -27 3 -50 -1 -77c-3 -13 -3 -27 -6 -40c-13 -47 -44 -78 -95 -91c-32 -9 -65 -10 -99 -4
c-15 3 -19 8 -20 23v13c0 13 -1 25 -1 37c0 19 1 34 1 53c1 12 7 19 20 21c11 3 21 4 32 8c24 11 34 30 37 54c3 19 -2 34 -5 50c-4 26 -5 52 -3 79c1 15 9 24 18 35l12 12c5 5 5 10 -2 14c-3 3 -6 3 -9 6c-20 11 -28 33 -27 53c3 26 1 53 -5 80c-1 7 -5 12 -8 19
c-7 13 -17 20 -32 22c-9 1 -17 1 -25 1c-5 0 -9 0 -11 1c-8 1 -13 6 -14 15v11c1 29 1 58 1 87l3 33c1 9 6 14 15 16c41 9 81 11 120 4c28 -5 52 -17 73 -36c23 -19 33 -40 38 -68c4 -25 3 -50 6 -75c0 -11 2 -23 5 -34c3 -12 10 -21 23 -26c7 -3 14 -4 21 -7l10 -3
c12 -4 18 -12 18 -24l3 -45c0 -12 1 -24 1 -37z" />
    <glyph glyph-name="asciitilde" unicode="~" horiz-adv-x="634" 
d="M602 403c0 -31 -2 -62 -7 -93c-3 -11 -4 -20 -5 -31c-4 -28 -12 -53 -21 -80c-8 -25 -21 -47 -38 -66c-29 -35 -67 -45 -110 -42c-19 1 -37 4 -54 11s-31 17 -44 32c-27 32 -49 66 -64 106c-5 15 -10 29 -21 42c-5 7 -12 12 -20 14c-17 4 -27 -1 -32 -16s-7 -30 -6 -46
c3 -28 5 -57 12 -85v-6c3 -19 -3 -24 -22 -25c-24 -3 -47 -2 -71 -3l-35 -4c-1 -1 -3 -1 -5 -1c-13 -3 -17 0 -20 15c-1 7 -1 11 -1 18l-3 63c0 7 -1 15 -1 23c-3 43 -1 86 12 129c5 15 9 28 11 39c3 15 10 24 21 33c13 11 28 20 41 31c7 4 11 8 16 12c9 8 18 13 27 16
c20 7 40 13 60 16c13 2 24 2 35 -1l25 -8c9 -3 16 -8 22 -16c13 -16 24 -32 27 -55c0 -6 1 -11 3 -16c9 -25 13 -50 18 -77c3 -13 8 -27 13 -40c7 -16 20 -26 39 -29c9 -3 18 1 25 8c11 11 16 21 20 36c7 19 11 39 11 60c1 13 3 27 3 40c1 19 -1 36 -4 53c-1 5 -3 10 -3 15
c0 10 5 16 15 17c19 1 37 3 56 3c17 -1 33 -2 50 1c12 1 19 -5 21 -18l3 -30c0 -15 1 -30 1 -45z" />
    <glyph glyph-name="uni00A0" unicode="&#xa0;" horiz-adv-x="0" 
 />
    <glyph glyph-name="exclamdown" unicode="&#xa1;" horiz-adv-x="266" 
d="M33 116h1c0 11 -1 20 0 31c0 19 2 36 3 55l4 74c0 24 3 48 7 71l8 56c1 16 2 32 5 48c1 8 6 13 14 14c15 1 29 1 44 1c15 1 30 1 45 1h51c11 0 16 -5 16 -15c1 -23 3 -44 3 -67s-3 -45 -4 -68v-43c-1 -19 -2 -35 -2 -54c0 -3 -1 -3 -1 -6c0 -29 -1 -58 -2 -86
c0 -16 -2 -31 -3 -47v-34c0 -12 -1 -24 -2 -36c-3 -16 -9 -20 -25 -19c-23 3 -43 4 -66 5l-58 2c-7 0 -11 1 -16 2c-13 2 -20 10 -20 23c-1 31 -2 61 -2 92zM238 634h-1c0 -25 -1 -50 -2 -75c0 -3 -1 -7 -2 -12c-2 -9 -7 -13 -15 -14c-8 -2 -16 -3 -25 -3c-24 0 -49 0 -73 1
c-11 0 -22 1 -33 4c-13 2 -20 9 -19 22c0 19 2 37 3 56v40c-1 19 5 28 28 28h32c3 0 5 -1 8 0c23 3 42 4 65 5c3 1 8 1 15 1c11 -1 16 -6 17 -17z" />
    <glyph glyph-name="cent" unicode="&#xa2;" horiz-adv-x="326" 
d="M279 626l1 -1l-8 -59c0 -3 -1 -4 -1 -7c-1 -7 3 -11 10 -13h8c9 -1 13 -5 13 -14v-8c0 -5 -1 -10 -2 -17c0 -19 0 -35 -1 -54v-9c0 -12 -10 -17 -21 -16c-24 3 -48 2 -71 -5c-19 -5 -35 -12 -50 -27c-8 -8 -13 -17 -15 -28c-5 -20 6 -36 25 -43c11 -3 22 -2 33 -1l59 9
c3 0 3 1 4 1c11 1 17 -4 20 -13c3 -11 4 -20 5 -31l8 -54c2 -13 -2 -23 -13 -31c-13 -8 -27 -13 -43 -16s-20 -1 -23 -24l-9 -73l-2 -34c-1 -11 -1 -20 -4 -31c-2 -12 -9 -18 -20 -18s-21 0 -32 1c-13 1 -25 2 -37 5h-4c-16 4 -20 9 -19 25l3 27c3 20 3 40 6 61
c1 13 1 26 4 41c0 3 1 6 1 9c3 12 -2 21 -13 27c-23 13 -37 33 -48 56c-8 17 -15 35 -18 54c-11 55 -2 106 28 154c8 13 18 24 31 33c16 12 33 23 53 30c10 3 15 11 15 23c0 29 5 57 12 84c3 10 9 15 18 16l77 8c13 1 20 -5 20 -18v-19z" />
    <glyph glyph-name="sterling" unicode="&#xa3;" horiz-adv-x="604" 
d="M40 276v42v45c0 13 7 19 20 19c8 0 16 1 24 0c12 -1 18 4 18 17c0 12 0 24 1 36c1 36 6 72 18 107c11 33 33 55 65 67s65 18 100 15c27 -3 51 -2 78 -5c23 -3 27 -7 27 -30c0 -36 -3 -71 -6 -106c0 -3 -1 -5 -2 -8c-3 -11 -10 -14 -20 -11c-20 4 -40 8 -61 8
c-3 0 -8 -1 -13 -2c-18 -5 -27 -16 -26 -34c1 -7 1 -14 1 -21c1 -9 6 -14 16 -13l38 4c4 1 8 1 12 0c11 -1 18 -7 20 -19c3 -11 2 -20 3 -31s1 -20 1 -31c0 -15 -3 -24 -18 -28c-19 -5 -38 -9 -57 -12c-12 -3 -15 -5 -18 -17c-3 -11 -4 -19 -5 -30c-1 -9 3 -13 12 -13
c12 0 25 0 38 -1c25 -2 45 -11 62 -28l18 -18c16 -16 36 -16 52 0c9 10 14 22 14 37c1 11 0 20 -1 31c0 5 -1 9 0 13c0 13 7 18 20 17l25 -3l40 -3c7 0 11 -1 18 -2c8 -1 13 -6 15 -13c1 -7 3 -12 3 -19c3 -29 5 -57 2 -86c-2 -39 -16 -72 -41 -100c-21 -24 -46 -41 -75 -51
c-27 -9 -51 0 -71 17c-15 13 -25 29 -36 44c-5 7 -10 14 -17 21c-21 21 -53 20 -74 7c-16 -9 -29 -22 -38 -38c-15 -27 -35 -40 -60 -51l-32 -12c-16 -5 -33 -5 -50 -5c-12 0 -24 1 -36 4c-15 2 -21 10 -19 25c1 4 1 9 1 13l3 55c0 9 1 18 1 27c0 11 6 18 19 20
c7 1 13 2 20 5c24 8 42 22 49 49c3 14 3 28 0 43c-1 7 -3 10 -4 17c-3 15 -7 22 -27 19c-9 -1 -19 -2 -28 -2c-13 -1 -19 6 -19 19z" />
    <glyph glyph-name="currency" unicode="&#xa4;" horiz-adv-x="558" 
d="M125 578c8 0 14 -2 18 -7c12 -11 23 -22 33 -33c16 -16 14 -18 36 -10c20 7 41 11 62 10c17 -1 33 -5 50 -9c12 -3 23 -7 35 -11c11 -3 14 -3 21 6c11 13 19 25 30 38l11 12c7 7 16 8 25 2l24 -20c19 -17 37 -35 52 -55l6 -8c3 -6 3 -13 -1 -22c-8 -14 -18 -27 -30 -39
l-28 -28c-7 -6 -9 -14 -7 -23c3 -15 6 -26 7 -41c1 -13 3 -26 0 -41l-8 -56c-1 -7 1 -14 5 -20l21 -32c11 -19 19 -39 30 -59c1 -3 2 -5 2 -6c3 -9 0 -17 -8 -22c-5 -4 -12 -7 -17 -11c-16 -11 -32 -22 -47 -34c-13 -9 -25 -8 -35 4c-15 17 -27 33 -42 50c-3 4 -8 9 -12 13
c-6 5 -12 7 -19 4c-35 -13 -71 -13 -107 -6c-12 2 -22 -1 -30 -10c-11 -15 -23 -28 -35 -43l-11 -12c-10 -9 -19 -8 -28 1c-11 11 -18 23 -29 35l-29 30c-16 15 -18 21 -7 40c5 12 12 21 20 32s9 22 3 33c-24 49 -24 99 -5 150l6 14c5 9 4 17 -3 25c-15 15 -27 29 -40 44
c-5 5 -11 10 -16 17c-7 8 -7 16 1 25l11 9l39 35l37 26c3 2 6 3 9 3zM341 327v9c-3 25 -13 43 -37 54c-5 3 -10 4 -15 7c-28 13 -70 -6 -81 -31c-4 -9 -7 -19 -10 -30c-3 -17 3 -32 16 -43c23 -19 48 -27 79 -23c25 4 43 17 47 42c1 3 1 8 1 15z" />
    <glyph glyph-name="yen" unicode="&#xa5;" horiz-adv-x="626" 
d="M154 93c-15 0 -27 0 -39 1c-12 0 -19 6 -21 17l-3 27c-3 17 -2 33 -5 49v17c0 9 5 14 14 14c23 0 44 -1 67 -2c16 0 31 -2 46 -3s16 7 17 18c0 5 -1 10 -1 15c-1 14 -6 26 -14 35c-11 11 -18 23 -29 35c-4 5 -9 9 -14 13c-8 5 -14 12 -18 22c-8 19 -14 38 -23 57
c-16 33 -34 66 -50 99l-27 55l-27 55l-4 11c-2 7 1 12 8 14c3 1 6 1 11 1c19 0 36 1 53 0l60 -4l31 -3c15 -1 20 -5 25 -18c5 -16 9 -32 16 -48c5 -13 10 -26 17 -41c11 -25 22 -51 34 -76c9 -19 21 -35 32 -54c3 -3 6 -7 9 -7s7 5 8 9c5 12 9 24 13 36c11 39 22 75 37 111
c12 28 21 56 25 87c1 1 1 1 1 2c4 20 9 24 29 27c19 1 34 4 53 5c15 1 27 0 42 -1l52 -3h5c16 -1 22 -9 17 -24c-7 -23 -16 -46 -24 -69l-38 -97c-8 -21 -18 -42 -27 -62c-21 -47 -47 -90 -75 -133l-11 -14c-11 -13 -9 -28 -5 -43c1 -5 4 -7 11 -7h29h29c11 0 22 -1 33 -2
c12 -1 15 -6 15 -18c0 -9 -1 -17 -1 -28c0 -17 0 -33 -1 -52v-7c-1 -16 -10 -24 -25 -23c-25 0 -50 2 -75 3c-19 1 -21 0 -24 -19l-3 -37c0 -9 -4 -14 -12 -17c-11 -3 -22 -4 -34 -5l-19 -2l-99 -12c-13 -1 -20 5 -21 17c-1 19 -2 38 -2 57c0 15 -4 19 -19 20
c-17 1 -34 2 -49 2z" />
    <glyph glyph-name="brokenbar" unicode="&#xa6;" horiz-adv-x="249" 
d="M96 688l37 2c19 1 38 -1 57 -4l12 -4c7 -3 12 -8 13 -17c1 -7 2 -12 2 -15c0 -16 -1 -32 -2 -48c-3 -27 -4 -50 -7 -77c-3 -24 -4 -49 -7 -74c-1 -15 0 -29 0 -44s-2 -30 -3 -45c0 -2 -1 -5 -2 -9c-2 -9 -8 -13 -17 -13c-19 0 -36 2 -55 2c-16 -1 -32 -3 -48 -3
c-7 -1 -16 0 -25 2c-7 2 -11 7 -11 14c0 11 1 20 2 31c3 28 3 55 -1 82c-1 3 0 5 0 8c-1 27 -2 54 -2 81c0 15 1 31 1 46c1 21 2 42 2 62c0 9 4 14 12 16zM37 81h-2c3 36 1 71 4 107c0 19 1 39 4 59c1 14 8 23 21 27c23 7 45 14 69 14c11 0 21 3 32 4c14 2 22 -4 24 -17
c3 -19 4 -37 7 -56c5 -31 10 -63 14 -94c4 -24 7 -48 10 -72c2 -14 1 -28 -3 -41c-2 -10 -8 -15 -18 -16c-23 -3 -44 -4 -67 -4c-11 0 -19 -3 -30 -3c-16 -1 -33 -1 -49 -1c-11 1 -16 7 -16 20v73z" />
    <glyph glyph-name="section" unicode="&#xa7;" horiz-adv-x="510" 
d="M410 656h-2v-65c0 -4 0 -7 -1 -10c-1 -7 -5 -11 -10 -11c-15 -1 -27 -2 -40 -1c-17 1 -33 5 -50 2c-19 -1 -37 -3 -56 -11c-11 -4 -18 -12 -22 -23c-3 -10 -1 -19 7 -27c11 -11 24 -19 40 -22c11 -3 21 -4 32 -7c5 -1 10 -3 14 -6c8 -6 16 -9 23 -10c15 -4 29 -10 41 -18
c13 -8 21 -21 28 -34c12 -25 10 -50 3 -77l-4 -15c-1 -6 1 -12 5 -17l9 -8c19 -15 31 -33 43 -52c11 -17 14 -36 15 -56c3 -27 -6 -48 -18 -71s-25 -43 -44 -60c-20 -17 -40 -35 -64 -46l-26 -13c-16 -8 -34 -9 -51 -12c-19 -4 -37 0 -56 3c-3 0 -4 1 -7 1
c-21 1 -41 2 -62 2c-21 -1 -42 2 -63 9c-11 3 -19 5 -30 9c-16 5 -23 15 -20 30c3 13 4 28 4 44c0 5 1 10 2 17l9 30c3 11 9 15 20 12c28 -8 56 -10 85 -14c9 -1 17 -3 26 -3s18 1 27 4c15 5 26 10 41 17c3 1 5 3 8 6c13 11 13 23 0 34c-9 8 -20 10 -31 13
c-19 3 -36 5 -55 9c-36 7 -64 26 -85 55c-1 3 -3 5 -5 8c-24 31 -34 66 -29 105c1 13 5 25 10 35c0 0 1 1 2 4c5 11 4 15 -5 26c-7 7 -12 15 -19 24c-11 13 -15 30 -18 47c-5 28 4 55 12 82c11 39 40 64 73 84c8 5 18 8 27 11c19 4 36 8 55 11c23 4 45 6 66 5l35 -3
c1 -1 3 -1 4 -1l60 -3c11 0 18 -1 29 -2c13 -1 19 -7 18 -20v-21zM252 303c12 0 23 5 32 14c14 15 13 28 -4 39c-19 13 -38 18 -61 22c-15 3 -31 -16 -24 -32c2 -5 4 -10 7 -13c8 -11 20 -18 31 -25c7 -3 13 -5 19 -5z" />
    <glyph glyph-name="dieresis" unicode="&#xa8;" horiz-adv-x="380" 
d="M213 587c3 19 1 33 4 49c3 15 8 21 24 22l84 4c11 1 18 -5 21 -17c8 -28 10 -58 7 -89l-2 -17c-2 -11 -7 -16 -16 -17c-8 -1 -16 -3 -25 -3c-16 -3 -33 -4 -49 -4c-9 -1 -17 1 -26 2c-9 2 -15 8 -16 18c-3 19 -3 37 -6 52zM27 590v44c0 15 3 21 18 24c13 3 25 5 38 6
c16 1 32 1 48 -3c11 -3 16 -10 16 -21c0 -12 0 -25 -1 -38c0 -19 -1 -36 -2 -55c0 -3 1 -5 0 -8c0 -13 -6 -20 -19 -20c-15 0 -28 1 -43 1c-12 0 -24 -1 -36 -2c-11 -1 -16 3 -17 12c-3 15 -2 30 -3 45c0 5 1 10 1 15z" />
    <glyph glyph-name="copyright" unicode="&#xa9;" horiz-adv-x="700" 
d="M678 384l3 -48c-1 -28 -3 -56 -8 -83c-3 -15 -3 -30 -8 -45c-11 -33 -29 -64 -54 -93l-16 -20c-16 -19 -35 -35 -56 -46c-11 -5 -17 -10 -28 -15c-27 -15 -53 -27 -84 -32l-55 -8c-27 -3 -50 2 -74 7c-12 3 -25 3 -37 6c-17 3 -33 9 -48 16c-23 11 -45 26 -64 45l-41 42
c-24 25 -41 55 -57 86c-9 19 -16 40 -19 63c-7 36 -3 71 6 106l14 65l9 34c8 24 16 49 29 72c23 39 52 74 93 97c13 7 26 15 41 22c27 12 54 19 83 26c19 4 38 4 57 4c5 0 9 1 16 2c19 4 35 0 52 -5l41 -11c29 -11 58 -20 81 -41c19 -17 37 -35 52 -58c11 -19 24 -35 35 -55
c20 -43 33 -86 37 -133zM134 309c0 -8 -1 -16 0 -24c0 -4 0 -7 1 -9c11 -55 40 -99 85 -132c28 -20 60 -35 95 -46c31 -9 60 -12 91 -3c32 9 64 18 92 38c7 5 14 9 21 16c21 19 38 38 47 65c11 31 18 61 21 93c1 21 3 41 0 62c-5 31 -10 59 -21 90c-9 27 -22 49 -41 67
l-29 27c-8 8 -17 13 -26 18c-20 9 -42 14 -63 17c-12 3 -25 2 -40 -1c-36 -11 -72 -19 -105 -38c-13 -7 -26 -12 -37 -23l-21 -23c-21 -23 -36 -48 -48 -75c-16 -39 -22 -78 -22 -119zM395 494h14c10 0 16 -5 18 -14c3 -11 3 -22 6 -33c3 -12 3 -25 6 -38
c1 -11 -3 -18 -13 -20c-11 -3 -20 -3 -31 -4c-15 -3 -30 -3 -45 -6c-19 -3 -31 -14 -42 -29c-2 -2 -4 -5 -5 -9c-7 -23 7 -49 30 -57c19 -7 40 -10 61 -10h18c10 0 16 -5 17 -15c3 -21 0 -41 -4 -61c-1 -4 -1 -9 -4 -13c-3 -9 -8 -14 -15 -14c-12 -1 -23 -1 -35 -1
c-16 0 -31 3 -46 7c-21 5 -40 11 -56 26c-23 19 -40 42 -52 69c-9 19 -12 40 -9 61c1 11 1 19 4 30c1 12 5 22 12 33c25 39 61 66 108 83l29 10c10 5 21 6 34 5z" />
    <glyph glyph-name="ordfeminine" unicode="&#xaa;" horiz-adv-x="388" 
d="M363 303v-23c-1 -15 -8 -22 -22 -23c-23 -3 -43 -4 -66 -5c-19 -1 -24 5 -27 20c-3 23 -6 42 -10 65c0 3 0 6 -1 7c-2 7 -7 11 -14 12c-19 1 -34 2 -53 -1c-11 -1 -17 -6 -20 -17l-12 -60l-2 -8c-3 -9 -9 -13 -17 -12c-13 0 -26 1 -39 2l-35 3h-6c-9 2 -14 7 -13 16
c0 10 1 20 3 30c3 28 5 55 10 82c9 55 18 107 29 162l16 95c3 13 6 17 19 20c29 4 56 12 87 9c11 0 19 2 30 1c19 0 39 -2 59 -3c11 -1 18 -7 22 -19c11 -33 18 -66 25 -101c7 -31 12 -63 19 -94c3 -16 4 -31 7 -47l8 -64c3 -16 2 -31 3 -47zM190 532c-15 0 -20 -2 -23 -21
c-3 -15 -2 -27 -5 -42c-1 -13 5 -18 18 -16c9 3 18 3 27 4c11 0 16 5 15 16l-4 32c-1 7 -2 11 -5 16c-2 7 -7 10 -14 10c-3 0 -6 1 -9 1z" />
    <glyph glyph-name="guillemotleft" unicode="&#xab;" horiz-adv-x="652" 
d="M486 49v1c-4 0 -8 1 -11 0c-11 -1 -19 4 -24 13c-12 17 -23 34 -34 51c-23 31 -43 63 -66 95c-19 25 -35 51 -52 76c-7 10 -8 20 -3 31c25 51 52 100 81 149c11 19 20 36 35 52c7 7 10 15 15 22c1 3 2 4 3 5c5 12 15 17 29 15c23 -4 43 -5 66 -6c15 0 26 -3 41 -6
s16 -11 13 -23l-10 -24l-33 -67l-32 -56l-34 -68c-5 -9 -3 -19 5 -28c19 -24 38 -48 55 -73c9 -15 20 -26 31 -41c19 -23 36 -48 53 -72c3 -4 6 -9 8 -16s-1 -12 -8 -15l-14 -2c-8 0 -15 -1 -22 -2zM195 545c19 -3 41 -4 64 -7c13 -3 26 -2 41 -5c18 -2 24 -11 17 -28
c-3 -9 -7 -18 -12 -29c-13 -25 -25 -51 -42 -74c-15 -19 -24 -38 -37 -57c-11 -15 -20 -26 -31 -39l-7 -7c-3 -7 -4 -12 -1 -17c1 -3 3 -5 5 -7c17 -25 34 -50 53 -75c12 -16 21 -33 32 -52c8 -15 17 -27 25 -42l12 -19c6 -13 3 -21 -10 -24c-23 -7 -45 -11 -68 -14
c-11 0 -21 2 -32 2c-13 1 -26 1 -38 1c-14 1 -24 8 -29 21c-11 24 -24 47 -37 71l-52 99c-8 15 -15 27 -22 42c-6 10 -6 19 1 28c17 27 35 51 52 78c12 19 23 39 35 59c7 11 13 23 21 34l34 50c7 9 11 11 26 11z" />
    <glyph glyph-name="logicalnot" unicode="&#xac;" horiz-adv-x="436" 
d="M267 381h8c16 0 32 0 48 -1c19 -1 36 -2 55 -5c8 -1 13 -6 14 -14c1 -7 2 -12 2 -15c0 -33 4 -66 7 -99c3 -12 1 -24 2 -36c3 -23 1 -47 -2 -70c-1 -12 -4 -23 -7 -34s-11 -17 -23 -18c-27 -3 -54 -4 -82 -4c-14 0 -21 7 -20 20c0 31 1 62 1 93c0 8 -1 16 -2 24
c-2 9 -8 14 -17 13c-13 -1 -25 -3 -40 -3c-20 0 -41 -2 -62 2c-13 3 -26 5 -37 5c-16 0 -33 -2 -49 -3c-7 -1 -12 -1 -17 -1c-13 0 -19 6 -19 19c0 15 1 27 2 42c0 8 1 16 2 25c0 7 0 15 1 23c1 9 6 15 14 17c20 4 40 7 60 10c15 3 30 4 45 5c11 1 19 0 30 1c29 3 57 4 86 4
z" />
    <glyph glyph-name="registered" unicode="&#xae;" horiz-adv-x="768" 
d="M28 324c-1 32 5 63 16 94c7 25 14 49 22 74c7 19 17 35 29 51c27 37 58 69 99 92c45 27 91 49 140 66c19 7 39 8 59 7c2 0 4 -1 7 -2c23 -8 46 -11 69 -16c15 -3 29 -6 44 -10c10 -3 20 -7 31 -12c27 -15 51 -26 76 -41c17 -11 29 -23 42 -38c19 -21 31 -46 44 -70
c9 -16 17 -32 25 -49c7 -15 9 -29 12 -45c3 -21 7 -42 4 -63c-1 -18 -3 -37 -6 -56c-7 -43 -18 -85 -38 -124c-13 -27 -31 -52 -53 -75c-15 -16 -31 -27 -47 -42c-32 -27 -69 -42 -108 -57c-23 -8 -46 -14 -69 -18s-47 -5 -70 -4c-16 1 -31 4 -47 7c-19 3 -38 6 -57 10
c-27 7 -52 19 -77 36c-17 11 -34 24 -50 36c-19 15 -33 34 -45 54c-17 27 -26 54 -33 85c-5 24 -12 48 -16 72c-3 13 -2 25 -3 38zM626 363c-1 11 -1 24 -4 37c-3 25 -10 49 -21 72c-7 15 -12 29 -23 42c-16 20 -35 38 -55 54c-19 15 -41 27 -66 34c-29 8 -58 9 -85 2
c-15 -3 -27 -7 -40 -14c-21 -8 -41 -15 -60 -26c-27 -15 -46 -33 -65 -56c-15 -15 -26 -32 -33 -52c-7 -19 -13 -37 -18 -56c-11 -37 -16 -75 -13 -114c3 -24 10 -47 25 -67c9 -15 21 -25 30 -40c17 -23 37 -40 60 -53c11 -7 22 -9 33 -13c27 -9 52 -16 79 -13l36 4
c15 1 30 4 45 11c43 17 79 45 111 78c21 21 37 45 46 70c12 32 18 65 18 100zM363 319c-1 -6 -2 -10 -1 -12c3 -19 4 -36 7 -55c1 -11 1 -23 1 -35c0 -9 -4 -14 -13 -15c-12 -1 -25 -3 -37 -3c-7 -1 -12 1 -19 2l-30 3c-11 1 -16 6 -15 16c1 23 3 46 6 69c1 19 1 36 4 55
l4 61c1 20 5 39 2 59c-1 9 0 18 1 27c1 7 4 11 11 12c25 5 49 9 74 13c13 2 26 2 37 -1c3 -1 3 0 6 0c27 3 52 2 76 -9c18 -7 30 -19 37 -34c9 -19 15 -35 18 -54c5 -36 -7 -58 -35 -77c-19 -11 -19 -13 -8 -30c11 -19 20 -34 29 -53c7 -12 11 -25 18 -40c4 -9 1 -15 -9 -18
c-7 -3 -14 -2 -21 -3c-12 -3 -25 -3 -38 -4c-8 -1 -15 3 -20 10l-19 32c-16 27 -32 51 -51 75c-5 7 -4 6 -15 9zM381 447h-5c-17 -1 -21 -5 -21 -22v-27c0 -9 1 -18 2 -27c1 -8 6 -12 15 -11c8 1 16 3 24 6c16 5 28 15 36 30c7 15 4 27 -9 37c-13 9 -27 14 -42 14z" />
    <glyph glyph-name="macron" unicode="&#xaf;" horiz-adv-x="453" 
d="M145 653v-1c16 3 32 4 48 5c12 0 24 0 37 -1c12 -3 23 1 35 2c4 0 8 1 12 1h120c3 0 8 -1 15 -2c7 -3 13 -9 13 -17c0 -16 0 -32 -1 -48c-1 -9 -6 -14 -16 -17c-11 -3 -19 0 -30 1h-29c-11 0 -19 2 -30 1c-12 0 -24 -1 -36 -1c-31 -1 -60 -5 -89 -8c-5 0 -10 -1 -15 0
c-19 3 -35 0 -54 0c-21 -1 -43 -4 -66 -11c-2 -1 -5 -1 -10 -1c-9 -1 -15 4 -17 13l-2 27c-1 8 -2 17 -2 26c-1 13 5 22 18 25c9 3 18 3 29 4c23 1 47 2 70 2z" />
    <glyph glyph-name="degree" unicode="&#xb0;" horiz-adv-x="453" 
d="M264 314c-15 1 -27 2 -42 5c-17 4 -35 6 -52 11c-44 12 -82 34 -106 74c-16 27 -27 54 -26 85l2 47c2 28 13 54 34 78c17 19 36 36 59 49c28 15 59 26 92 29c7 0 12 -1 19 -4c19 -8 36 -14 52 -25c7 -5 15 -8 23 -11c19 -9 35 -21 49 -36c15 -17 27 -34 38 -53
c13 -23 19 -47 19 -72c-1 -29 -6 -57 -17 -84c-4 -11 -10 -20 -19 -29l-23 -22c-19 -17 -38 -32 -63 -37c-12 -3 -26 -2 -39 -5zM295 492c0 13 -3 23 -9 32c-13 21 -32 28 -56 31c-12 1 -22 -3 -30 -11c-13 -12 -17 -27 -17 -44c0 -11 3 -19 10 -26c13 -13 27 -23 46 -27
c31 -7 56 13 56 45z" />
    <glyph glyph-name="plusminus" unicode="&#xb1;" horiz-adv-x="374" 
d="M132 336h1v24c-1 11 -2 13 -13 12c-20 0 -40 -1 -61 -2h-18c-10 0 -15 5 -15 15c-1 20 -1 40 0 60c1 17 4 26 25 29c24 4 49 8 73 11c11 3 15 4 15 15c1 13 0 26 0 39c0 15 0 27 1 42c0 11 6 17 18 19c14 2 28 2 42 0c13 -1 26 -2 38 -2s18 -6 18 -17
c0 -15 -2 -28 -2 -43c0 -13 1 -27 1 -40c1 -8 5 -12 12 -13l24 -3l39 -6c11 -2 17 -9 16 -21c-3 -23 -5 -43 -9 -66c-1 -13 -7 -16 -20 -17c-15 -1 -27 -1 -42 -4c-9 -1 -13 -6 -13 -15c0 -8 2 -17 3 -25l2 -39c0 -5 -1 -9 -2 -11c-3 -6 -7 -9 -12 -8c-7 1 -15 2 -22 2h-54
h-22c-13 1 -20 8 -20 20zM300 72v-1c-23 3 -43 4 -66 5c-7 0 -13 -1 -20 -1c-8 0 -15 1 -22 1c-16 1 -32 -2 -48 -5c-24 -3 -49 -4 -74 -3c-11 1 -17 6 -19 16c-3 13 -4 25 -5 38c-1 16 -1 32 -1 48c-1 15 10 27 26 28c31 3 59 6 90 6c19 0 39 0 59 -1c11 0 23 -2 35 -3
c11 0 22 0 33 -1c11 0 19 1 30 0c13 0 20 -6 21 -18c3 -29 2 -59 5 -88v-8c-1 -9 -6 -13 -15 -13h-29z" />
    <glyph glyph-name="twosuperior" unicode="&#xb2;" horiz-adv-x="363" 
d="M216 295l11 -3h17c15 -1 31 -1 47 -4c9 -1 18 -3 27 -6c10 -3 15 -10 15 -21c1 -15 2 -28 1 -43c0 -20 -1 -41 -4 -61c0 -3 -1 -4 -1 -7c-3 -8 -8 -12 -16 -11l-36 4c-1 1 -4 1 -7 1c-41 1 -82 2 -123 2c-15 0 -31 -2 -46 -3c-20 -1 -40 -2 -60 -2c-11 -1 -17 5 -17 17
v51c0 7 -1 15 -1 22s0 11 1 18l6 33c2 7 7 13 14 16c12 7 22 10 33 17l31 19c11 7 22 16 31 27c5 7 11 12 16 20c17 24 28 50 25 81c-3 27 -19 41 -42 48c-7 3 -13 3 -20 4c-16 0 -33 5 -50 1c-3 -1 -7 0 -10 0c-11 2 -17 8 -17 19v41l-2 50c-1 15 1 19 16 22
c37 5 73 8 112 5c35 -4 69 -14 98 -38c24 -20 39 -46 44 -77c4 -25 3 -50 2 -74c0 -3 0 -5 -1 -6c-7 -23 -12 -44 -21 -65c-13 -31 -33 -56 -58 -77c-9 -7 -11 -9 -15 -20z" />
    <glyph glyph-name="threesuperior" unicode="&#xb3;" horiz-adv-x="334" 
d="M298 510h1l-2 -32c-3 -28 -17 -50 -36 -70l-15 -14c-9 -11 -10 -14 1 -22c7 -5 13 -10 18 -15c35 -31 49 -69 37 -114c-4 -17 -13 -32 -20 -48c-9 -19 -21 -32 -34 -47c-16 -17 -36 -25 -59 -29c-16 -4 -34 -5 -53 -4c-28 3 -56 3 -81 18l-3 2c-15 6 -21 17 -19 34l8 58
c2 9 8 14 18 13c7 0 13 -2 20 -3c31 -3 58 7 78 32c5 7 6 15 1 24c-7 14 -19 24 -36 29c-8 4 -17 6 -26 9c-15 5 -19 11 -18 27c1 19 1 35 4 54c1 19 6 20 21 23c7 3 14 2 21 3c15 3 26 9 34 17c13 13 17 33 6 49c-7 11 -15 19 -25 22c-27 9 -53 17 -81 16
c-7 0 -13 -1 -20 -1c-11 0 -17 6 -18 17c-3 19 -2 39 -3 59v21c0 10 5 17 16 20c12 5 24 8 37 9c15 0 30 2 45 3c11 0 23 -1 34 -2c16 -3 32 -6 48 -11c19 -6 35 -15 48 -28c19 -17 34 -37 43 -62c7 -15 8 -29 9 -44c1 -3 1 -8 1 -13z" />
    <glyph glyph-name="acute" unicode="&#xb4;" horiz-adv-x="261" 
d="M173 662c16 -1 28 -2 40 -2l5 -2c15 -3 18 -11 10 -24c-4 -8 -9 -15 -14 -23l-86 -140c-11 -15 -17 -17 -32 -14l-56 9c-10 2 -14 8 -12 18c0 1 1 5 2 10c7 31 15 62 23 93l9 45c3 10 9 15 18 16l56 8c15 3 26 3 37 6z" />
    <glyph glyph-name="mu" unicode="&#xb5;" horiz-adv-x="700" 
d="M161 35c-1 -5 -2 -9 -2 -12l12 -80c4 -29 10 -57 10 -88c0 -28 1 -56 1 -84c0 -12 -1 -24 -4 -36c-1 -9 -6 -13 -15 -13c-23 0 -45 -6 -68 -11c-19 -4 -39 -3 -58 -3c-9 0 -15 5 -17 16c-1 7 -2 13 -2 20c-1 31 -3 59 0 90l2 46c3 23 4 42 7 65c1 16 4 31 4 47
c0 27 -2 50 -3 77c0 27 -2 54 1 81c1 9 1 19 1 28c0 32 2 63 5 95c3 33 4 66 7 99c3 27 2 52 7 79l3 10c2 8 7 13 15 15c11 4 22 3 33 3c12 -1 25 0 38 0c19 0 38 3 57 -1c5 -1 10 0 17 0c11 -1 14 -4 17 -16l2 -33c0 -15 0 -27 -1 -42c-3 -28 -4 -56 -5 -84
c-3 -31 -5 -59 -2 -90c1 -15 4 -30 11 -46c6 -13 15 -23 26 -30c7 -5 14 -6 23 -4c23 3 34 16 41 36c7 19 9 37 12 56l9 74l3 49c4 32 2 64 2 96v56c-1 11 5 17 16 17c24 0 48 5 73 8c16 1 32 0 48 0c9 0 14 -5 15 -15c1 -11 1 -20 1 -31l-3 -61c-3 -39 -3 -77 -3 -116
c0 -27 -1 -51 -1 -78c0 -11 1 -22 3 -32c1 -5 2 -11 5 -17c8 -15 33 -19 44 -2c11 16 14 35 11 56c-3 20 0 22 19 29c16 4 33 9 49 12c5 2 12 2 19 1c4 0 8 -4 11 -7s5 -7 6 -12c8 -39 11 -79 3 -118c-7 -27 -15 -52 -32 -75c-10 -11 -20 -21 -30 -29c-5 -7 -13 -9 -20 -13
l-30 -13c-17 -7 -35 -7 -54 -1c-16 7 -32 13 -45 24c-8 7 -14 13 -17 20c-1 3 -2 4 -3 5c-5 9 -10 9 -17 2s-12 -15 -19 -22c-22 -23 -46 -39 -73 -50c-20 -9 -41 -8 -62 -5c-11 3 -20 4 -31 7c-12 2 -22 7 -30 14l-31 31c-2 1 -5 4 -8 7c-1 0 -2 0 -3 -1z" />
    <glyph glyph-name="paragraph" unicode="&#xb6;" horiz-adv-x="618" 
d="M303 635l56 3c21 -1 43 -3 66 -3c28 1 55 -1 83 -5c17 -3 35 -5 52 -9c11 -2 16 -9 17 -20c3 -31 4 -59 7 -90c3 -23 2 -46 1 -69l-6 -66c-1 -23 -1 -44 -1 -67c0 -15 3 -28 4 -43c0 -5 1 -10 1 -17c1 -29 2 -59 -1 -88c-1 -21 -5 -42 -2 -63c3 -19 1 -36 1 -55
c-1 -14 -8 -21 -22 -22c-35 -1 -67 1 -99 10c-17 5 -21 9 -21 28c0 37 -2 73 -2 112c0 23 3 47 4 70l2 57c1 23 2 44 2 67c1 15 2 30 1 46c0 20 -2 41 -3 62c-1 11 -4 17 -19 16h-54c-5 0 -8 0 -10 -1c-9 -3 -11 -3 -11 -14c0 -15 1 -26 2 -41c0 -15 1 -27 1 -42v-67
c-1 -31 -1 -58 -1 -89c-1 -28 -2 -57 -2 -85v-28c-1 -33 0 -66 1 -101c0 -7 -1 -14 -2 -21c-3 -11 -9 -17 -20 -17c-15 1 -27 2 -42 2c-19 1 -38 0 -57 1c-8 0 -17 1 -25 2c-10 1 -15 6 -15 16l3 61c3 23 6 46 6 69c1 27 1 53 -2 80c-1 20 -3 40 -6 60c-1 12 -6 15 -18 18
c-19 3 -37 4 -53 15c-15 9 -29 18 -41 27c-11 8 -18 19 -25 31c-11 19 -19 39 -26 59s-6 39 -3 59c4 23 7 45 19 65c5 8 11 15 19 22c16 12 31 26 51 33c9 4 19 6 28 9l51 12c8 3 17 2 25 3c19 3 36 4 55 7c11 1 20 1 31 1z" />
    <glyph glyph-name="periodcentered" unicode="&#xb7;" horiz-adv-x="235" 
d="M33 248h-1l4 43v9c0 16 0 32 1 49c0 12 6 19 17 21c20 4 39 10 59 11c23 3 44 0 65 -1c11 -1 17 -7 19 -19c3 -23 5 -42 2 -65s-3 -46 -4 -69c0 -5 0 -8 -1 -10c-3 -9 -8 -14 -17 -13c-11 0 -20 1 -31 2c-3 0 -5 1 -8 1c-28 -3 -55 5 -83 8c-3 0 -4 1 -5 1
c-11 3 -16 10 -17 21c-1 4 0 7 0 11z" />
    <glyph glyph-name="cedilla" unicode="&#xb8;" horiz-adv-x="303" 
d="M30 -93l2 72c0 5 0 8 -1 11c-3 16 -2 33 1 49c3 11 9 17 20 17c8 -1 15 -2 22 -2c15 -1 27 -2 42 -2l26 -2c10 -1 15 -7 15 -18c0 -16 -1 -32 -2 -48c0 -8 1 -16 2 -24c1 -9 6 -14 15 -14c11 -1 18 0 29 -3c23 -3 38 -15 51 -34c23 -31 31 -64 28 -101
c-1 -20 -9 -38 -20 -54c-20 -29 -45 -53 -77 -68c-21 -9 -44 -16 -67 -16h-33c-11 1 -23 2 -34 5c-9 1 -14 6 -15 16l-3 66c0 4 0 7 1 9c2 11 8 16 19 16h31c32 -1 55 14 74 38c12 16 2 38 -18 41c-15 2 -29 2 -43 0c-12 -3 -24 -2 -36 -3c-4 0 -8 -1 -12 -1
c-9 0 -14 4 -15 13c-1 15 -1 29 -2 37z" />
    <glyph glyph-name="onesuperior" unicode="&#xb9;" horiz-adv-x="309" 
d="M151 277h1v38l-2 90c0 4 -1 8 -1 12c-2 10 -7 14 -16 11c-19 -5 -38 -10 -57 -17l-12 -3c-11 -3 -18 2 -21 13l-8 42c-3 12 -5 25 -9 37c-2 9 0 16 7 22c21 19 43 38 64 58c23 23 42 45 65 68c8 9 17 13 27 12l57 -2c13 -1 19 -7 19 -20l2 -74l6 -78l2 -54
c1 -16 3 -32 3 -48c1 -11 1 -20 1 -31v-8c0 -15 -1 -29 0 -44c0 -36 -3 -71 -7 -106c0 -4 0 -7 -1 -8c-3 -13 -10 -20 -23 -20l-58 -3c-5 0 -11 -1 -16 -1c-13 0 -19 6 -20 19z" />
    <glyph glyph-name="ordmasculine" unicode="&#xba;" horiz-adv-x="536" 
d="M23 414c1 35 4 67 19 98c5 15 13 27 21 38c12 17 25 32 38 47c16 19 36 29 56 42c27 17 54 26 83 29c13 3 27 4 40 4c11 0 23 -1 34 -4c20 -3 40 -7 57 -16c19 -11 38 -21 55 -36c16 -15 27 -30 38 -49c23 -44 39 -89 46 -138c1 -16 4 -31 5 -46c1 -11 0 -21 -3 -32
c-4 -20 -7 -38 -16 -57c-11 -21 -22 -40 -42 -55c-5 -3 -9 -7 -13 -11c-25 -23 -52 -36 -83 -41c-16 -3 -32 -9 -48 -6c-32 3 -64 3 -95 10l-41 9c-28 4 -51 17 -72 36c-19 16 -33 36 -45 57c-8 15 -15 29 -22 45c-9 24 -13 49 -12 76zM370 382c0 7 1 12 -2 19
c-7 39 -26 72 -58 100c-11 9 -20 17 -35 18c-12 3 -24 4 -36 -1c-21 -9 -37 -24 -46 -44c-5 -11 -10 -23 -14 -35c-4 -11 -9 -24 -6 -37c7 -47 34 -77 77 -94c12 -5 25 -5 38 -8c25 -7 46 5 61 24c13 16 24 35 21 58zM501 62h1l-2 -49c-1 -12 -7 -18 -19 -19
c-11 0 -23 2 -34 2h-87l-45 -4c-19 -1 -38 -3 -57 -6c-16 -3 -32 -3 -49 -6c-19 -3 -37 3 -56 0c-23 -1 -46 -2 -69 -9l-20 -4c-10 -2 -16 2 -19 12c-1 4 -2 7 -2 10c0 27 -1 54 -1 81c0 7 1 12 2 19c2 13 10 22 23 25c11 3 21 3 32 6c13 3 26 4 39 7c16 3 32 4 48 5
c20 1 40 -1 60 2c19 1 35 3 54 7c27 4 51 5 76 0c19 -3 36 -5 55 -2c7 1 12 1 19 1c11 1 18 2 29 2c12 0 16 -3 19 -15c2 -10 3 -20 3 -31c1 -12 0 -23 0 -34z" />
    <glyph glyph-name="guillemotright" unicode="&#xbb;" horiz-adv-x="635" 
d="M154 33v-1l-36 3l-60 3h-5c-14 1 -18 8 -12 20c5 13 10 26 17 38l2 2c13 31 32 57 48 85c16 27 33 54 50 81c1 3 3 5 4 6c7 9 7 19 0 28s-13 20 -20 31c-11 15 -19 29 -30 44l-23 37l-30 54l-20 39c-6 11 -2 19 11 22c31 5 60 11 91 15c21 3 42 1 63 1c8 -1 14 -8 17 -15
c5 -15 11 -28 16 -43c7 -16 12 -32 21 -47c13 -23 25 -46 36 -70c5 -15 14 -26 21 -39l24 -45c6 -12 5 -22 -4 -31c-7 -7 -12 -15 -19 -23c-28 -33 -48 -70 -71 -107l-45 -73c-5 -10 -14 -15 -25 -15h-21zM361 523c27 -1 50 -2 77 -2c15 0 27 1 42 2c10 1 17 -2 22 -10
c15 -23 29 -42 41 -65c17 -31 32 -63 44 -96c7 -17 13 -34 20 -50c7 -13 6 -26 -3 -39l-43 -67c-11 -21 -20 -42 -31 -65c-16 -31 -31 -64 -51 -93l-11 -18c-5 -7 -12 -10 -19 -9c-13 3 -26 0 -39 -1c-26 -4 -52 -5 -78 -3l-19 3c-11 3 -13 10 -8 20v1c19 23 29 49 44 73
l59 91l25 40c7 11 11 20 18 31c6 10 6 20 0 30l-23 40c-12 23 -26 45 -41 66l-63 103c-6 9 -3 15 8 17c11 1 18 1 29 1z" />
    <glyph glyph-name="onequarter" unicode="&#xbc;" horiz-adv-x="1003" 
d="M583 654h1c-3 -28 -3 -55 -6 -83c-4 -53 -17 -105 -28 -157c-9 -43 -15 -86 -23 -129c-7 -39 -13 -76 -21 -113c-7 -35 -15 -68 -23 -101l-24 -111l-3 -11c-3 -7 -9 -11 -16 -12c-20 0 -40 -1 -59 -2c-19 0 -38 -1 -57 -1c-5 -1 -11 0 -17 2c-8 2 -12 7 -11 14
c1 12 3 24 6 36c5 29 12 57 17 85c3 15 4 28 7 41c3 17 8 34 11 51l26 146c3 12 4 24 7 36c7 23 11 47 14 70c3 28 8 56 13 84l21 113l13 60c0 3 1 3 1 6c5 17 10 20 26 20c20 -1 40 0 60 3c16 1 33 -1 50 -2c10 -1 15 -7 15 -18v-1v-26zM151 277h1v38l-2 90c0 4 -1 8 -1 12
c-2 10 -7 14 -16 11c-19 -5 -38 -10 -57 -17l-12 -3c-11 -3 -18 2 -21 13l-8 42c-3 12 -5 25 -9 37c-2 9 0 16 7 22c21 19 43 38 64 58c23 23 42 45 65 68c8 9 17 13 27 12l57 -2c13 -1 19 -7 19 -20l2 -74l6 -78l2 -54c1 -16 3 -32 3 -48c1 -11 1 -20 1 -31v-8
c0 -15 -1 -29 0 -44c0 -36 -3 -71 -7 -106c0 -4 0 -7 -1 -8c-3 -13 -10 -20 -23 -20l-58 -3c-5 0 -11 -1 -16 -1c-13 0 -19 6 -20 19zM678 504h22c17 -1 34 -1 51 -4c7 0 12 -4 13 -12c1 -11 1 -19 1 -30c0 -8 -1 -16 -1 -24c-3 -23 -2 -43 -5 -66c0 -7 -1 -10 -1 -17
c-3 -19 -3 -36 -4 -53l-2 -43c0 -11 6 -17 17 -16c7 0 14 1 21 2c5 0 11 1 16 1c10 1 15 6 16 15c1 11 1 18 1 29v38c0 14 6 21 19 22c25 4 49 0 76 -4c15 -1 20 -11 20 -24l2 -50c1 -13 4 -16 17 -20c5 -1 10 -3 14 -6c7 -5 6 -13 6 -20c0 -16 -1 -31 -2 -47
c0 -13 -1 -26 -2 -38c0 -5 0 -9 -1 -12c-2 -9 -7 -14 -16 -14c-15 -1 -15 -2 -18 -17l-2 -33c-3 -19 -4 -38 -7 -58v-3c-4 -17 -10 -24 -29 -25c-13 -1 -26 1 -39 1c-7 0 -13 1 -20 1h-13c-14 1 -21 8 -20 22c1 25 2 51 5 76c0 9 1 17 1 25c-1 8 -5 12 -14 13
c-7 0 -13 -1 -20 0c-19 0 -38 1 -57 1c-17 0 -35 -1 -52 -1c-11 0 -20 -1 -29 2c-13 1 -19 8 -19 21c-1 31 -2 61 -7 92c-3 12 -1 24 -1 36c0 27 0 53 1 80c0 16 2 31 3 46c3 28 4 56 7 84c0 7 1 11 2 16c1 9 7 14 16 14c11 1 23 0 34 0z" />
    <glyph glyph-name="onehalf" unicode="&#xbd;" horiz-adv-x="930" 
d="M583 654h1c-3 -28 -3 -55 -6 -83c-4 -53 -17 -105 -28 -157c-9 -43 -15 -86 -23 -129c-7 -39 -13 -76 -21 -113c-7 -35 -15 -68 -23 -101l-24 -111l-3 -11c-3 -7 -9 -11 -16 -12c-20 0 -40 -1 -59 -2c-19 0 -38 -1 -57 -1c-5 -1 -11 0 -17 2c-8 2 -12 7 -11 14
c1 12 3 24 6 36c5 29 12 57 17 85c3 15 4 28 7 41c3 17 8 34 11 51l26 146c3 12 4 24 7 36c7 23 11 47 14 70c3 28 8 56 13 84l21 113l13 60c0 3 1 3 1 6c5 17 10 20 26 20c20 -1 40 0 60 3c16 1 33 -1 50 -2c10 -1 15 -7 15 -18v-1v-26zM797 149l11 -3h17
c15 -1 31 -1 47 -4c9 -1 18 -3 27 -6c10 -3 15 -10 15 -21c1 -15 2 -28 1 -43c0 -20 -1 -41 -4 -61c0 -3 -1 -4 -1 -7c-3 -8 -8 -12 -16 -11l-36 4c-1 1 -4 1 -7 1c-41 1 -82 2 -123 2c-15 0 -31 -2 -46 -3c-20 -1 -40 -2 -60 -2c-11 -1 -17 5 -17 17v51c0 7 -1 15 -1 22
s0 11 1 18l6 33c2 7 7 13 14 16c12 7 22 10 33 17l31 19c11 7 22 16 31 27c5 7 11 12 16 20c17 24 28 50 25 81c-3 27 -19 41 -42 48c-7 3 -13 3 -20 4c-16 0 -33 5 -50 1c-3 -1 -7 0 -10 0c-11 2 -17 8 -17 19v41l-2 50c-1 15 1 19 16 22c37 5 73 8 112 5
c35 -4 69 -14 98 -38c24 -20 39 -46 44 -77c4 -25 3 -50 2 -74c0 -3 0 -5 -1 -6c-7 -23 -12 -44 -21 -65c-13 -31 -33 -56 -58 -77c-9 -7 -11 -9 -15 -20zM151 277h1v38l-2 90c0 4 -1 8 -1 12c-2 10 -7 14 -16 11c-19 -5 -38 -10 -57 -17l-12 -3c-11 -3 -18 2 -21 13l-8 42
c-3 12 -5 25 -9 37c-2 9 0 16 7 22c21 19 43 38 64 58c23 23 42 45 65 68c8 9 17 13 27 12l57 -2c13 -1 19 -7 19 -20l2 -74l6 -78l2 -54c1 -16 3 -32 3 -48c1 -11 1 -20 1 -31v-8c0 -15 -1 -29 0 -44c0 -36 -3 -71 -7 -106c0 -4 0 -7 -1 -8c-3 -13 -10 -20 -23 -20l-58 -3
c-5 0 -11 -1 -16 -1c-13 0 -19 6 -20 19z" />
    <glyph glyph-name="threequarters" unicode="&#xbe;" horiz-adv-x="1020" 
d="M600 654h1c-3 -28 -3 -55 -6 -83c-4 -53 -17 -105 -28 -157c-9 -43 -15 -86 -23 -129c-7 -39 -13 -76 -21 -113c-7 -35 -15 -68 -23 -101l-24 -111l-3 -11c-3 -7 -9 -11 -16 -12c-20 0 -40 -1 -59 -2c-19 0 -38 -1 -57 -1c-5 -1 -11 0 -17 2c-8 2 -12 7 -11 14
c1 12 3 24 6 36c5 29 12 57 17 85c3 15 4 28 7 41c3 17 8 34 11 51l26 146c3 12 4 24 7 36c7 23 11 47 14 70c3 28 8 56 13 84l21 113l13 60c0 3 1 3 1 6c5 17 10 20 26 20c20 -1 40 0 60 3c16 1 33 -1 50 -2c10 -1 15 -7 15 -18v-1v-26zM695 504h22c17 -1 34 -1 51 -4
c7 0 12 -4 13 -12c1 -11 1 -19 1 -30c0 -8 -1 -16 -1 -24c-3 -23 -2 -43 -5 -66c0 -7 -1 -10 -1 -17c-3 -19 -3 -36 -4 -53l-2 -43c0 -11 6 -17 17 -16c7 0 14 1 21 2c5 0 11 1 16 1c10 1 15 6 16 15c1 11 1 18 1 29v38c0 14 6 21 19 22c25 4 49 0 76 -4
c15 -1 20 -11 20 -24l2 -50c1 -13 4 -16 17 -20c5 -1 10 -3 14 -6c7 -5 6 -13 6 -20c0 -16 -1 -31 -2 -47c0 -13 -1 -26 -2 -38c0 -5 0 -9 -1 -12c-2 -9 -7 -14 -16 -14c-15 -1 -15 -2 -18 -17l-2 -33c-3 -19 -4 -38 -7 -58v-3c-4 -17 -10 -24 -29 -25c-13 -1 -26 1 -39 1
c-7 0 -13 1 -20 1h-13c-14 1 -21 8 -20 22c1 25 2 51 5 76c0 9 1 17 1 25c-1 8 -5 12 -14 13c-7 0 -13 -1 -20 0c-19 0 -38 1 -57 1c-17 0 -35 -1 -52 -1c-11 0 -20 -1 -29 2c-13 1 -19 8 -19 21c-1 31 -2 61 -7 92c-3 12 -1 24 -1 36c0 27 0 53 1 80c0 16 2 31 3 46
c3 28 4 56 7 84c0 7 1 11 2 16c1 9 7 14 16 14c11 1 23 0 34 0zM298 510h1l-2 -32c-3 -28 -17 -50 -36 -70l-15 -14c-9 -11 -10 -14 1 -22c7 -5 13 -10 18 -15c35 -31 49 -69 37 -114c-4 -17 -13 -32 -20 -48c-9 -19 -21 -32 -34 -47c-16 -17 -36 -25 -59 -29
c-16 -4 -34 -5 -53 -4c-28 3 -56 3 -81 18l-3 2c-15 6 -21 17 -19 34l8 58c2 9 8 14 18 13c7 0 13 -2 20 -3c31 -3 58 7 78 32c5 7 6 15 1 24c-7 14 -19 24 -36 29c-8 4 -17 6 -26 9c-15 5 -19 11 -18 27c1 19 1 35 4 54c1 19 6 20 21 23c7 3 14 2 21 3c15 3 26 9 34 17
c13 13 17 33 6 49c-7 11 -15 19 -25 22c-27 9 -53 17 -81 16c-7 0 -13 -1 -20 -1c-11 0 -17 6 -18 17c-3 19 -2 39 -3 59v21c0 10 5 17 16 20c12 5 24 8 37 9c15 0 30 2 45 3c11 0 23 -1 34 -2c16 -3 32 -6 48 -11c19 -6 35 -15 48 -28c19 -17 34 -37 43 -62
c7 -15 8 -29 9 -44c1 -3 1 -8 1 -13z" />
    <glyph glyph-name="questiondown" unicode="&#xbf;" horiz-adv-x="481" 
d="M19 233v14c-3 27 8 49 20 70c19 31 42 52 73 69c7 4 14 8 21 13c13 9 20 21 20 38c0 20 -1 40 -2 60v7c0 11 11 18 19 15c23 -3 43 -7 64 -10c23 -3 45 -7 68 -7c13 -1 26 -4 41 -7c7 -2 12 -8 13 -18c3 -17 0 -33 -3 -49c-3 -11 -4 -22 -7 -33c-11 -31 -32 -49 -60 -61
c-21 -9 -42 -17 -62 -26c-13 -7 -27 -15 -39 -24c-16 -12 -24 -29 -24 -52c1 -23 10 -42 27 -55c11 -9 25 -12 40 -11s29 4 44 11c16 7 25 21 27 40c3 15 2 29 5 44c0 5 1 10 1 15c2 9 8 14 17 13c11 0 18 -3 29 -3c19 -3 36 -2 55 -5l36 -3c12 -1 18 -8 17 -21
c-1 -51 -8 -97 -27 -144c-12 -28 -26 -55 -47 -78c-14 -15 -30 -26 -49 -33c-15 -7 -31 -12 -47 -16c-17 -5 -35 -7 -55 -5l-38 2c-15 1 -28 5 -41 12c-7 4 -14 7 -21 10c-15 7 -31 18 -46 32c-28 25 -45 57 -56 93c-9 35 -14 68 -13 103zM202 547c-7 0 -15 0 -23 1
c-11 2 -17 8 -18 18l-3 31l-10 70c0 5 0 9 1 11c1 5 4 9 11 10c4 0 8 1 12 0c31 -5 58 -2 89 1c7 1 15 0 22 0c9 0 17 -1 25 -2c19 0 25 -8 26 -21c3 -15 3 -26 4 -41c1 -13 1 -26 1 -39c1 -13 -5 -21 -18 -23c-32 -5 -64 -10 -96 -14c-7 -1 -14 -2 -23 -2z" />
    <glyph glyph-name="Agrave" unicode="&#xc0;" horiz-adv-x="498" 
d="M210 647v-3c25 3 50 4 75 7c3 0 5 1 8 1c21 -1 42 -3 63 -7c11 -3 21 -3 32 -6c12 -3 19 -11 21 -24c7 -31 11 -61 16 -92c7 -41 12 -81 19 -121c4 -29 7 -58 10 -86c3 -23 2 -46 5 -69c4 -37 6 -74 7 -110c3 -31 -1 -62 -2 -93c0 -11 -6 -16 -17 -16c-19 -1 -38 0 -57 3
l-45 8l-7 2c-10 3 -15 10 -15 20l-2 49c-3 28 -4 56 -7 84c-1 5 0 9 0 14c-1 13 -7 19 -20 19c-11 0 -19 0 -30 -1c-17 -3 -35 -3 -52 -6c-11 -1 -13 -4 -16 -15l-8 -48c-4 -20 -5 -41 -9 -62c-5 -24 -8 -48 -11 -73c-3 -12 -7 -15 -20 -18l-48 -9c-3 0 -4 -1 -7 -1
c-19 -1 -35 -2 -54 -2c-11 0 -16 5 -15 16c1 13 3 26 6 41l9 50l13 80l11 66c7 40 14 79 22 118c9 48 17 95 28 143l13 55c4 19 6 37 10 56v4c3 16 9 18 22 21c17 3 35 2 52 5zM307 366v14v1c0 11 -1 22 -2 33l-8 86l-3 24c-2 7 -6 11 -12 12c-5 0 -9 1 -14 1
c-19 1 -21 -1 -24 -20l-16 -87c-4 -23 -8 -43 -11 -64c-4 -20 2 -25 22 -21c13 3 26 2 39 5l16 2c9 1 13 5 13 14zM162 896c11 -3 22 -3 37 -6l56 -8c9 -1 15 -6 18 -16l9 -45c8 -31 16 -62 23 -93c1 -5 2 -9 2 -10c2 -10 -2 -16 -12 -18l-56 -9c-15 -3 -21 -1 -32 14
l-86 140c-5 8 -10 15 -14 23c-8 13 -5 21 10 24l5 2c12 0 24 1 40 2z" />
    <glyph glyph-name="Aacute" unicode="&#xc1;" horiz-adv-x="498" 
d="M210 644v3c-17 -3 -35 -2 -52 -5c-13 -3 -19 -5 -22 -21v-4c-4 -19 -6 -37 -10 -56l-13 -55c-11 -48 -19 -95 -28 -143c-8 -39 -15 -78 -22 -118l-11 -66l-13 -80l-9 -50c-3 -15 -5 -28 -6 -41c-1 -11 4 -16 15 -16c19 0 35 1 54 2c3 0 4 1 7 1l48 9c13 3 17 6 20 18
c3 25 6 49 11 73c4 21 5 42 9 62l8 48c3 11 5 14 16 15c17 3 35 3 52 6c11 1 19 1 30 1c13 0 19 -6 20 -19c0 -5 -1 -9 0 -14c3 -28 4 -56 7 -84l2 -49c0 -10 5 -17 15 -20l7 -2l45 -8c19 -3 38 -4 57 -3c11 0 17 5 17 16c1 31 5 62 2 93c-1 36 -3 73 -7 110
c-3 23 -2 46 -5 69c-3 28 -6 57 -10 86c-7 40 -12 80 -19 121c-5 31 -9 61 -16 92c-2 13 -9 21 -21 24c-11 3 -21 3 -32 6c-21 4 -42 6 -63 7c-3 0 -5 -1 -8 -1c-25 -3 -50 -4 -75 -7zM307 380v-14c0 -9 -4 -13 -13 -14l-16 -2c-13 -3 -26 -2 -39 -5c-20 -4 -26 1 -22 21
c3 21 7 41 11 64l16 87c3 19 5 21 24 20c5 0 9 -1 14 -1c6 -1 10 -5 12 -12l3 -24l8 -86c1 -11 2 -22 2 -33v-1zM357 901c16 -1 28 -2 40 -2l5 -2c15 -3 18 -11 10 -24c-4 -8 -9 -15 -14 -23l-86 -140c-11 -15 -17 -17 -32 -14l-56 9c-10 2 -14 8 -12 18c0 1 1 5 2 10
c7 31 15 62 23 93l9 45c3 10 9 15 18 16l56 8c15 3 26 3 37 6z" />
    <glyph glyph-name="Acircumflex" unicode="&#xc2;" horiz-adv-x="498" 
d="M210 647v-3c25 3 50 4 75 7c3 0 5 1 8 1c21 -1 42 -3 63 -7c11 -3 21 -3 32 -6c12 -3 19 -11 21 -24c7 -31 11 -61 16 -92c7 -41 12 -81 19 -121c4 -29 7 -58 10 -86c3 -23 2 -46 5 -69c4 -37 6 -74 7 -110c3 -31 -1 -62 -2 -93c0 -11 -6 -16 -17 -16c-19 -1 -38 0 -57 3
l-45 8l-7 2c-10 3 -15 10 -15 20l-2 49c-3 28 -4 56 -7 84c-1 5 0 9 0 14c-1 13 -7 19 -20 19c-11 0 -19 0 -30 -1c-17 -3 -35 -3 -52 -6c-11 -1 -13 -4 -16 -15l-8 -48c-4 -20 -5 -41 -9 -62c-5 -24 -8 -48 -11 -73c-3 -12 -7 -15 -20 -18l-48 -9c-3 0 -4 -1 -7 -1
c-19 -1 -35 -2 -54 -2c-11 0 -16 5 -15 16c1 13 3 26 6 41l9 50l13 80l11 66c7 40 14 79 22 118c9 48 17 95 28 143l13 55c4 19 6 37 10 56v4c3 16 9 18 22 21c17 3 35 2 52 5zM307 366v14v1c0 11 -1 22 -2 33l-8 86l-3 24c-2 7 -6 11 -12 12c-5 0 -9 1 -14 1
c-19 1 -21 -1 -24 -20l-16 -87c-4 -23 -8 -43 -11 -64c-4 -20 2 -25 22 -21c13 3 26 2 39 5l16 2c9 1 13 5 13 14zM305 910v-1c8 0 15 -1 23 -1c11 0 20 -5 27 -16c20 -33 33 -68 48 -103c4 -11 9 -19 12 -30c7 -15 11 -28 18 -43c6 -15 2 -23 -13 -24l-32 -2
c-20 -1 -39 0 -58 -3c-11 -1 -19 3 -23 13c-4 8 -9 16 -13 25c-11 19 -20 38 -31 58l-6 7c-5 5 -9 5 -11 -1c-7 -10 -11 -19 -14 -28l-19 -54c-3 -10 -10 -15 -21 -15c-25 1 -50 3 -77 3c-7 1 -11 0 -18 1s-10 6 -10 15c1 4 1 9 4 13c13 31 22 62 31 93c9 27 22 48 38 71
c3 5 9 10 17 13c19 4 36 7 56 7c11 0 24 2 35 2h37z" />
    <glyph glyph-name="Atilde" unicode="&#xc3;" horiz-adv-x="498" 
d="M210 647v-3c25 3 50 4 75 7c3 0 5 1 8 1c21 -1 42 -3 63 -7c11 -3 21 -3 32 -6c12 -3 19 -11 21 -24c7 -31 11 -61 16 -92c7 -41 12 -81 19 -121c4 -29 7 -58 10 -86c3 -23 2 -46 5 -69c4 -37 6 -74 7 -110c3 -31 -1 -62 -2 -93c0 -11 -6 -16 -17 -16c-19 -1 -38 0 -57 3
l-45 8l-7 2c-10 3 -15 10 -15 20l-2 49c-3 28 -4 56 -7 84c-1 5 0 9 0 14c-1 13 -7 19 -20 19c-11 0 -19 0 -30 -1c-17 -3 -35 -3 -52 -6c-11 -1 -13 -4 -16 -15l-8 -48c-4 -20 -5 -41 -9 -62c-5 -24 -8 -48 -11 -73c-3 -12 -7 -15 -20 -18l-48 -9c-3 0 -4 -1 -7 -1
c-19 -1 -35 -2 -54 -2c-11 0 -16 5 -15 16c1 13 3 26 6 41l9 50l13 80l11 66c7 40 14 79 22 118c9 48 17 95 28 143l13 55c4 19 6 37 10 56v4c3 16 9 18 22 21c17 3 35 2 52 5zM307 366v14v1c0 11 -1 22 -2 33l-8 86l-3 24c-2 7 -6 11 -12 12c-5 0 -9 1 -14 1
c-19 1 -21 -1 -24 -20l-16 -87c-4 -23 -8 -43 -11 -64c-4 -20 2 -25 22 -21c13 3 26 2 39 5l16 2c9 1 13 5 13 14zM404 922l55 -3c11 -1 17 -7 17 -18c0 -25 -1 -50 -2 -75c0 -23 -5 -47 -16 -70c-3 -7 -7 -13 -12 -18c-20 -24 -47 -35 -75 -42c-3 -1 -8 -3 -15 -4
c-23 -8 -42 -5 -65 0c-29 7 -48 23 -60 50c-7 13 -12 26 -19 38c-3 7 -7 11 -12 14c-11 7 -18 3 -21 -9c-2 -9 -3 -19 -3 -28c0 -8 2 -16 3 -23c1 -10 -3 -16 -12 -17c-16 -3 -32 -3 -48 -4h-52c-8 0 -13 4 -15 11c-2 5 -3 9 -3 14c-3 24 -9 48 -8 73c0 23 7 43 21 60
c17 21 39 34 65 40c8 3 18 3 27 3c15 -1 30 0 46 1c21 1 38 -7 55 -19c17 -15 26 -33 33 -54c3 -7 4 -13 7 -20l3 -10c7 -15 24 -15 32 -2c7 12 13 25 14 40v53c0 11 2 15 14 16c12 3 24 2 37 2h8z" />
    <glyph glyph-name="Adieresis" unicode="&#xc4;" horiz-adv-x="498" 
d="M210 647v-3c25 3 50 4 75 7c3 0 5 1 8 1c21 -1 42 -3 63 -7c11 -3 21 -3 32 -6c12 -3 19 -11 21 -24c7 -31 11 -61 16 -92c7 -41 12 -81 19 -121c4 -29 7 -58 10 -86c3 -23 2 -46 5 -69c4 -37 6 -74 7 -110c3 -31 -1 -62 -2 -93c0 -11 -6 -16 -17 -16c-19 -1 -38 0 -57 3
l-45 8l-7 2c-10 3 -15 10 -15 20l-2 49c-3 28 -4 56 -7 84c-1 5 0 9 0 14c-1 13 -7 19 -20 19c-11 0 -19 0 -30 -1c-17 -3 -35 -3 -52 -6c-11 -1 -13 -4 -16 -15l-8 -48c-4 -20 -5 -41 -9 -62c-5 -24 -8 -48 -11 -73c-3 -12 -7 -15 -20 -18l-48 -9c-3 0 -4 -1 -7 -1
c-19 -1 -35 -2 -54 -2c-11 0 -16 5 -15 16c1 13 3 26 6 41l9 50l13 80l11 66c7 40 14 79 22 118c9 48 17 95 28 143l13 55c4 19 6 37 10 56v4c3 16 9 18 22 21c17 3 35 2 52 5zM307 366v14v1c0 11 -1 22 -2 33l-8 86l-3 24c-2 7 -6 11 -12 12c-5 0 -9 1 -14 1
c-19 1 -21 -1 -24 -20l-16 -87c-4 -23 -8 -43 -11 -64c-4 -20 2 -25 22 -21c13 3 26 2 39 5l16 2c9 1 13 5 13 14zM283 762c3 19 1 33 4 49c3 15 8 21 24 22l84 4c11 1 18 -5 21 -17c8 -28 10 -58 7 -89l-2 -17c-2 -11 -7 -16 -16 -17c-8 -1 -16 -3 -25 -3
c-16 -3 -33 -4 -49 -4c-9 -1 -17 1 -26 2c-9 2 -15 8 -16 18c-3 19 -3 37 -6 52zM97 765v44c0 15 3 21 18 24c13 3 25 5 38 6c16 1 32 1 48 -3c11 -3 16 -10 16 -21c0 -12 0 -25 -1 -38c0 -19 -1 -36 -2 -55c0 -3 1 -5 0 -8c0 -13 -6 -20 -19 -20c-15 0 -28 1 -43 1
c-12 0 -24 -1 -36 -2c-11 -1 -16 3 -17 12c-3 15 -2 30 -3 45c0 5 1 10 1 15z" />
    <glyph glyph-name="Aring" unicode="&#xc5;" horiz-adv-x="498" 
d="M278 864c35 1 59 -10 80 -30c7 -7 11 -11 18 -16c13 -10 23 -23 29 -38c11 -27 17 -52 20 -79c3 -19 0 -38 -7 -59c-3 -4 -2 -8 -5 -12c-2 -8 -3 -15 -2 -22c7 -33 10 -65 17 -98c7 -36 12 -72 17 -109c4 -28 7 -57 9 -86c3 -23 3 -46 6 -69c3 -37 4 -73 7 -110
c1 -31 -2 -61 -3 -92c0 -9 -6 -15 -17 -16c-20 0 -39 1 -59 4l-43 8c-1 0 -3 1 -6 2c-12 3 -15 8 -16 20c0 16 -1 33 -2 50c-3 27 -4 55 -7 82v14c-1 13 -7 19 -20 19c-9 0 -18 0 -29 -1c-18 -1 -35 -3 -52 -6c-12 -1 -14 -4 -17 -15l-9 -57c-4 -27 -6 -55 -13 -82
c-3 -13 -3 -26 -6 -41s-5 -18 -21 -21l-47 -9c-3 0 -7 -1 -11 -1l-47 -2c-13 0 -19 6 -18 19s3 26 6 39l9 49c5 27 9 52 13 79l12 68l21 117c9 49 18 97 29 146c3 19 8 34 13 53l4 22c2 8 1 15 -4 22s-8 13 -11 20c-19 37 -25 76 -18 117c3 23 13 42 29 58
c11 11 19 19 30 28c17 15 35 23 54 26c24 4 48 9 67 9zM307 367v13h1l-2 34l-11 104c0 3 -1 6 -1 9c-3 5 -6 8 -9 8c-11 1 -18 2 -29 2c-5 1 -8 -1 -9 -6c-1 -4 -2 -7 -2 -9c-8 -44 -17 -88 -24 -132c-3 -11 -4 -22 -4 -33c-1 -11 3 -13 14 -13c3 0 4 1 7 1l21 4l35 3
c9 1 13 6 13 15zM308 692l-2 10c-5 23 -19 39 -44 46c-15 7 -33 -4 -37 -19c-3 -11 -2 -21 3 -31c9 -15 19 -25 32 -32c19 -11 48 -3 48 26z" />
    <glyph glyph-name="AE" unicode="&#xc6;" horiz-adv-x="723" 
d="M288 649h36c23 0 42 1 65 0c20 -1 40 -4 60 -5c11 -1 23 1 35 2c9 0 18 2 26 1c13 -3 25 0 40 0c19 1 39 2 58 2c11 0 21 -1 32 -2c8 0 13 -5 14 -14c1 -8 2 -16 2 -25c1 -23 1 -47 0 -71c0 -11 -1 -23 -4 -34c-1 -9 -7 -14 -17 -14l-38 3c-9 1 -17 1 -25 1
c-13 0 -25 -1 -38 -2c-15 0 -18 -3 -19 -18c0 -13 1 -25 1 -38l3 -60c1 -19 6 -22 23 -18c23 4 45 8 68 13c13 3 27 4 41 3c9 0 15 -4 17 -12c3 -8 2 -16 5 -25c4 -24 1 -49 1 -73c0 -9 -5 -15 -14 -17l-37 -8c-20 -4 -40 -8 -60 -11l-27 -6c-6 -1 -9 -4 -9 -8
c-1 -12 -1 -24 0 -36c0 -9 4 -13 13 -11c23 5 44 2 65 1s42 -3 63 -6h12c11 0 18 -6 19 -18c1 -13 2 -26 2 -39c0 -24 0 -47 -1 -71c0 -9 -5 -14 -14 -15l-60 -6l-32 -4c-11 0 -22 -1 -33 -1c-17 0 -33 1 -49 0c-27 0 -54 -1 -81 -2c-16 -1 -32 -2 -47 -5
c-11 -1 -17 3 -17 14c-1 35 1 67 5 102c1 18 1 36 0 55c0 9 -5 13 -14 13l-47 -4l-48 -3c-8 0 -17 -1 -26 -1c-7 -1 -11 -4 -13 -11l-9 -38c-5 -23 -10 -45 -14 -68l-4 -15c-2 -11 -9 -17 -21 -18l-68 -8c-12 -1 -24 1 -37 2l-35 3c-11 1 -15 9 -15 17c0 5 1 10 2 17
c9 47 19 93 27 140c5 27 11 51 18 76c11 37 19 73 28 110l20 73c11 43 19 86 28 130c3 14 9 26 16 36c6 8 14 13 24 15l68 12c12 1 24 0 36 0zM368 352v89h1v20c0 3 -1 6 -1 9c-2 7 -6 10 -12 10c-5 0 -8 0 -11 -1c-15 -3 -31 -4 -46 -7c-16 -4 -19 -8 -22 -24l-8 -51
l-8 -63c-1 -7 3 -12 11 -13c4 0 8 1 13 1c19 3 38 6 57 5h12c7 1 11 5 12 11c1 7 2 11 2 14z" />
    <glyph glyph-name="Ccedilla" unicode="&#xc7;" horiz-adv-x="397" 
d="M162 341c-1 -43 11 -84 35 -121c10 -15 23 -28 38 -38c15 -9 31 -14 46 -16c20 -3 39 -6 58 -10c15 -3 18 -8 17 -23c-1 -7 -1 -11 -1 -18v-79v-12c-3 -13 -8 -20 -24 -19c-19 1 -35 2 -54 5h-4c-19 1 -20 -4 -20 -20v-2c1 -16 5 -20 21 -21c7 0 13 -1 20 -1
c23 -1 37 -13 50 -28c23 -27 30 -56 33 -88c3 -33 -9 -60 -28 -85c-19 -24 -41 -45 -70 -57c-21 -9 -43 -16 -66 -16c-19 0 -38 -1 -57 3l-12 2c-9 3 -13 9 -13 17l-3 65v8c2 11 9 17 21 17c8 1 17 0 25 -1c31 -1 56 11 77 36c8 10 9 20 3 31c-3 9 -9 13 -18 13
c-17 0 -34 0 -50 -1c-13 0 -25 -2 -38 -3s-18 2 -19 17c-3 25 -1 50 0 77c0 16 -2 31 -2 47c0 8 -1 16 0 24c2 10 -1 18 -10 24c-19 13 -32 29 -45 46c-15 20 -25 40 -32 61c-8 28 -14 56 -17 85c-3 27 -1 52 2 79c3 20 5 41 10 61c10 46 27 88 52 126l21 26
c27 31 59 52 98 68c19 7 38 15 59 16c19 1 39 5 58 1c13 -3 22 -8 29 -14c6 -4 9 -10 9 -18c-3 -13 -3 -26 -4 -39l-12 -77c-3 -15 -5 -16 -20 -19c-8 -1 -16 -1 -24 0c-20 1 -38 -1 -53 -8c-11 -3 -19 -7 -28 -11c-33 -15 -51 -38 -55 -71c-3 -13 -2 -26 -3 -39z" />
    <glyph glyph-name="Egrave" unicode="&#xc8;" horiz-adv-x="378" 
d="M33 88h1l3 122c0 23 1 42 4 65c0 7 -1 14 0 21c0 25 1 49 2 74c0 15 2 28 3 43l2 44c1 23 1 44 4 67c1 19 0 37 3 56l3 53l2 8c3 13 10 19 22 19c19 3 39 2 59 2c11 0 23 -1 35 -3h13c15 -1 28 -2 43 -2c13 0 25 2 38 1c19 0 38 -1 57 -1c8 -1 13 -6 14 -13v-4
c0 -35 1 -68 1 -103c0 -12 -6 -19 -17 -21c-19 -3 -38 -4 -55 -2c-17 1 -35 -2 -54 -7c-7 -2 -10 -7 -10 -14c0 -9 1 -18 1 -27l3 -30l2 -7c2 -10 8 -14 17 -12c19 4 38 2 57 -1c11 -1 21 0 32 -3c11 -2 16 -9 17 -20c3 -24 4 -48 5 -71v-14c0 -11 -5 -16 -14 -17
c-12 -3 -25 -3 -38 -4c-17 -3 -35 -3 -52 -4c-9 0 -17 0 -26 -1c-15 -1 -18 -5 -18 -20l4 -63c0 -5 0 -9 1 -11c1 -10 6 -15 15 -15c17 -1 35 -2 52 -2l46 -2c13 0 20 -7 21 -21v-1l2 -107v-6c0 -13 -6 -20 -19 -20c-28 1 -56 0 -84 3l-93 9c-7 1 -14 0 -22 0l-61 2
c-11 1 -17 7 -18 16zM93 904c11 -3 22 -3 37 -6l56 -8c9 -1 15 -6 18 -16l9 -45c8 -31 16 -62 23 -93c1 -5 2 -9 2 -10c2 -10 -2 -16 -12 -18l-56 -9c-15 -3 -21 -1 -32 14l-86 140c-5 8 -10 15 -14 23c-8 13 -5 21 10 24l5 2c12 0 24 1 40 2z" />
    <glyph glyph-name="Eacute" unicode="&#xc9;" horiz-adv-x="378" 
d="M34 88h-1l3 -44c1 -9 7 -15 18 -16l61 -2c8 0 15 1 22 0l93 -9c28 -3 56 -2 84 -3c13 0 19 7 19 20v6l-2 107v1c-1 14 -8 21 -21 21l-46 2c-17 0 -35 1 -52 2c-9 0 -14 5 -15 15c-1 2 -1 6 -1 11l-4 63c0 15 3 19 18 20c9 1 17 1 26 1c17 1 35 1 52 4c13 1 26 1 38 4
c9 1 14 6 14 17v14c-1 23 -2 47 -5 71c-1 11 -6 18 -17 20c-11 3 -21 2 -32 3c-19 3 -38 5 -57 1c-9 -2 -15 2 -17 12l-2 7l-3 30c0 9 -1 18 -1 27c0 7 3 12 10 14c19 5 37 8 54 7c17 -2 36 -1 55 2c11 2 17 9 17 21c0 35 -1 68 -1 103v4c-1 7 -6 12 -14 13
c-19 0 -38 1 -57 1c-13 1 -25 -1 -38 -1c-15 0 -28 1 -43 2h-13c-12 2 -24 3 -35 3c-20 0 -40 1 -59 -2c-12 0 -19 -6 -22 -19l-2 -8l-3 -53c-3 -19 -2 -37 -3 -56c-3 -23 -3 -44 -4 -67l-2 -44c-1 -15 -3 -28 -3 -43c-1 -25 -2 -49 -2 -74c-1 -7 0 -14 0 -21
c-3 -23 -4 -42 -4 -65zM299 913c16 -1 28 -2 40 -2l5 -2c15 -3 18 -11 10 -24c-4 -8 -9 -15 -14 -23l-86 -140c-11 -15 -17 -17 -32 -14l-56 9c-10 2 -14 8 -12 18c0 1 1 5 2 10c7 31 15 62 23 93l9 45c3 10 9 15 18 16l56 8c15 3 26 3 37 6z" />
    <glyph glyph-name="Ecircumflex" unicode="&#xca;" horiz-adv-x="378" 
d="M33 88h1l3 122c0 23 1 42 4 65c0 7 -1 14 0 21c0 25 1 49 2 74c0 15 2 28 3 43l2 44c1 23 1 44 4 67c1 19 0 37 3 56l3 53l2 8c3 13 10 19 22 19c19 3 39 2 59 2c11 0 23 -1 35 -3h13c15 -1 28 -2 43 -2c13 0 25 2 38 1c19 0 38 -1 57 -1c8 -1 13 -6 14 -13v-4
c0 -35 1 -68 1 -103c0 -12 -6 -19 -17 -21c-19 -3 -38 -4 -55 -2c-17 1 -35 -2 -54 -7c-7 -2 -10 -7 -10 -14c0 -9 1 -18 1 -27l3 -30l2 -7c2 -10 8 -14 17 -12c19 4 38 2 57 -1c11 -1 21 0 32 -3c11 -2 16 -9 17 -20c3 -24 4 -48 5 -71v-14c0 -11 -5 -16 -14 -17
c-12 -3 -25 -3 -38 -4c-17 -3 -35 -3 -52 -4c-9 0 -17 0 -26 -1c-15 -1 -18 -5 -18 -20l4 -63c0 -5 0 -9 1 -11c1 -10 6 -15 15 -15c17 -1 35 -2 52 -2l46 -2c13 0 20 -7 21 -21v-1l2 -107v-6c0 -13 -6 -20 -19 -20c-28 1 -56 0 -84 3l-93 9c-7 1 -14 0 -22 0l-61 2
c-11 1 -17 7 -18 16zM237 912v-1c8 0 15 -1 23 -1c11 0 20 -5 27 -16c20 -33 33 -68 48 -103c4 -11 9 -19 12 -30c7 -15 11 -28 18 -43c6 -15 2 -23 -13 -24l-32 -2c-20 -1 -39 0 -58 -3c-11 -1 -19 3 -23 13c-4 8 -9 16 -13 25c-11 19 -20 38 -31 58l-6 7c-5 5 -9 5 -11 -1
c-7 -10 -11 -19 -14 -28l-19 -54c-3 -10 -10 -15 -21 -15c-25 1 -50 3 -77 3c-7 1 -11 0 -18 1s-10 6 -10 15c1 4 1 9 4 13c13 31 22 62 31 93c9 27 22 48 38 71c3 5 9 10 17 13c19 4 36 7 56 7c11 0 24 2 35 2h37z" />
    <glyph glyph-name="Edieresis" unicode="&#xcb;" horiz-adv-x="378" 
d="M33 88h1l3 122c0 23 1 42 4 65c0 7 -1 14 0 21c0 25 1 49 2 74c0 15 2 28 3 43l2 44c1 23 1 44 4 67c1 19 0 37 3 56l3 53l2 8c3 13 10 19 22 19c19 3 39 2 59 2c11 0 23 -1 35 -3h13c15 -1 28 -2 43 -2c13 0 25 2 38 1c19 0 38 -1 57 -1c8 -1 13 -6 14 -13v-4
c0 -35 1 -68 1 -103c0 -12 -6 -19 -17 -21c-19 -3 -38 -4 -55 -2c-17 1 -35 -2 -54 -7c-7 -2 -10 -7 -10 -14c0 -9 1 -18 1 -27l3 -30l2 -7c2 -10 8 -14 17 -12c19 4 38 2 57 -1c11 -1 21 0 32 -3c11 -2 16 -9 17 -20c3 -24 4 -48 5 -71v-14c0 -11 -5 -16 -14 -17
c-12 -3 -25 -3 -38 -4c-17 -3 -35 -3 -52 -4c-9 0 -17 0 -26 -1c-15 -1 -18 -5 -18 -20l4 -63c0 -5 0 -9 1 -11c1 -10 6 -15 15 -15c17 -1 35 -2 52 -2l46 -2c13 0 20 -7 21 -21v-1l2 -107v-6c0 -13 -6 -20 -19 -20c-28 1 -56 0 -84 3l-93 9c-7 1 -14 0 -22 0l-61 2
c-11 1 -17 7 -18 16zM211 770c3 19 1 33 4 49c3 15 8 21 24 22l84 4c11 1 18 -5 21 -17c8 -28 10 -58 7 -89l-2 -17c-2 -11 -7 -16 -16 -17c-8 -1 -16 -3 -25 -3c-16 -3 -33 -4 -49 -4c-9 -1 -17 1 -26 2c-9 2 -15 8 -16 18c-3 19 -3 37 -6 52zM25 773v44c0 15 3 21 18 24
c13 3 25 5 38 6c16 1 32 1 48 -3c11 -3 16 -10 16 -21c0 -12 0 -25 -1 -38c0 -19 -1 -36 -2 -55c0 -3 1 -5 0 -8c0 -13 -6 -20 -19 -20c-15 0 -28 1 -43 1c-12 0 -24 -1 -36 -2c-11 -1 -16 3 -17 12c-3 15 -2 30 -3 45c0 5 1 10 1 15z" />
    <glyph glyph-name="Igrave" unicode="&#xcc;" 
d="M32 39h1c-1 11 -2 21 -2 32c0 15 1 29 2 44v14v55l3 58l3 57l6 102l2 51c1 16 2 32 5 48v10l3 94c0 8 1 16 2 24c3 15 8 19 24 22c13 1 26 4 41 5c17 3 34 2 51 5c9 0 18 1 26 2c3 0 7 -1 11 -2c9 -2 14 -7 15 -15c3 -23 4 -46 1 -69c-3 -20 -4 -41 -5 -61
c-3 -32 -4 -63 -7 -94c-1 -13 -1 -26 -1 -41l-3 -78c-1 -13 0 -25 -1 -37c-3 -29 -4 -57 -7 -86v-8l-3 -94l-2 -36c-1 -17 -10 -26 -26 -27c-23 -3 -43 -1 -66 -4c-15 -1 -29 -4 -44 -5c-3 -1 -7 -1 -12 -1c-11 0 -16 5 -17 16v19zM37 902c11 -3 22 -3 37 -6l56 -8
c9 -1 15 -6 18 -16l9 -45c8 -31 16 -62 23 -93c1 -5 2 -9 2 -10c2 -10 -2 -16 -12 -18l-56 -9c-15 -3 -21 -1 -32 14l-86 140c-5 8 -10 15 -14 23c-8 13 -5 21 10 24l5 2c12 0 24 1 40 2z" />
    <glyph glyph-name="Iacute" unicode="&#xcd;" 
d="M33 39h-1v-19c1 -11 6 -16 17 -16c5 0 9 0 12 1c15 1 29 4 44 5c23 3 43 1 66 4c16 1 25 10 26 27l2 36l3 94v8c3 29 4 57 7 86c1 12 0 24 1 37l3 78c0 15 0 28 1 41c3 31 4 62 7 94c1 20 2 41 5 61c3 23 2 46 -1 69c-1 8 -6 13 -15 15c-4 1 -8 2 -11 2
c-8 -1 -17 -2 -26 -2c-17 -3 -34 -2 -51 -5c-15 -1 -28 -4 -41 -5c-16 -3 -21 -7 -24 -22c-1 -8 -2 -16 -2 -24l-3 -94v-10c-3 -16 -4 -32 -5 -48l-2 -51l-6 -102l-3 -57l-3 -58v-55v-14c-1 -15 -2 -29 -2 -44c0 -11 1 -21 2 -32zM238 904c16 -1 28 -2 40 -2l5 -2
c15 -3 18 -11 10 -24c-4 -8 -9 -15 -14 -23l-86 -140c-11 -15 -17 -17 -32 -14l-56 9c-10 2 -14 8 -12 18c0 1 1 5 2 10c7 31 15 62 23 93l9 45c3 10 9 15 18 16l56 8c15 3 26 3 37 6z" />
    <glyph glyph-name="Icircumflex" unicode="&#xce;" 
d="M32 39h1c-1 11 -2 21 -2 32c0 15 1 29 2 44v14v55l3 58l3 57l6 102l2 51c1 16 2 32 5 48v10l3 94c0 8 1 16 2 24c3 15 8 19 24 22c13 1 26 4 41 5c17 3 34 2 51 5c9 0 18 1 26 2c3 0 7 -1 11 -2c9 -2 14 -7 15 -15c3 -23 4 -46 1 -69c-3 -20 -4 -41 -5 -61
c-3 -32 -4 -63 -7 -94c-1 -13 -1 -26 -1 -41l-3 -78c-1 -13 0 -25 -1 -37c-3 -29 -4 -57 -7 -86v-8l-3 -94l-2 -36c-1 -17 -10 -26 -26 -27c-23 -3 -43 -1 -66 -4c-15 -1 -29 -4 -44 -5c-3 -1 -7 -1 -12 -1c-11 0 -16 5 -17 16v19zM176 924v-1c8 0 15 -1 23 -1
c11 0 20 -5 27 -16c20 -33 33 -68 48 -103c4 -11 9 -19 12 -30c7 -15 11 -28 18 -43c6 -15 2 -23 -13 -24l-32 -2c-20 -1 -39 0 -58 -3c-11 -1 -19 3 -23 13c-4 8 -9 16 -13 25c-11 19 -20 38 -31 58l-6 7c-5 5 -9 5 -11 -1c-7 -10 -11 -19 -14 -28l-19 -54
c-3 -10 -10 -15 -21 -15c-25 1 -50 3 -77 3c-7 1 -11 0 -18 1s-10 6 -10 15c1 4 1 9 4 13c13 31 22 62 31 93c9 27 22 48 38 71c3 5 9 10 17 13c19 4 36 7 56 7c11 0 24 2 35 2h37z" />
    <glyph glyph-name="Idieresis" unicode="&#xcf;" 
d="M32 39h1c-1 11 -2 21 -2 32c0 15 1 29 2 44v14v55l3 58l3 57l6 102l2 51c1 16 2 32 5 48v10l3 94c0 8 1 16 2 24c3 15 8 19 24 22c13 1 26 4 41 5c17 3 34 2 51 5c9 0 18 1 26 2c3 0 7 -1 11 -2c9 -2 14 -7 15 -15c3 -23 4 -46 1 -69c-3 -20 -4 -41 -5 -61
c-3 -32 -4 -63 -7 -94c-1 -13 -1 -26 -1 -41l-3 -78c-1 -13 0 -25 -1 -37c-3 -29 -4 -57 -7 -86v-8l-3 -94l-2 -36c-1 -17 -10 -26 -26 -27c-23 -3 -43 -1 -66 -4c-15 -1 -29 -4 -44 -5c-3 -1 -7 -1 -12 -1c-11 0 -16 5 -17 16v19zM162 775c3 19 1 33 4 49c3 15 8 21 24 22
l84 4c11 1 18 -5 21 -17c8 -28 10 -58 7 -89l-2 -17c-2 -11 -7 -16 -16 -17c-8 -1 -16 -3 -25 -3c-16 -3 -33 -4 -49 -4c-9 -1 -17 1 -26 2c-9 2 -15 8 -16 18c-3 19 -3 37 -6 52zM-24 778v44c0 15 3 21 18 24c13 3 25 5 38 6c16 1 32 1 48 -3c11 -3 16 -10 16 -21
c0 -12 0 -25 -1 -38c0 -19 -1 -36 -2 -55c0 -3 1 -5 0 -8c0 -13 -6 -20 -19 -20c-15 0 -28 1 -43 1c-12 0 -24 -1 -36 -2c-11 -1 -16 3 -17 12c-3 15 -2 30 -3 45c0 5 1 10 1 15z" />
    <glyph glyph-name="Eth" unicode="&#xd0;" horiz-adv-x="469" 
d="M37 33h1v62c0 37 -1 74 -1 111c0 17 1 34 1 50c0 15 -3 18 -18 19c-16 0 -20 4 -23 19c-3 27 -4 52 -1 79l2 31c2 13 10 20 23 21h12c9 2 13 7 14 15l2 38c1 25 1 50 4 75v16l3 73c1 16 6 20 22 23c35 4 71 6 106 5c23 0 46 0 69 -3c52 -7 95 -30 132 -66
c15 -15 25 -33 34 -52c11 -23 18 -46 25 -71c6 -27 7 -54 3 -81c-3 -23 -5 -44 -9 -65c-4 -28 -13 -53 -24 -80c-12 -36 -28 -71 -49 -102c-7 -11 -16 -20 -24 -29c-17 -17 -32 -35 -51 -52c-17 -15 -33 -28 -50 -41c-8 -7 -15 -11 -22 -14c-36 -15 -72 -26 -111 -33h-11
c-12 -1 -23 -1 -35 -1s-19 6 -21 18zM265 401v-20c-1 -31 -1 -58 -4 -89c0 -11 -6 -16 -17 -17c-2 -1 -5 -1 -9 -1c-11 0 -20 1 -29 1c-15 0 -18 -3 -19 -18c-1 -7 -1 -14 -1 -21c-1 -14 -1 -29 0 -44c0 -9 4 -11 13 -6c6 4 11 8 16 13c11 11 20 23 31 34c20 21 38 42 49 69
c15 39 24 77 20 120c-5 43 -39 89 -87 94l-21 3c-7 0 -12 -4 -13 -11c-1 -2 -1 -5 -1 -8c0 -19 1 -38 2 -57v-5c1 -9 5 -13 13 -13l23 -2c5 0 11 0 16 -1c11 -3 17 -10 18 -21z" />
    <glyph glyph-name="Ntilde" unicode="&#xd1;" horiz-adv-x="598" 
d="M211 355l-4 -22c0 -8 1 -17 1 -26c0 -7 -1 -12 -1 -19l-3 -62l-4 -31c-3 -23 -3 -44 -6 -67c-4 -31 -3 -61 -3 -92c0 -7 0 -12 -1 -19c0 -11 -5 -16 -15 -16c-13 -1 -25 0 -38 0c-11 1 -21 1 -32 0c-20 -3 -40 0 -60 4c-9 1 -13 6 -13 16c0 12 1 24 2 35c1 32 0 63 3 94
c0 23 1 44 4 67l3 38c1 19 1 39 4 58c1 23 2 45 5 68c1 17 4 34 5 51c1 16 0 31 3 46l6 75c3 16 4 32 5 48c3 16 7 22 23 23c19 1 35 2 54 -1c16 -3 32 -3 48 -6c12 -1 24 -1 36 -4c2 0 5 -1 9 -2c11 -2 19 -9 23 -21c3 -7 4 -14 7 -21c7 -15 14 -29 23 -44
c25 -43 45 -85 64 -130c11 -25 22 -52 35 -79c1 -3 3 -6 6 -9c5 3 5 7 6 11l2 16v46c1 27 2 52 2 77l2 49l4 81c1 15 2 29 2 44c1 12 7 18 19 18c8 0 15 -2 23 -1c11 0 22 1 34 2c11 1 21 3 32 2c10 -2 15 -7 16 -16c1 -7 1 -12 1 -17c3 -24 2 -49 5 -73l3 -57l2 -87
c0 -23 1 -43 1 -66c1 -29 1 -59 1 -88c0 -31 1 -58 2 -89l4 -74c0 -15 1 -30 1 -45c0 -4 -1 -8 -1 -11c-2 -9 -7 -13 -15 -14l-59 -8c-11 -1 -21 0 -32 -1l-59 -4c-1 0 -1 -1 -2 -1c-20 -1 -28 1 -36 20c-15 37 -29 74 -44 110l-36 87c-19 40 -34 80 -53 120
c-3 7 -5 13 -14 17zM445 934l55 -3c11 -1 17 -7 17 -18c0 -25 -1 -50 -2 -75c0 -23 -5 -47 -16 -70c-3 -7 -7 -13 -12 -18c-20 -24 -47 -35 -75 -42c-3 -1 -8 -3 -15 -4c-23 -8 -42 -5 -65 0c-29 7 -48 23 -60 50c-7 13 -12 26 -19 38c-3 7 -7 11 -12 14c-11 7 -18 3 -21 -9
c-2 -9 -3 -19 -3 -28c0 -8 2 -16 3 -23c1 -10 -3 -16 -12 -17c-16 -3 -32 -3 -48 -4h-52c-8 0 -13 4 -15 11c-2 5 -3 9 -3 14c-3 24 -9 48 -8 73c0 23 7 43 21 60c17 21 39 34 65 40c8 3 18 3 27 3c15 -1 30 0 46 1c21 1 38 -7 55 -19c17 -15 26 -33 33 -54
c3 -7 4 -13 7 -20l3 -10c7 -15 24 -15 32 -2c7 12 13 25 14 40v53c0 11 2 15 14 16c12 3 24 2 37 2h8z" />
    <glyph glyph-name="Ograve" unicode="&#xd2;" horiz-adv-x="678" 
d="M650 340h-1v-5c3 -39 -8 -76 -21 -113c-3 -5 -4 -10 -7 -17c-8 -27 -22 -49 -37 -72c-8 -12 -16 -23 -24 -32c-8 -8 -14 -17 -22 -25c-31 -32 -64 -56 -107 -71c-21 -7 -44 -9 -67 -12c-25 -4 -49 -1 -74 0c-15 1 -28 6 -43 13c-21 8 -40 18 -60 29c-7 3 -13 9 -20 14
l-35 26c-23 16 -42 35 -57 58c-19 31 -37 58 -45 93c-2 6 -3 12 -3 17c-3 27 -2 55 3 83c7 35 14 70 26 103c8 24 20 47 33 68c21 35 41 67 68 96c15 17 33 31 52 43c5 4 9 7 16 11c25 17 52 30 83 35c11 1 19 2 30 1c28 0 56 -1 84 -2c15 -1 29 -5 42 -12
c16 -7 31 -15 46 -23c23 -11 38 -28 54 -47c24 -27 39 -58 52 -91c15 -35 22 -70 29 -106c3 -21 2 -41 5 -62zM476 342c0 11 1 19 -2 28c-1 11 -4 19 -5 28c-7 35 -24 60 -45 87c-13 16 -30 24 -49 32c-17 8 -35 13 -54 4h-2c-16 -3 -31 -10 -45 -22
c-13 -11 -24 -22 -35 -37c-33 -44 -61 -122 -53 -180c5 -36 21 -67 48 -92c13 -12 28 -20 44 -28c23 -11 44 -16 68 -15c27 3 51 10 68 33l7 7c24 27 39 58 48 93c7 20 7 41 7 62zM243 938c11 -3 22 -3 37 -6l56 -8c9 -1 15 -6 18 -16l9 -45c8 -31 16 -62 23 -93
c1 -5 2 -9 2 -10c2 -10 -2 -16 -12 -18l-56 -9c-15 -3 -21 -1 -32 14l-86 140c-5 8 -10 15 -14 23c-8 13 -5 21 10 24l5 2c12 0 24 1 40 2z" />
    <glyph glyph-name="Oacute" unicode="&#xd3;" horiz-adv-x="678" 
d="M649 340h1c-3 21 -2 41 -5 62c-7 36 -14 71 -29 106c-13 33 -28 64 -52 91c-16 19 -31 36 -54 47c-15 8 -30 16 -46 23c-13 7 -27 11 -42 12c-28 1 -56 2 -84 2c-11 1 -19 0 -30 -1c-31 -5 -58 -18 -83 -35c-7 -4 -11 -7 -16 -11c-19 -12 -37 -26 -52 -43
c-27 -29 -47 -61 -68 -96c-13 -21 -25 -44 -33 -68c-12 -33 -19 -68 -26 -103c-5 -28 -6 -56 -3 -83c0 -5 1 -11 3 -17c8 -35 26 -62 45 -93c15 -23 34 -42 57 -58l35 -26c7 -5 13 -11 20 -14c20 -11 39 -21 60 -29c15 -7 28 -12 43 -13c25 -1 49 -4 74 0c23 3 46 5 67 12
c43 15 76 39 107 71c8 8 14 17 22 25c8 9 16 20 24 32c15 23 29 45 37 72c3 7 4 12 7 17c13 37 24 74 21 113v5zM476 342c0 -21 0 -42 -7 -62c-9 -35 -24 -66 -48 -93l-7 -7c-17 -23 -41 -30 -68 -33c-24 -1 -45 4 -68 15c-16 8 -31 16 -44 28c-27 25 -43 56 -48 92
c-8 58 20 136 53 180c11 15 22 26 35 37c14 12 29 19 45 22h2c19 9 37 4 54 -4c19 -8 36 -16 49 -32c21 -27 38 -52 45 -87c1 -9 4 -17 5 -28c3 -9 2 -17 2 -28zM438 933c16 -1 28 -2 40 -2l5 -2c15 -3 18 -11 10 -24c-4 -8 -9 -15 -14 -23l-86 -140
c-11 -15 -17 -17 -32 -14l-56 9c-10 2 -14 8 -12 18c0 1 1 5 2 10c7 31 15 62 23 93l9 45c3 10 9 15 18 16l56 8c15 3 26 3 37 6z" />
    <glyph glyph-name="Ocircumflex" unicode="&#xd4;" horiz-adv-x="678" 
d="M650 340h-1v-5c3 -39 -8 -76 -21 -113c-3 -5 -4 -10 -7 -17c-8 -27 -22 -49 -37 -72c-8 -12 -16 -23 -24 -32c-8 -8 -14 -17 -22 -25c-31 -32 -64 -56 -107 -71c-21 -7 -44 -9 -67 -12c-25 -4 -49 -1 -74 0c-15 1 -28 6 -43 13c-21 8 -40 18 -60 29c-7 3 -13 9 -20 14
l-35 26c-23 16 -42 35 -57 58c-19 31 -37 58 -45 93c-2 6 -3 12 -3 17c-3 27 -2 55 3 83c7 35 14 70 26 103c8 24 20 47 33 68c21 35 41 67 68 96c15 17 33 31 52 43c5 4 9 7 16 11c25 17 52 30 83 35c11 1 19 2 30 1c28 0 56 -1 84 -2c15 -1 29 -5 42 -12
c16 -7 31 -15 46 -23c23 -11 38 -28 54 -47c24 -27 39 -58 52 -91c15 -35 22 -70 29 -106c3 -21 2 -41 5 -62zM476 342c0 11 1 19 -2 28c-1 11 -4 19 -5 28c-7 35 -24 60 -45 87c-13 16 -30 24 -49 32c-17 8 -35 13 -54 4h-2c-16 -3 -31 -10 -45 -22
c-13 -11 -24 -22 -35 -37c-33 -44 -61 -122 -53 -180c5 -36 21 -67 48 -92c13 -12 28 -20 44 -28c23 -11 44 -16 68 -15c27 3 51 10 68 33l7 7c24 27 39 58 48 93c7 20 7 41 7 62zM387 947v-1c8 0 15 -1 23 -1c11 0 20 -5 27 -16c20 -33 33 -68 48 -103c4 -11 9 -19 12 -30
c7 -15 11 -28 18 -43c6 -15 2 -23 -13 -24l-32 -2c-20 -1 -39 0 -58 -3c-11 -1 -19 3 -23 13c-4 8 -9 16 -13 25c-11 19 -20 38 -31 58l-6 7c-5 5 -9 5 -11 -1c-7 -10 -11 -19 -14 -28l-19 -54c-3 -10 -10 -15 -21 -15c-25 1 -50 3 -77 3c-7 1 -11 0 -18 1s-10 6 -10 15
c1 4 1 9 4 13c13 31 22 62 31 93c9 27 22 48 38 71c3 5 9 10 17 13c19 4 36 7 56 7c11 0 24 2 35 2h37z" />
    <glyph glyph-name="Otilde" unicode="&#xd5;" horiz-adv-x="678" 
d="M650 340h-1v-5c3 -39 -8 -76 -21 -113c-3 -5 -4 -10 -7 -17c-8 -27 -22 -49 -37 -72c-8 -12 -16 -23 -24 -32c-8 -8 -14 -17 -22 -25c-31 -32 -64 -56 -107 -71c-21 -7 -44 -9 -67 -12c-25 -4 -49 -1 -74 0c-15 1 -28 6 -43 13c-21 8 -40 18 -60 29c-7 3 -13 9 -20 14
l-35 26c-23 16 -42 35 -57 58c-19 31 -37 58 -45 93c-2 6 -3 12 -3 17c-3 27 -2 55 3 83c7 35 14 70 26 103c8 24 20 47 33 68c21 35 41 67 68 96c15 17 33 31 52 43c5 4 9 7 16 11c25 17 52 30 83 35c11 1 19 2 30 1c28 0 56 -1 84 -2c15 -1 29 -5 42 -12
c16 -7 31 -15 46 -23c23 -11 38 -28 54 -47c24 -27 39 -58 52 -91c15 -35 22 -70 29 -106c3 -21 2 -41 5 -62zM476 342c0 11 1 19 -2 28c-1 11 -4 19 -5 28c-7 35 -24 60 -45 87c-13 16 -30 24 -49 32c-17 8 -35 13 -54 4h-2c-16 -3 -31 -10 -45 -22
c-13 -11 -24 -22 -35 -37c-33 -44 -61 -122 -53 -180c5 -36 21 -67 48 -92c13 -12 28 -20 44 -28c23 -11 44 -16 68 -15c27 3 51 10 68 33l7 7c24 27 39 58 48 93c7 20 7 41 7 62zM502 963l55 -3c11 -1 17 -7 17 -18c0 -25 -1 -50 -2 -75c0 -23 -5 -47 -16 -70
c-3 -7 -7 -13 -12 -18c-20 -24 -47 -35 -75 -42c-3 -1 -8 -3 -15 -4c-23 -8 -42 -5 -65 0c-29 7 -48 23 -60 50c-7 13 -12 26 -19 38c-3 7 -7 11 -12 14c-11 7 -18 3 -21 -9c-2 -9 -3 -19 -3 -28c0 -8 2 -16 3 -23c1 -10 -3 -16 -12 -17c-16 -3 -32 -3 -48 -4h-52
c-8 0 -13 4 -15 11c-2 5 -3 9 -3 14c-3 24 -9 48 -8 73c0 23 7 43 21 60c17 21 39 34 65 40c8 3 18 3 27 3c15 -1 30 0 46 1c21 1 38 -7 55 -19c17 -15 26 -33 33 -54c3 -7 4 -13 7 -20l3 -10c7 -15 24 -15 32 -2c7 12 13 25 14 40v53c0 11 2 15 14 16c12 3 24 2 37 2h8z
" />
    <glyph glyph-name="Odieresis" unicode="&#xd6;" horiz-adv-x="678" 
d="M650 340h-1v-5c3 -39 -8 -76 -21 -113c-3 -5 -4 -10 -7 -17c-8 -27 -22 -49 -37 -72c-8 -12 -16 -23 -24 -32c-8 -8 -14 -17 -22 -25c-31 -32 -64 -56 -107 -71c-21 -7 -44 -9 -67 -12c-25 -4 -49 -1 -74 0c-15 1 -28 6 -43 13c-21 8 -40 18 -60 29c-7 3 -13 9 -20 14
l-35 26c-23 16 -42 35 -57 58c-19 31 -37 58 -45 93c-2 6 -3 12 -3 17c-3 27 -2 55 3 83c7 35 14 70 26 103c8 24 20 47 33 68c21 35 41 67 68 96c15 17 33 31 52 43c5 4 9 7 16 11c25 17 52 30 83 35c11 1 19 2 30 1c28 0 56 -1 84 -2c15 -1 29 -5 42 -12
c16 -7 31 -15 46 -23c23 -11 38 -28 54 -47c24 -27 39 -58 52 -91c15 -35 22 -70 29 -106c3 -21 2 -41 5 -62zM476 342c0 11 1 19 -2 28c-1 11 -4 19 -5 28c-7 35 -24 60 -45 87c-13 16 -30 24 -49 32c-17 8 -35 13 -54 4h-2c-16 -3 -31 -10 -45 -22
c-13 -11 -24 -22 -35 -37c-33 -44 -61 -122 -53 -180c5 -36 21 -67 48 -92c13 -12 28 -20 44 -28c23 -11 44 -16 68 -15c27 3 51 10 68 33l7 7c24 27 39 58 48 93c7 20 7 41 7 62zM367 804c3 19 1 33 4 49c3 15 8 21 24 22l84 4c11 1 18 -5 21 -17c8 -28 10 -58 7 -89
l-2 -17c-2 -11 -7 -16 -16 -17c-8 -1 -16 -3 -25 -3c-16 -3 -33 -4 -49 -4c-9 -1 -17 1 -26 2c-9 2 -15 8 -16 18c-3 19 -3 37 -6 52zM181 807v44c0 15 3 21 18 24c13 3 25 5 38 6c16 1 32 1 48 -3c11 -3 16 -10 16 -21c0 -12 0 -25 -1 -38c0 -19 -1 -36 -2 -55
c0 -3 1 -5 0 -8c0 -13 -6 -20 -19 -20c-15 0 -28 1 -43 1c-12 0 -24 -1 -36 -2c-11 -1 -16 3 -17 12c-3 15 -2 30 -3 45c0 5 1 10 1 15z" />
    <glyph glyph-name="multiply" unicode="&#xd7;" horiz-adv-x="453" 
d="M59 191c1 5 3 9 4 11c5 9 9 18 16 26l48 63c11 12 11 16 0 28c-16 21 -35 38 -55 54l-33 31c-4 4 -7 7 -8 10c-4 7 -4 13 0 18c19 23 30 47 53 66c13 12 26 25 41 36c11 8 14 7 25 0c15 -11 27 -25 39 -40c11 -12 22 -22 33 -33l21 -20c8 -7 16 -7 23 0l18 19
c13 15 27 26 40 41c5 5 8 11 13 16c7 7 14 8 22 2c6 -5 12 -10 18 -17c15 -17 26 -34 41 -50c5 -7 6 -14 3 -21c-11 -20 -20 -41 -36 -58c-11 -11 -22 -24 -33 -36c-6 -7 -6 -14 -1 -20c11 -12 21 -22 30 -34c10 -13 20 -28 31 -43c5 -7 6 -13 3 -19
c-11 -23 -21 -43 -33 -64c-9 -16 -22 -29 -37 -41c-8 -6 -15 -5 -21 2c-9 11 -17 19 -25 30c-15 17 -28 33 -41 50l-9 7c-7 5 -12 4 -16 -2c-7 -9 -12 -18 -19 -27c-11 -17 -22 -32 -34 -45c-7 -7 -14 -13 -22 -19c-9 -7 -17 -7 -26 2l-12 12c-15 12 -28 25 -41 37
c-5 5 -10 10 -15 17c-2 2 -4 6 -5 11z" />
    <glyph glyph-name="Oslash" unicode="&#xd8;" horiz-adv-x="678" 
d="M340 681v-1l81 -2c13 0 26 -4 38 -9c11 -4 19 -5 28 2c5 5 10 5 17 2c5 -3 9 -4 16 -7c19 -8 39 -15 59 -23c9 -4 18 -8 26 -13c16 -9 18 -16 10 -32l-15 -34c-3 -7 -3 -15 1 -23c21 -41 32 -86 43 -131c3 -17 5 -33 5 -50c1 -23 2 -44 -1 -67c-3 -21 -9 -42 -16 -63
c-4 -15 -10 -27 -15 -40c-5 -11 -9 -21 -16 -32c-19 -35 -42 -66 -70 -93c-28 -28 -60 -50 -97 -62c-23 -7 -46 -9 -69 -13c-25 -4 -49 -1 -74 0c-15 1 -30 9 -45 13c-4 3 -7 2 -11 5c-11 3 -13 2 -20 -6l-9 -12c-7 -11 -16 -10 -24 -7l-110 45l-12 7c-5 5 -7 10 -4 17
c2 5 5 9 8 13c7 9 12 17 19 28c8 11 8 14 1 25l-31 50c-16 29 -26 58 -27 93c-3 36 6 69 13 104c8 37 18 73 37 106c11 19 23 38 35 57l6 9c11 21 27 39 42 56c15 16 31 28 50 41c6 3 11 7 16 10c25 19 53 30 83 35c11 3 21 2 32 2zM185 306c0 -5 0 -10 1 -17
c0 -7 1 -12 2 -19c1 -5 2 -11 7 -11c3 0 7 4 10 7c5 5 9 10 13 17c19 29 38 58 58 87c11 16 23 30 34 46c19 28 35 57 54 85c1 3 2 4 2 5c2 6 1 10 -4 12c-7 3 -15 6 -22 5c-13 -2 -25 -5 -36 -10c-23 -8 -40 -22 -55 -41c-23 -29 -41 -61 -52 -96c-7 -23 -12 -45 -12 -70z
M476 331v19c-1 7 -6 9 -10 4c-5 -5 -8 -9 -11 -14c-27 -39 -51 -77 -78 -116l-44 -65c-7 -8 -4 -14 7 -14c27 -1 51 6 70 27c7 7 14 15 20 23c31 39 46 85 46 136z" />
    <glyph glyph-name="Ugrave" unicode="&#xd9;" horiz-adv-x="583" 
d="M310 16h-37c-20 0 -39 -1 -59 4c-17 5 -35 10 -50 21c-11 7 -23 13 -34 22c-32 25 -55 57 -72 93c-7 15 -11 31 -13 50c-3 23 -4 45 -7 68c-1 16 -4 32 -5 48c-1 27 -1 55 0 82c0 17 1 34 2 53l4 40c3 15 3 31 4 46c3 23 4 44 7 67c0 9 2 17 3 26c2 13 9 19 22 17
c11 -1 23 0 36 2l23 2c21 1 41 0 64 3c9 0 14 -4 15 -13c0 -5 -1 -10 -1 -15c-3 -31 -5 -62 -6 -93c-3 -31 -2 -61 -3 -92c-1 -23 -1 -43 -1 -66c0 -29 -1 -58 2 -86c1 -17 0 -34 5 -51c3 -13 10 -24 20 -31c13 -11 27 -19 43 -23c20 -7 45 0 58 17c13 15 22 32 29 51
c11 31 17 63 20 96c3 21 3 41 6 64c0 7 -1 14 -1 21c1 24 1 48 1 72l-4 98c0 12 -1 25 -1 37c1 9 5 14 14 16c11 3 19 2 30 5c20 4 40 9 60 12c19 3 36 1 55 1c7 1 12 -3 14 -12c0 -1 1 -4 1 -5c-1 -21 -2 -42 -2 -63c-1 -8 -1 -16 -1 -24c-1 -35 -1 -69 -4 -104l-8 -112
c-4 -47 -11 -93 -22 -140c-3 -13 -8 -26 -14 -39c-11 -23 -21 -44 -32 -65c-8 -16 -17 -31 -30 -43c-20 -17 -39 -34 -64 -43c-23 -9 -46 -13 -67 -14zM201 921c11 -3 22 -3 37 -6l56 -8c9 -1 15 -6 18 -16l9 -45c8 -31 16 -62 23 -93c1 -5 2 -9 2 -10c2 -10 -2 -16 -12 -18
l-56 -9c-15 -3 -21 -1 -32 14l-86 140c-5 8 -10 15 -14 23c-8 13 -5 21 10 24l5 2c12 0 24 1 40 2z" />
    <glyph glyph-name="Uacute" unicode="&#xda;" horiz-adv-x="583" 
d="M273 16h37c21 1 44 5 67 14c25 9 44 26 64 43c13 12 22 27 30 43c11 21 21 42 32 65c6 13 11 26 14 39c11 47 18 93 22 140l8 112c3 35 3 69 4 104c0 8 0 16 1 24c0 21 1 42 2 63c0 1 -1 4 -1 5c-2 9 -7 13 -14 12c-19 0 -36 2 -55 -1c-20 -3 -40 -8 -60 -12
c-11 -3 -19 -2 -30 -5c-9 -2 -13 -7 -14 -16c0 -12 1 -25 1 -37l4 -98c0 -24 0 -48 -1 -72c0 -7 1 -14 1 -21c-3 -23 -3 -43 -6 -64c-3 -33 -9 -65 -20 -96c-7 -19 -16 -36 -29 -51c-13 -17 -38 -24 -58 -17c-16 4 -30 12 -43 23c-10 7 -17 18 -20 31c-5 17 -4 34 -5 51
c-3 28 -2 57 -2 86c0 23 0 43 1 66c1 31 0 61 3 92c1 31 3 62 6 93c0 5 1 10 1 15c-1 9 -6 13 -15 13c-23 -3 -43 -2 -64 -3l-23 -2c-13 -2 -25 -3 -36 -2c-13 2 -20 -4 -22 -17c-1 -9 -3 -17 -3 -26c-3 -23 -4 -44 -7 -67c-1 -15 -1 -31 -4 -46l-4 -40
c-1 -19 -2 -36 -2 -53c-1 -27 -1 -55 0 -82c1 -16 4 -32 5 -48c3 -23 4 -45 7 -68c2 -19 6 -35 13 -50c17 -36 40 -68 72 -93c11 -9 23 -15 34 -22c15 -11 33 -16 50 -21c20 -5 39 -4 59 -4zM398 918c16 -1 28 -2 40 -2l5 -2c15 -3 18 -11 10 -24c-4 -8 -9 -15 -14 -23
l-86 -140c-11 -15 -17 -17 -32 -14l-56 9c-10 2 -14 8 -12 18c0 1 1 5 2 10c7 31 15 62 23 93l9 45c3 10 9 15 18 16l56 8c15 3 26 3 37 6z" />
    <glyph glyph-name="Ucircumflex" unicode="&#xdb;" horiz-adv-x="583" 
d="M310 16h-37c-20 0 -39 -1 -59 4c-17 5 -35 10 -50 21c-11 7 -23 13 -34 22c-32 25 -55 57 -72 93c-7 15 -11 31 -13 50c-3 23 -4 45 -7 68c-1 16 -4 32 -5 48c-1 27 -1 55 0 82c0 17 1 34 2 53l4 40c3 15 3 31 4 46c3 23 4 44 7 67c0 9 2 17 3 26c2 13 9 19 22 17
c11 -1 23 0 36 2l23 2c21 1 41 0 64 3c9 0 14 -4 15 -13c0 -5 -1 -10 -1 -15c-3 -31 -5 -62 -6 -93c-3 -31 -2 -61 -3 -92c-1 -23 -1 -43 -1 -66c0 -29 -1 -58 2 -86c1 -17 0 -34 5 -51c3 -13 10 -24 20 -31c13 -11 27 -19 43 -23c20 -7 45 0 58 17c13 15 22 32 29 51
c11 31 17 63 20 96c3 21 3 41 6 64c0 7 -1 14 -1 21c1 24 1 48 1 72l-4 98c0 12 -1 25 -1 37c1 9 5 14 14 16c11 3 19 2 30 5c20 4 40 9 60 12c19 3 36 1 55 1c7 1 12 -3 14 -12c0 -1 1 -4 1 -5c-1 -21 -2 -42 -2 -63c-1 -8 -1 -16 -1 -24c-1 -35 -1 -69 -4 -104l-8 -112
c-4 -47 -11 -93 -22 -140c-3 -13 -8 -26 -14 -39c-11 -23 -21 -44 -32 -65c-8 -16 -17 -31 -30 -43c-20 -17 -39 -34 -64 -43c-23 -9 -46 -13 -67 -14zM325 938v-1c8 0 15 -1 23 -1c11 0 20 -5 27 -16c20 -33 33 -68 48 -103c4 -11 9 -19 12 -30c7 -15 11 -28 18 -43
c6 -15 2 -23 -13 -24l-32 -2c-20 -1 -39 0 -58 -3c-11 -1 -19 3 -23 13c-4 8 -9 16 -13 25c-11 19 -20 38 -31 58l-6 7c-5 5 -9 5 -11 -1c-7 -10 -11 -19 -14 -28l-19 -54c-3 -10 -10 -15 -21 -15c-25 1 -50 3 -77 3c-7 1 -11 0 -18 1s-10 6 -10 15c1 4 1 9 4 13
c13 31 22 62 31 93c9 27 22 48 38 71c3 5 9 10 17 13c19 4 36 7 56 7c11 0 24 2 35 2h37z" />
    <glyph glyph-name="Udieresis" unicode="&#xdc;" horiz-adv-x="583" 
d="M310 16h-37c-20 0 -39 -1 -59 4c-17 5 -35 10 -50 21c-11 7 -23 13 -34 22c-32 25 -55 57 -72 93c-7 15 -11 31 -13 50c-3 23 -4 45 -7 68c-1 16 -4 32 -5 48c-1 27 -1 55 0 82c0 17 1 34 2 53l4 40c3 15 3 31 4 46c3 23 4 44 7 67c0 9 2 17 3 26c2 13 9 19 22 17
c11 -1 23 0 36 2l23 2c21 1 41 0 64 3c9 0 14 -4 15 -13c0 -5 -1 -10 -1 -15c-3 -31 -5 -62 -6 -93c-3 -31 -2 -61 -3 -92c-1 -23 -1 -43 -1 -66c0 -29 -1 -58 2 -86c1 -17 0 -34 5 -51c3 -13 10 -24 20 -31c13 -11 27 -19 43 -23c20 -7 45 0 58 17c13 15 22 32 29 51
c11 31 17 63 20 96c3 21 3 41 6 64c0 7 -1 14 -1 21c1 24 1 48 1 72l-4 98c0 12 -1 25 -1 37c1 9 5 14 14 16c11 3 19 2 30 5c20 4 40 9 60 12c19 3 36 1 55 1c7 1 12 -3 14 -12c0 -1 1 -4 1 -5c-1 -21 -2 -42 -2 -63c-1 -8 -1 -16 -1 -24c-1 -35 -1 -69 -4 -104l-8 -112
c-4 -47 -11 -93 -22 -140c-3 -13 -8 -26 -14 -39c-11 -23 -21 -44 -32 -65c-8 -16 -17 -31 -30 -43c-20 -17 -39 -34 -64 -43c-23 -9 -46 -13 -67 -14zM313 787c3 19 1 33 4 49c3 15 8 21 24 22l84 4c11 1 18 -5 21 -17c8 -28 10 -58 7 -89l-2 -17c-2 -11 -7 -16 -16 -17
c-8 -1 -16 -3 -25 -3c-16 -3 -33 -4 -49 -4c-9 -1 -17 1 -26 2c-9 2 -15 8 -16 18c-3 19 -3 37 -6 52zM127 790v44c0 15 3 21 18 24c13 3 25 5 38 6c16 1 32 1 48 -3c11 -3 16 -10 16 -21c0 -12 0 -25 -1 -38c0 -19 -1 -36 -2 -55c0 -3 1 -5 0 -8c0 -13 -6 -20 -19 -20
c-15 0 -28 1 -43 1c-12 0 -24 -1 -36 -2c-11 -1 -16 3 -17 12c-3 15 -2 30 -3 45c0 5 1 10 1 15z" />
    <glyph glyph-name="Yacute" unicode="&#xdd;" horiz-adv-x="606" 
d="M66 671h-22c-7 0 -13 1 -20 0c-9 0 -12 -6 -7 -13c1 -2 4 -5 8 -9c7 -7 12 -14 17 -22c17 -27 33 -52 53 -76c1 -3 2 -5 5 -8c15 -28 32 -56 51 -83c23 -31 44 -63 68 -94c7 -9 10 -19 10 -31c1 -24 1 -48 1 -72v-29c0 -8 1 -16 1 -25c1 -15 0 -28 0 -43
c1 -23 2 -43 2 -64c1 -9 0 -18 0 -27c0 -16 0 -31 1 -47c0 -13 5 -19 15 -20c12 -1 23 -2 35 -2l31 -2l70 -3c11 0 18 6 21 18c0 3 1 7 1 11c0 12 -1 24 0 35c1 31 2 62 5 93c1 9 0 18 1 27c0 19 2 35 1 54c-1 28 1 56 2 83c1 15 3 29 14 40c1 1 2 2 2 3
c33 56 69 110 100 167c11 19 20 38 29 57l23 57c1 3 2 5 2 8c2 11 -2 17 -13 19h-5c-15 3 -29 5 -44 6c-19 3 -38 3 -57 4c-11 1 -22 -1 -33 -1c-11 1 -19 -4 -24 -14c-11 -19 -19 -37 -30 -56c-21 -35 -35 -70 -52 -105c-7 -17 -12 -19 -23 -4c-23 27 -44 53 -65 80
c-15 17 -28 33 -41 50c-7 9 -12 18 -19 27c-5 8 -11 12 -19 12c-11 1 -20 1 -31 1c-23 0 -43 -1 -64 -2zM401 922c16 -1 28 -2 40 -2l5 -2c15 -3 18 -11 10 -24c-4 -8 -9 -15 -14 -23l-86 -140c-11 -15 -17 -17 -32 -14l-56 9c-10 2 -14 8 -12 18c0 1 1 5 2 10
c7 31 15 62 23 93l9 45c3 10 9 15 18 16l56 8c15 3 26 3 37 6z" />
    <glyph glyph-name="Thorn" unicode="&#xde;" horiz-adv-x="476" 
d="M51 354h1l-3 93c-1 19 0 37 0 56c0 7 -2 11 -1 18c0 15 1 29 1 44c0 11 0 18 -1 29c-1 19 -2 35 5 54c4 14 14 20 29 18c11 -3 23 -1 34 -4l36 -4c15 -3 28 -3 41 -6s23 -7 20 -28c-1 -11 -2 -19 -2 -30c0 -7 4 -10 11 -10c12 0 24 1 35 2c26 2 52 -1 79 -8
c12 -3 21 -9 28 -16c15 -15 27 -28 38 -45c20 -35 36 -67 43 -106c7 -42 5 -84 -6 -125c-3 -7 -4 -14 -5 -21c-10 -45 -34 -80 -72 -106c-13 -9 -25 -17 -40 -24l-9 -4c-9 -5 -19 -9 -29 -13c-11 -4 -18 -8 -29 -11c-8 -3 -16 -4 -24 -7c-7 -3 -12 -3 -17 -4
c-9 -1 -14 -7 -14 -20c1 -16 1 -33 1 -49c0 -4 -2 -8 -3 -12c-3 -7 -9 -11 -16 -11l-75 -3c-17 0 -33 1 -50 5c-13 3 -19 11 -18 24c1 43 0 87 3 130c0 24 1 49 3 74l4 37l2 38v45zM307 356l-2 18c-2 17 -7 34 -16 49c-5 8 -10 15 -21 19c-15 5 -31 9 -47 6
c-9 -1 -14 -6 -14 -15c0 -8 1 -16 1 -23c0 -23 0 -44 -1 -67c0 -15 -2 -29 -3 -44c0 -7 -1 -15 -2 -23c-1 -12 5 -17 18 -15c3 0 5 2 8 2c17 5 29 16 44 25c25 17 32 41 35 68z" />
    <glyph glyph-name="germandbls" unicode="&#xdf;" horiz-adv-x="589" 
d="M163 -105l-58 -3l-45 3c-5 0 -9 2 -14 3c-8 3 -13 9 -15 18c-8 27 -6 52 -3 79l9 69v24c1 23 2 46 2 69c0 17 -1 34 -1 51c0 16 0 31 1 47c1 19 1 36 4 55l4 30l8 69c4 28 5 55 16 82c15 40 38 76 70 108c3 3 5 5 7 6c19 9 38 20 57 28c15 7 29 11 45 14c24 5 48 9 72 12
c20 3 39 -1 58 -6s35 -9 54 -16c7 -2 14 -6 21 -11c34 -26 58 -57 73 -94c7 -19 9 -37 10 -56c1 -16 1 -32 0 -48c-3 -29 -11 -55 -28 -78c-7 -11 -16 -17 -24 -25l-13 -12c-10 -11 -11 -22 -3 -33l21 -23c17 -16 35 -31 51 -47c12 -13 19 -29 21 -50c5 -31 -2 -62 -21 -91
c-31 -51 -73 -83 -125 -106c-19 -7 -37 -9 -56 -12c-17 -3 -34 -2 -51 -3c-15 0 -17 4 -20 17c-1 7 -1 13 -1 20l-2 60c0 11 -3 18 -4 29c-2 13 4 21 17 23c29 4 50 21 71 38c10 9 15 20 15 35c-1 10 -5 18 -10 25c-9 9 -20 17 -33 22c-27 9 -46 26 -62 47
c-7 9 -10 19 -10 32v4c-3 24 8 41 27 54c10 7 21 13 34 20l27 15c22 14 30 33 24 57c-7 27 -24 43 -51 49c-25 5 -47 0 -67 -13c-15 -11 -25 -26 -28 -45l-10 -49c-5 -23 -7 -43 -10 -66c-3 -27 -1 -51 -4 -78c-1 -27 -4 -51 -5 -78c-1 -15 -1 -28 -1 -43
c0 -23 -1 -45 -1 -68c0 -9 2 -18 2 -27c1 -7 1 -11 1 -18c0 -25 -1 -50 -2 -75c0 -8 -1 -17 -4 -26c-2 -7 -7 -12 -16 -13c-8 0 -16 -1 -24 -1z" />
    <glyph glyph-name="agrave" unicode="&#xe0;" horiz-adv-x="605" 
d="M571 73l4 -38c0 -11 -2 -13 -13 -16c-9 -3 -18 -2 -27 -3c-11 -1 -19 -2 -30 -2c-12 0 -23 1 -34 1s-21 0 -32 -1c-15 -2 -24 5 -26 20l-13 74l-9 63c-4 21 -6 22 -27 29c-23 5 -45 8 -66 8c-15 0 -27 0 -42 1c-13 1 -17 -1 -18 -14c-3 -27 -8 -50 -9 -77
c-1 -20 -4 -40 -7 -60c-1 -9 -2 -18 -5 -27c-3 -12 -10 -16 -22 -17l-84 -8c-21 -3 -42 -2 -65 -5c-3 0 -6 0 -8 1c-10 1 -14 7 -12 17c3 12 4 25 7 38l22 111c5 27 11 52 16 77l21 100c3 12 4 25 5 37c8 48 17 95 29 142l23 96c1 7 2 10 5 17c4 15 14 23 30 24
c35 4 67 8 102 5c21 -3 43 -1 64 -4l60 -8l70 -8c24 -3 23 -8 26 -27l8 -66c1 -16 2 -33 5 -49c3 -32 5 -64 10 -95c4 -27 10 -53 14 -80l8 -51c3 -16 5 -33 6 -49c3 -20 3 -40 6 -60c3 -24 4 -47 7 -71c0 -9 0 -17 1 -25zM373 362v1c0 1 -1 1 -1 2c-3 24 -5 48 -9 72
c-3 15 -6 31 -10 46c-2 9 -7 13 -15 14c-9 1 -18 2 -27 2c-8 0 -13 -4 -16 -12s-3 -17 -6 -26c-7 -28 -11 -57 -16 -86c-3 -7 -5 -14 -6 -21c-2 -11 3 -16 14 -15c3 0 5 0 6 1l71 4c10 1 15 7 15 18zM200 926c11 -3 22 -3 37 -6l56 -8c9 -1 15 -6 18 -16l9 -45
c8 -31 16 -62 23 -93c1 -5 2 -9 2 -10c2 -10 -2 -16 -12 -18l-56 -9c-15 -3 -21 -1 -32 14l-86 140c-5 8 -10 15 -14 23c-8 13 -5 21 10 24l5 2c12 0 24 1 40 2z" />
    <glyph glyph-name="aacute" unicode="&#xe1;" horiz-adv-x="605" 
d="M417 931c16 -1 28 -2 40 -2l5 -2c15 -3 18 -11 10 -24c-4 -8 -9 -15 -14 -23l-86 -140c-11 -15 -17 -17 -32 -14l-56 9c-10 2 -14 8 -12 18c0 1 1 5 2 10c7 31 15 62 23 93l9 45c3 10 9 15 18 16l56 8c15 3 26 3 37 6zM575 35l-4 38c-1 8 -1 16 -1 25c-3 24 -4 47 -7 71
c-3 20 -3 40 -6 60c-1 16 -3 33 -6 49l-8 51c-4 27 -10 53 -14 80c-5 31 -7 63 -10 95c-3 16 -4 33 -5 49l-8 66c-3 19 -2 24 -26 27l-70 8l-60 8c-21 3 -43 1 -64 4c-35 3 -67 -1 -102 -5c-16 -1 -26 -9 -30 -24c-3 -7 -4 -10 -5 -17l-23 -96c-12 -47 -21 -94 -29 -142
c-1 -12 -2 -25 -5 -37l-21 -100c-5 -25 -11 -50 -16 -77l-22 -111c-3 -13 -4 -26 -7 -38c-2 -10 2 -16 12 -17c2 -1 5 -1 8 -1c23 3 44 2 65 5l84 8c12 1 19 5 22 17c3 9 4 18 5 27c3 20 6 40 7 60c1 27 6 50 9 77c1 13 5 15 18 14c15 -1 27 -1 42 -1c21 0 43 -3 66 -8
c21 -7 23 -8 27 -29l9 -63l13 -74c2 -15 11 -22 26 -20c11 1 21 1 32 1s22 -1 34 -1c11 0 19 1 30 2c9 1 18 0 27 3c11 3 13 5 13 16zM373 362c0 -11 -5 -17 -15 -18l-71 -4c-1 -1 -3 -1 -6 -1c-11 -1 -16 4 -14 15c1 7 3 14 6 21c5 29 9 58 16 86c3 9 3 18 6 26s8 12 16 12
c9 0 18 -1 27 -2c8 -1 13 -5 15 -14c4 -15 7 -31 10 -46c4 -24 6 -48 9 -72c0 -1 1 -1 1 -2v-1z" />
    <glyph glyph-name="acircumflex" unicode="&#xe2;" horiz-adv-x="605" 
d="M571 73l4 -38c0 -11 -2 -13 -13 -16c-9 -3 -18 -2 -27 -3c-11 -1 -19 -2 -30 -2c-12 0 -23 1 -34 1s-21 0 -32 -1c-15 -2 -24 5 -26 20l-13 74l-9 63c-4 21 -6 22 -27 29c-23 5 -45 8 -66 8c-15 0 -27 0 -42 1c-13 1 -17 -1 -18 -14c-3 -27 -8 -50 -9 -77
c-1 -20 -4 -40 -7 -60c-1 -9 -2 -18 -5 -27c-3 -12 -10 -16 -22 -17l-84 -8c-21 -3 -42 -2 -65 -5c-3 0 -6 0 -8 1c-10 1 -14 7 -12 17c3 12 4 25 7 38l22 111c5 27 11 52 16 77l21 100c3 12 4 25 5 37c8 48 17 95 29 142l23 96c1 7 2 10 5 17c4 15 14 23 30 24
c35 4 67 8 102 5c21 -3 43 -1 64 -4l60 -8l70 -8c24 -3 23 -8 26 -27l8 -66c1 -16 2 -33 5 -49c3 -32 5 -64 10 -95c4 -27 10 -53 14 -80l8 -51c3 -16 5 -33 6 -49c3 -20 3 -40 6 -60c3 -24 4 -47 7 -71c0 -9 0 -17 1 -25zM373 362v1c0 1 -1 1 -1 2c-3 24 -5 48 -9 72
c-3 15 -6 31 -10 46c-2 9 -7 13 -15 14c-9 1 -18 2 -27 2c-8 0 -13 -4 -16 -12s-3 -17 -6 -26c-7 -28 -11 -57 -16 -86c-3 -7 -5 -14 -6 -21c-2 -11 3 -16 14 -15c3 0 5 0 6 1l71 4c10 1 15 7 15 18zM367 933v-1c8 0 15 -1 23 -1c11 0 20 -5 27 -16c20 -33 33 -68 48 -103
c4 -11 9 -19 12 -30c7 -15 11 -28 18 -43c6 -15 2 -23 -13 -24l-32 -2c-20 -1 -39 0 -58 -3c-11 -1 -19 3 -23 13c-4 8 -9 16 -13 25c-11 19 -20 38 -31 58l-6 7c-5 5 -9 5 -11 -1c-7 -10 -11 -19 -14 -28l-19 -54c-3 -10 -10 -15 -21 -15c-25 1 -50 3 -77 3
c-7 1 -11 0 -18 1s-10 6 -10 15c1 4 1 9 4 13c13 31 22 62 31 93c9 27 22 48 38 71c3 5 9 10 17 13c19 4 36 7 56 7c11 0 24 2 35 2h37z" />
    <glyph glyph-name="atilde" unicode="&#xe3;" horiz-adv-x="605" 
d="M571 73l4 -38c0 -11 -2 -13 -13 -16c-9 -3 -18 -2 -27 -3c-11 -1 -19 -2 -30 -2c-12 0 -23 1 -34 1s-21 0 -32 -1c-15 -2 -24 5 -26 20l-13 74l-9 63c-4 21 -6 22 -27 29c-23 5 -45 8 -66 8c-15 0 -27 0 -42 1c-13 1 -17 -1 -18 -14c-3 -27 -8 -50 -9 -77
c-1 -20 -4 -40 -7 -60c-1 -9 -2 -18 -5 -27c-3 -12 -10 -16 -22 -17l-84 -8c-21 -3 -42 -2 -65 -5c-3 0 -6 0 -8 1c-10 1 -14 7 -12 17c3 12 4 25 7 38l22 111c5 27 11 52 16 77l21 100c3 12 4 25 5 37c8 48 17 95 29 142l23 96c1 7 2 10 5 17c4 15 14 23 30 24
c35 4 67 8 102 5c21 -3 43 -1 64 -4l60 -8l70 -8c24 -3 23 -8 26 -27l8 -66c1 -16 2 -33 5 -49c3 -32 5 -64 10 -95c4 -27 10 -53 14 -80l8 -51c3 -16 5 -33 6 -49c3 -20 3 -40 6 -60c3 -24 4 -47 7 -71c0 -9 0 -17 1 -25zM373 362v1c0 1 -1 1 -1 2c-3 24 -5 48 -9 72
c-3 15 -6 31 -10 46c-2 9 -7 13 -15 14c-9 1 -18 2 -27 2c-8 0 -13 -4 -16 -12s-3 -17 -6 -26c-7 -28 -11 -57 -16 -86c-3 -7 -5 -14 -6 -21c-2 -11 3 -16 14 -15c3 0 5 0 6 1l71 4c10 1 15 7 15 18zM471 950l55 -3c11 -1 17 -7 17 -18c0 -25 -1 -50 -2 -75
c0 -23 -5 -47 -16 -70c-3 -7 -7 -13 -12 -18c-20 -24 -47 -35 -75 -42c-3 -1 -8 -3 -15 -4c-23 -8 -42 -5 -65 0c-29 7 -48 23 -60 50c-7 13 -12 26 -19 38c-3 7 -7 11 -12 14c-11 7 -18 3 -21 -9c-2 -9 -3 -19 -3 -28c0 -8 2 -16 3 -23c1 -10 -3 -16 -12 -17
c-16 -3 -32 -3 -48 -4h-52c-8 0 -13 4 -15 11c-2 5 -3 9 -3 14c-3 24 -9 48 -8 73c0 23 7 43 21 60c17 21 39 34 65 40c8 3 18 3 27 3c15 -1 30 0 46 1c21 1 38 -7 55 -19c17 -15 26 -33 33 -54c3 -7 4 -13 7 -20l3 -10c7 -15 24 -15 32 -2c7 12 13 25 14 40v53
c0 11 2 15 14 16c12 3 24 2 37 2h8z" />
    <glyph glyph-name="adieresis" unicode="&#xe4;" horiz-adv-x="605" 
d="M571 73l4 -38c0 -11 -2 -13 -13 -16c-9 -3 -18 -2 -27 -3c-11 -1 -19 -2 -30 -2c-12 0 -23 1 -34 1s-21 0 -32 -1c-15 -2 -24 5 -26 20l-13 74l-9 63c-4 21 -6 22 -27 29c-23 5 -45 8 -66 8c-15 0 -27 0 -42 1c-13 1 -17 -1 -18 -14c-3 -27 -8 -50 -9 -77
c-1 -20 -4 -40 -7 -60c-1 -9 -2 -18 -5 -27c-3 -12 -10 -16 -22 -17l-84 -8c-21 -3 -42 -2 -65 -5c-3 0 -6 0 -8 1c-10 1 -14 7 -12 17c3 12 4 25 7 38l22 111c5 27 11 52 16 77l21 100c3 12 4 25 5 37c8 48 17 95 29 142l23 96c1 7 2 10 5 17c4 15 14 23 30 24
c35 4 67 8 102 5c21 -3 43 -1 64 -4l60 -8l70 -8c24 -3 23 -8 26 -27l8 -66c1 -16 2 -33 5 -49c3 -32 5 -64 10 -95c4 -27 10 -53 14 -80l8 -51c3 -16 5 -33 6 -49c3 -20 3 -40 6 -60c3 -24 4 -47 7 -71c0 -9 0 -17 1 -25zM373 362v1c0 1 -1 1 -1 2c-3 24 -5 48 -9 72
c-3 15 -6 31 -10 46c-2 9 -7 13 -15 14c-9 1 -18 2 -27 2c-8 0 -13 -4 -16 -12s-3 -17 -6 -26c-7 -28 -11 -57 -16 -86c-3 -7 -5 -14 -6 -21c-2 -11 3 -16 14 -15c3 0 5 0 6 1l71 4c10 1 15 7 15 18zM344 794c3 19 1 33 4 49c3 15 8 21 24 22l84 4c11 1 18 -5 21 -17
c8 -28 10 -58 7 -89l-2 -17c-2 -11 -7 -16 -16 -17c-8 -1 -16 -3 -25 -3c-16 -3 -33 -4 -49 -4c-9 -1 -17 1 -26 2c-9 2 -15 8 -16 18c-3 19 -3 37 -6 52zM158 797v44c0 15 3 21 18 24c13 3 25 5 38 6c16 1 32 1 48 -3c11 -3 16 -10 16 -21c0 -12 0 -25 -1 -38
c0 -19 -1 -36 -2 -55c0 -3 1 -5 0 -8c0 -13 -6 -20 -19 -20c-15 0 -28 1 -43 1c-12 0 -24 -1 -36 -2c-11 -1 -16 3 -17 12c-3 15 -2 30 -3 45c0 5 1 10 1 15z" />
    <glyph glyph-name="aring" unicode="&#xe5;" horiz-adv-x="605" 
d="M353 879c20 2 40 -4 60 -19c5 -3 10 -7 14 -12c7 -4 11 -9 16 -13c15 -12 26 -27 33 -44c9 -24 15 -49 18 -76c2 -16 1 -32 -3 -47l-3 -10c-2 -5 -1 -9 4 -12c11 -7 14 -16 15 -27c3 -23 4 -42 7 -65l9 -93c3 -31 6 -60 13 -89c6 -30 11 -61 15 -94c3 -17 4 -33 7 -49
c3 -20 4 -39 5 -59c3 -24 4 -48 7 -72c0 -7 0 -12 1 -15l3 -34c0 -4 1 -7 1 -10c1 -15 -2 -18 -17 -21c-15 -1 -27 -2 -42 -2c-21 -1 -42 0 -63 -1c-7 0 -12 0 -15 -1c-14 -1 -22 6 -25 20c-7 35 -12 69 -17 104l-7 42c-1 10 -6 16 -17 18c-23 7 -47 10 -73 10
c-15 0 -28 1 -43 2c-13 0 -15 -2 -18 -14c-3 -13 -2 -25 -5 -38c-3 -15 -3 -29 -4 -44c-1 -28 -6 -56 -13 -83c-2 -10 -9 -16 -20 -17l-86 -8l-63 -4c-3 -1 -6 0 -9 0c-10 1 -14 7 -12 17c4 25 9 49 14 74l14 68c7 28 11 57 18 86l20 98c3 15 3 26 6 41c7 47 16 91 28 136
c7 28 12 55 19 83l8 29c2 8 6 15 12 21s8 13 6 20c-3 9 -2 18 -5 27c-3 20 -3 40 1 59c5 21 13 40 29 55l34 32c13 11 28 18 45 21c24 4 49 10 78 10zM320 500c-19 0 -23 -4 -27 -19c-1 -5 -3 -12 -4 -20l-16 -86c-3 -7 -5 -15 -6 -22c-2 -11 3 -15 14 -14l37 3l42 3
c9 1 13 6 13 15c0 3 0 5 -1 6c-2 24 -5 48 -9 72c-3 15 -6 30 -10 45c-2 9 -7 14 -16 15c-7 1 -13 1 -17 2zM376 708v5c0 1 0 2 -1 3c-4 23 -17 34 -36 45c-7 3 -14 4 -21 3c-15 -2 -23 -9 -25 -22c-1 -7 -1 -14 1 -19c5 -20 19 -35 38 -44c18 -8 44 0 44 29z" />
    <glyph glyph-name="ae" unicode="&#xe6;" horiz-adv-x="765" 
d="M369 185h-55h-48h-6c-15 -1 -19 -4 -23 -19c-7 -23 -10 -47 -17 -71c-7 -21 -11 -43 -18 -64c-2 -11 -8 -17 -18 -18c-19 -4 -35 -7 -54 -10c-16 -1 -31 -2 -47 -2l-48 4c-9 1 -13 6 -12 15c0 3 1 7 2 11l16 73c9 46 22 89 37 130c8 20 13 40 17 63c11 48 21 97 41 144
c9 20 12 42 19 65c5 19 8 38 15 57c7 20 11 41 15 62c3 7 3 14 6 22s9 13 16 15c19 4 36 9 55 9c8 -1 17 1 25 2c11 2 21 2 32 0l32 -2c21 -3 42 -3 62 -7c13 -3 24 -6 37 -3c13 1 25 2 38 5l21 2c43 5 82 7 125 4c6 0 10 0 13 -1c9 -2 15 -8 16 -17c1 -7 2 -12 2 -19
c3 -27 3 -54 4 -82v-14c0 -12 -6 -19 -18 -21c-23 -4 -43 -6 -66 -9c-16 -3 -32 -3 -48 -4c-8 -1 -12 -6 -12 -14c0 -9 1 -18 0 -27l-3 -43c0 -4 0 -7 1 -10c1 -5 4 -8 10 -8c8 0 16 1 24 2l23 3c7 1 12 0 19 0c4 0 8 -1 12 -1h69c11 0 18 -5 21 -16s3 -19 4 -30
c3 -27 1 -51 -2 -78c-1 -7 -5 -13 -12 -16c-4 -1 -7 -2 -11 -2c-29 -1 -59 -5 -90 -14c-9 -3 -19 -3 -28 -4l-23 -2c-8 -1 -12 -6 -12 -13c1 -15 1 -27 4 -42c2 -7 7 -10 14 -9l56 8l34 3c16 1 31 2 46 2c13 0 26 -1 39 -4c7 -1 12 -6 13 -13c3 -11 8 -22 8 -33
c0 -37 -1 -74 -2 -111c0 -9 -2 -18 -5 -27c-3 -11 -10 -17 -21 -19c-19 -3 -39 -3 -60 -1c-12 3 -24 2 -36 3c-35 1 -70 2 -105 2l-88 2c-7 0 -15 1 -22 4c-9 2 -14 8 -15 17c-2 14 -3 28 -3 41c-1 19 1 36 1 55c0 21 -1 41 -2 62c0 9 -5 13 -14 13zM387 361v81
c0 15 -1 28 -2 43c0 9 -5 14 -15 14h-33c-20 -1 -23 -3 -28 -23l-22 -91l-10 -47c-3 -12 2 -18 13 -19s22 -2 33 -2c13 0 26 1 41 1h3c11 1 17 7 18 18c1 8 2 16 2 25z" />
    <glyph glyph-name="ccedilla" unicode="&#xe7;" horiz-adv-x="453" 
d="M419 53v-25c1 -11 -5 -19 -17 -22c-11 -3 -23 -3 -35 -6c-19 -3 -39 -4 -58 -7c-2 0 -5 -1 -9 -2c-6 -2 -9 -6 -9 -12c-1 -20 2 -22 21 -25c7 0 11 -1 18 -1c24 -1 40 -13 55 -32c23 -31 32 -66 29 -105c-1 -19 -9 -37 -20 -52c-20 -31 -45 -54 -76 -69
c-23 -9 -44 -16 -69 -16c-19 0 -37 -1 -56 3l-12 2c-8 3 -12 9 -13 16l-3 66c0 5 0 8 1 10c2 10 8 15 19 15c9 1 19 0 28 -1c32 -1 56 14 76 37c11 13 5 32 -4 39c-7 5 -15 4 -22 5c-11 0 -22 0 -33 -1l-46 -4c-11 -1 -17 4 -18 15c-2 27 -2 54 0 81c1 18 0 36 -3 54
c-1 5 -4 9 -9 13c-9 7 -17 13 -28 20c-19 11 -33 27 -45 44c-11 16 -18 33 -29 49c-11 19 -12 39 -17 59c-11 39 -10 78 -10 118c0 36 3 71 10 106c7 45 22 87 47 127c11 17 21 35 36 50c13 13 28 23 44 34c23 15 46 27 71 38c19 8 38 12 57 16c13 3 27 3 42 1
c13 -3 26 -2 39 -3l24 -4c11 -3 18 -12 18 -23c-1 -35 -4 -67 -8 -100c0 -4 -2 -8 -3 -11c-3 -8 -9 -13 -18 -15l-84 -12l-17 -2c-38 -7 -67 -28 -86 -63c-12 -21 -18 -44 -18 -68c-1 -39 5 -77 21 -113l20 -44c11 -20 23 -37 43 -46c11 -4 23 -8 35 -8c20 -1 39 -4 58 -7
c11 -3 23 -1 34 0c13 1 21 -5 23 -18l8 -100c-1 -1 -1 -1 -2 -1z" />
    <glyph glyph-name="egrave" unicode="&#xe8;" horiz-adv-x="487" 
d="M406 602l3 -53v-6c-1 -9 -3 -13 -14 -16c-7 -1 -11 -1 -16 -1c-31 -4 -61 -4 -92 -5c-17 -1 -34 -2 -51 -5c-15 -3 -16 -6 -16 -21c-1 -13 -1 -26 0 -39c0 -11 -1 -22 2 -33c1 -8 5 -12 13 -13c7 -1 11 0 18 0h47c15 0 29 0 44 -1c27 -1 52 -3 77 -6c12 -1 19 -8 20 -21
l6 -78c1 -7 2 -15 2 -22c0 -9 -4 -15 -13 -17c-19 -3 -35 -8 -54 -7c-7 0 -11 1 -18 1c-37 1 -74 -5 -110 -10l-25 -3c-9 -3 -12 -4 -12 -13c-1 -12 -2 -24 -2 -35c-1 -8 -1 -15 -1 -23c0 -11 6 -14 17 -15c15 -1 29 -1 44 2c21 4 41 4 64 4c31 -1 60 0 91 -1c5 0 9 0 12 -1
c8 -2 12 -7 13 -15v-13c1 -20 3 -39 3 -58c1 -12 0 -23 -1 -35v-12c-1 -9 -6 -15 -14 -16c-17 -3 -33 -4 -50 -5c-12 -1 -25 0 -37 -1l-33 -3c-23 -3 -45 -3 -68 -3c-40 3 -80 1 -120 -8c-19 -4 -36 -7 -55 -4c-9 1 -19 0 -28 -1c-12 -1 -20 6 -19 18c1 13 2 25 5 38v7v78
c1 33 2 66 5 101c1 29 3 57 6 86l9 118c3 37 7 74 7 111c1 27 4 51 7 76l3 27c1 13 8 23 24 24h15c12 1 23 1 34 1s23 -1 34 -1c20 1 40 3 61 3c15 1 30 0 45 -1c23 -3 45 -6 68 -5c11 1 19 0 30 -1c11 0 17 -5 19 -15c3 -11 2 -19 2 -30c0 -7 0 -15 -1 -23zM145 946
c11 -3 22 -3 37 -6l56 -8c9 -1 15 -6 18 -16l9 -45c8 -31 16 -62 23 -93c1 -5 2 -9 2 -10c2 -10 -2 -16 -12 -18l-56 -9c-15 -3 -21 -1 -32 14l-86 140c-5 8 -10 15 -14 23c-8 13 -5 21 10 24l5 2c12 0 24 1 40 2z" />
    <glyph glyph-name="eacute" unicode="&#xe9;" horiz-adv-x="487" 
d="M406 602c1 8 1 16 1 23c0 11 1 19 -2 30c-2 10 -8 15 -19 15c-11 1 -19 2 -30 1c-23 -1 -45 2 -68 5c-15 1 -30 2 -45 1c-21 0 -41 -2 -61 -3c-11 0 -23 1 -34 1s-22 0 -34 -1h-15c-16 -1 -23 -11 -24 -24l-3 -27c-3 -25 -6 -49 -7 -76c0 -37 -4 -74 -7 -111l-9 -118
c-3 -29 -5 -57 -6 -86c-3 -35 -4 -68 -5 -101v-78v-7c-3 -13 -4 -25 -5 -38c-1 -12 7 -19 19 -18c9 1 19 2 28 1c19 -3 36 0 55 4c40 9 80 11 120 8c23 0 45 0 68 3l33 3c12 1 25 0 37 1c17 1 33 2 50 5c8 1 13 7 14 16v12c1 12 2 23 1 35c0 19 -2 38 -3 58v13
c-1 8 -5 13 -13 15c-3 1 -7 1 -12 1c-31 1 -60 0 -91 1c-23 0 -43 0 -64 -4c-15 -3 -29 -3 -44 -2c-11 1 -17 4 -17 15c0 8 0 15 1 23c0 11 1 23 2 35c0 9 3 10 12 13l25 3c36 5 73 11 110 10c7 0 11 -1 18 -1c19 -1 35 4 54 7c9 2 13 8 13 17c0 7 -1 15 -2 22l-6 78
c-1 13 -8 20 -20 21c-25 3 -50 5 -77 6c-15 1 -29 1 -44 1h-47c-7 0 -11 -1 -18 0c-8 1 -12 5 -13 13c-3 11 -2 22 -2 33c-1 13 -1 26 0 39c0 15 1 18 16 21c17 3 34 4 51 5c31 1 61 1 92 5c5 0 9 0 16 1c11 3 13 7 14 16v6zM344 940c16 -1 28 -2 40 -2l5 -2
c15 -3 18 -11 10 -24c-4 -8 -9 -15 -14 -23l-86 -140c-11 -15 -17 -17 -32 -14l-56 9c-10 2 -14 8 -12 18c0 1 1 5 2 10c7 31 15 62 23 93l9 45c3 10 9 15 18 16l56 8c15 3 26 3 37 6z" />
    <glyph glyph-name="ecircumflex" unicode="&#xea;" horiz-adv-x="487" 
d="M406 602l3 -53v-6c-1 -9 -3 -13 -14 -16c-7 -1 -11 -1 -16 -1c-31 -4 -61 -4 -92 -5c-17 -1 -34 -2 -51 -5c-15 -3 -16 -6 -16 -21c-1 -13 -1 -26 0 -39c0 -11 -1 -22 2 -33c1 -8 5 -12 13 -13c7 -1 11 0 18 0h47c15 0 29 0 44 -1c27 -1 52 -3 77 -6c12 -1 19 -8 20 -21
l6 -78c1 -7 2 -15 2 -22c0 -9 -4 -15 -13 -17c-19 -3 -35 -8 -54 -7c-7 0 -11 1 -18 1c-37 1 -74 -5 -110 -10l-25 -3c-9 -3 -12 -4 -12 -13c-1 -12 -2 -24 -2 -35c-1 -8 -1 -15 -1 -23c0 -11 6 -14 17 -15c15 -1 29 -1 44 2c21 4 41 4 64 4c31 -1 60 0 91 -1c5 0 9 0 12 -1
c8 -2 12 -7 13 -15v-13c1 -20 3 -39 3 -58c1 -12 0 -23 -1 -35v-12c-1 -9 -6 -15 -14 -16c-17 -3 -33 -4 -50 -5c-12 -1 -25 0 -37 -1l-33 -3c-23 -3 -45 -3 -68 -3c-40 3 -80 1 -120 -8c-19 -4 -36 -7 -55 -4c-9 1 -19 0 -28 -1c-12 -1 -20 6 -19 18c1 13 2 25 5 38v7v78
c1 33 2 66 5 101c1 29 3 57 6 86l9 118c3 37 7 74 7 111c1 27 4 51 7 76l3 27c1 13 8 23 24 24h15c12 1 23 1 34 1s23 -1 34 -1c20 1 40 3 61 3c15 1 30 0 45 -1c23 -3 45 -6 68 -5c11 1 19 0 30 -1c11 0 17 -5 19 -15c3 -11 2 -19 2 -30c0 -7 0 -15 -1 -23zM279 948v-1
c8 0 15 -1 23 -1c11 0 20 -5 27 -16c20 -33 33 -68 48 -103c4 -11 9 -19 12 -30c7 -15 11 -28 18 -43c6 -15 2 -23 -13 -24l-32 -2c-20 -1 -39 0 -58 -3c-11 -1 -19 3 -23 13c-4 8 -9 16 -13 25c-11 19 -20 38 -31 58l-6 7c-5 5 -9 5 -11 -1c-7 -10 -11 -19 -14 -28l-19 -54
c-3 -10 -10 -15 -21 -15c-25 1 -50 3 -77 3c-7 1 -11 0 -18 1s-10 6 -10 15c1 4 1 9 4 13c13 31 22 62 31 93c9 27 22 48 38 71c3 5 9 10 17 13c19 4 36 7 56 7c11 0 24 2 35 2h37z" />
    <glyph glyph-name="edieresis" unicode="&#xeb;" horiz-adv-x="487" 
d="M406 602l3 -53v-6c-1 -9 -3 -13 -14 -16c-7 -1 -11 -1 -16 -1c-31 -4 -61 -4 -92 -5c-17 -1 -34 -2 -51 -5c-15 -3 -16 -6 -16 -21c-1 -13 -1 -26 0 -39c0 -11 -1 -22 2 -33c1 -8 5 -12 13 -13c7 -1 11 0 18 0h47c15 0 29 0 44 -1c27 -1 52 -3 77 -6c12 -1 19 -8 20 -21
l6 -78c1 -7 2 -15 2 -22c0 -9 -4 -15 -13 -17c-19 -3 -35 -8 -54 -7c-7 0 -11 1 -18 1c-37 1 -74 -5 -110 -10l-25 -3c-9 -3 -12 -4 -12 -13c-1 -12 -2 -24 -2 -35c-1 -8 -1 -15 -1 -23c0 -11 6 -14 17 -15c15 -1 29 -1 44 2c21 4 41 4 64 4c31 -1 60 0 91 -1c5 0 9 0 12 -1
c8 -2 12 -7 13 -15v-13c1 -20 3 -39 3 -58c1 -12 0 -23 -1 -35v-12c-1 -9 -6 -15 -14 -16c-17 -3 -33 -4 -50 -5c-12 -1 -25 0 -37 -1l-33 -3c-23 -3 -45 -3 -68 -3c-40 3 -80 1 -120 -8c-19 -4 -36 -7 -55 -4c-9 1 -19 0 -28 -1c-12 -1 -20 6 -19 18c1 13 2 25 5 38v7v78
c1 33 2 66 5 101c1 29 3 57 6 86l9 118c3 37 7 74 7 111c1 27 4 51 7 76l3 27c1 13 8 23 24 24h15c12 1 23 1 34 1s23 -1 34 -1c20 1 40 3 61 3c15 1 30 0 45 -1c23 -3 45 -6 68 -5c11 1 19 0 30 -1c11 0 17 -5 19 -15c3 -11 2 -19 2 -30c0 -7 0 -15 -1 -23zM274 803
c3 19 1 33 4 49c3 15 8 21 24 22l84 4c11 1 18 -5 21 -17c8 -28 10 -58 7 -89l-2 -17c-2 -11 -7 -16 -16 -17c-8 -1 -16 -3 -25 -3c-16 -3 -33 -4 -49 -4c-9 -1 -17 1 -26 2c-9 2 -15 8 -16 18c-3 19 -3 37 -6 52zM88 806v44c0 15 3 21 18 24c13 3 25 5 38 6
c16 1 32 1 48 -3c11 -3 16 -10 16 -21c0 -12 0 -25 -1 -38c0 -19 -1 -36 -2 -55c0 -3 1 -5 0 -8c0 -13 -6 -20 -19 -20c-15 0 -28 1 -43 1c-12 0 -24 -1 -36 -2c-11 -1 -16 3 -17 12c-3 15 -2 30 -3 45c0 5 1 10 1 15z" />
    <glyph glyph-name="igrave" unicode="&#xec;" 
d="M37 118c0 16 1 31 1 46c0 16 -2 31 -2 47c-1 12 0 24 0 36v15c1 17 4 34 1 51c-1 16 1 31 1 46c1 39 0 79 1 118l4 125c1 12 1 25 1 37c1 11 6 17 15 20c7 1 12 2 15 2c21 1 44 -1 69 -5c15 -3 30 -1 45 -4h6c20 0 27 -7 28 -27c0 -48 -4 -96 -11 -144
c-7 -31 -8 -63 -4 -95c1 -7 0 -14 1 -21c1 -27 4 -54 5 -81c1 -24 0 -49 0 -74v-5c-1 -36 -2 -71 -2 -107c0 -19 0 -36 1 -53c0 -24 -6 -30 -29 -29l-60 2c-19 0 -38 -1 -58 -1c-2 -1 -5 -1 -8 0c-10 1 -15 7 -16 16l-3 35c0 17 -1 34 -1 50zM26 920c11 -3 22 -3 37 -6
l56 -8c9 -1 15 -6 18 -16l9 -45c8 -31 16 -62 23 -93c1 -5 2 -9 2 -10c2 -10 -2 -16 -12 -18l-56 -9c-15 -3 -21 -1 -32 14l-86 140c-5 8 -10 15 -14 23c-8 13 -5 21 10 24l5 2c12 0 24 1 40 2z" />
    <glyph glyph-name="iacute" unicode="&#xed;" 
d="M37 118c0 -16 1 -33 1 -50l3 -35c1 -9 6 -15 16 -16c3 -1 6 -1 8 0c20 0 39 1 58 1l60 -2c23 -1 29 5 29 29c-1 17 -1 34 -1 53c0 36 1 71 2 107v5c0 25 1 50 0 74c-1 27 -4 54 -5 81c-1 7 0 14 -1 21c-4 32 -3 64 4 95c7 48 11 96 11 144c-1 20 -8 27 -28 27h-6
c-15 3 -30 1 -45 4c-25 4 -48 6 -69 5c-3 0 -8 -1 -15 -2c-9 -3 -14 -9 -15 -20c0 -12 0 -25 -1 -37l-4 -125c-1 -39 0 -79 -1 -118c0 -15 -2 -30 -1 -46c3 -17 0 -34 -1 -51v-15c0 -12 -1 -24 0 -36c0 -16 2 -31 2 -47c0 -15 -1 -30 -1 -46zM229 920c16 -1 28 -2 40 -2
l5 -2c15 -3 18 -11 10 -24c-4 -8 -9 -15 -14 -23l-86 -140c-11 -15 -17 -17 -32 -14l-56 9c-10 2 -14 8 -12 18c0 1 1 5 2 10c7 31 15 62 23 93l9 45c3 10 9 15 18 16l56 8c15 3 26 3 37 6z" />
    <glyph glyph-name="icircumflex" unicode="&#xee;" 
d="M37 118c0 16 1 31 1 46c0 16 -2 31 -2 47c-1 12 0 24 0 36v15c1 17 4 34 1 51c-1 16 1 31 1 46c1 39 0 79 1 118l4 125c1 12 1 25 1 37c1 11 6 17 15 20c7 1 12 2 15 2c21 1 44 -1 69 -5c15 -3 30 -1 45 -4h6c20 0 27 -7 28 -27c0 -48 -4 -96 -11 -144
c-7 -31 -8 -63 -4 -95c1 -7 0 -14 1 -21c1 -27 4 -54 5 -81c1 -24 0 -49 0 -74v-5c-1 -36 -2 -71 -2 -107c0 -19 0 -36 1 -53c0 -24 -6 -30 -29 -29l-60 2c-19 0 -38 -1 -58 -1c-2 -1 -5 -1 -8 0c-10 1 -15 7 -16 16l-3 35c0 17 -1 34 -1 50zM170 928v-1c8 0 15 -1 23 -1
c11 0 20 -5 27 -16c20 -33 33 -68 48 -103c4 -11 9 -19 12 -30c7 -15 11 -28 18 -43c6 -15 2 -23 -13 -24l-32 -2c-20 -1 -39 0 -58 -3c-11 -1 -19 3 -23 13c-4 8 -9 16 -13 25c-11 19 -20 38 -31 58l-6 7c-5 5 -9 5 -11 -1c-7 -10 -11 -19 -14 -28l-19 -54
c-3 -10 -10 -15 -21 -15c-25 1 -50 3 -77 3c-7 1 -11 0 -18 1s-10 6 -10 15c1 4 1 9 4 13c13 31 22 62 31 93c9 27 22 48 38 71c3 5 9 10 17 13c19 4 36 7 56 7c11 0 24 2 35 2h37z" />
    <glyph glyph-name="idieresis" unicode="&#xef;" 
d="M37 118c0 16 1 31 1 46c0 16 -2 31 -2 47c-1 12 0 24 0 36v15c1 17 4 34 1 51c-1 16 1 31 1 46c1 39 0 79 1 118l4 125c1 12 1 25 1 37c1 11 6 17 15 20c7 1 12 2 15 2c21 1 44 -1 69 -5c15 -3 30 -1 45 -4h6c20 0 27 -7 28 -27c0 -48 -4 -96 -11 -144
c-7 -31 -8 -63 -4 -95c1 -7 0 -14 1 -21c1 -27 4 -54 5 -81c1 -24 0 -49 0 -74v-5c-1 -36 -2 -71 -2 -107c0 -19 0 -36 1 -53c0 -24 -6 -30 -29 -29l-60 2c-19 0 -38 -1 -58 -1c-2 -1 -5 -1 -8 0c-10 1 -15 7 -16 16l-3 35c0 17 -1 34 -1 50zM147 783c3 19 1 33 4 49
c3 15 8 21 24 22l84 4c11 1 18 -5 21 -17c8 -28 10 -58 7 -89l-2 -17c-2 -11 -7 -16 -16 -17c-8 -1 -16 -3 -25 -3c-16 -3 -33 -4 -49 -4c-9 -1 -17 1 -26 2c-9 2 -15 8 -16 18c-3 19 -3 37 -6 52zM-39 786v44c0 15 3 21 18 24c13 3 25 5 38 6c16 1 32 1 48 -3
c11 -3 16 -10 16 -21c0 -12 0 -25 -1 -38c0 -19 -1 -36 -2 -55c0 -3 1 -5 0 -8c0 -13 -6 -20 -19 -20c-15 0 -28 1 -43 1c-12 0 -24 -1 -36 -2c-11 -1 -16 3 -17 12c-3 15 -2 30 -3 45c0 5 1 10 1 15z" />
    <glyph glyph-name="eth" unicode="&#xf0;" horiz-adv-x="557" 
d="M231 708c35 3 71 -6 110 -17c15 -4 29 -8 44 -16c23 -13 42 -29 59 -48s29 -39 41 -62c11 -19 21 -38 28 -58c11 -28 18 -55 19 -86c3 -31 3 -63 -5 -95c-5 -19 -7 -40 -10 -60c-4 -17 -10 -34 -17 -51c-8 -23 -16 -43 -29 -63c-1 -1 -3 -3 -4 -6
c-16 -37 -45 -63 -74 -90c-23 -23 -51 -36 -79 -51c-19 -11 -39 -15 -62 -20c-27 -7 -54 -11 -82 -14c-17 -1 -34 -1 -50 -1c-8 0 -15 -1 -22 -1c-15 -1 -21 2 -25 17c-7 24 -13 49 -16 74l-9 75c-4 31 -7 61 -10 92c0 5 -1 10 -1 17c-1 7 -5 11 -11 12c-7 1 -12 1 -19 1
c-15 0 -18 3 -21 18c-2 11 -3 21 -3 32c-1 26 0 52 3 79c2 14 9 21 21 21h13c13 1 17 4 18 17l3 46c3 28 4 56 7 84c0 7 0 12 1 19c3 28 3 57 6 85c1 12 7 20 20 25c11 4 20 7 31 10c39 11 78 18 125 15zM228 524c-7 -1 -13 0 -20 -3c-15 -3 -19 -9 -19 -24v-5
c0 -13 1 -27 2 -40c0 -12 1 -23 2 -34c0 -8 3 -9 11 -12c5 0 9 0 12 -1c7 0 12 0 19 -1c11 -2 16 -9 17 -20c1 -1 1 -4 1 -7c-1 -25 -2 -50 -2 -77l-2 -25c0 -10 -5 -16 -15 -18c-8 -1 -16 -1 -24 -1c-8 -1 -12 -5 -13 -13c0 -5 1 -9 2 -14c1 -13 1 -26 4 -38
c2 -12 7 -17 16 -15c20 3 39 4 58 11l28 11c18 7 33 18 44 31c28 32 43 69 48 112c1 13 1 25 -4 37l-14 44c-4 9 -6 19 -13 28c-15 23 -30 43 -57 52l-9 4c-23 12 -45 17 -72 18z" />
    <glyph glyph-name="ntilde" unicode="&#xf1;" horiz-adv-x="654" 
d="M216 359c-7 -8 -4 -16 -5 -24c-3 -31 -2 -61 -5 -92l-4 -37l-4 -55c-1 -27 -1 -50 -1 -77c0 -16 0 -31 -1 -47c0 -15 -8 -23 -23 -24h-16l-74 -4c-11 0 -21 -1 -32 -1s-16 5 -16 16c-1 11 -1 23 0 34c3 35 9 70 10 105c0 19 1 35 1 54l4 56c1 17 2 34 2 51
c3 31 3 59 4 90c1 5 0 10 0 15l2 52v36c3 32 3 63 6 95c1 13 4 26 7 39c2 9 8 14 19 14c11 1 23 0 34 1c12 0 25 1 37 2c13 1 25 3 38 2c8 -1 16 -1 23 -1c11 0 19 -5 24 -16c3 -8 5 -16 9 -23c9 -17 18 -35 29 -51c14 -22 26 -44 35 -65c7 -15 14 -28 22 -38
c25 -32 46 -64 69 -99c3 -5 7 -10 11 -15c2 -3 6 -7 12 -13c3 3 4 6 5 9c1 5 2 9 2 12v58c1 32 0 65 3 98c1 19 -1 38 -1 57s1 34 1 53c1 4 1 9 1 13c0 11 5 17 15 18c15 1 30 1 45 1c9 0 17 -1 28 -1c15 -1 29 -3 44 -3c11 -1 19 -6 23 -17c7 -13 6 -27 6 -42
c0 -16 0 -32 1 -49l4 -69c3 -24 3 -49 4 -73c1 -27 3 -54 2 -82c-1 -19 -1 -37 2 -56v-9l-2 -34c-1 -19 -3 -38 -3 -57c-1 -17 0 -34 -1 -50c0 -13 -2 -25 -3 -37c-3 -15 -4 -28 -7 -41c-1 -9 -6 -15 -15 -19c-23 -8 -48 -14 -72 -18c-7 -1 -14 0 -21 0l-41 2l-21 2
c-9 1 -16 6 -20 15l-14 31l-31 55c-7 12 -10 23 -17 35l-14 34c-5 11 -9 19 -16 30l-43 67c-16 27 -33 50 -49 77c-5 8 -5 7 -12 10zM479 939l55 -3c11 -1 17 -7 17 -18c0 -25 -1 -50 -2 -75c0 -23 -5 -47 -16 -70c-3 -7 -7 -13 -12 -18c-20 -24 -47 -35 -75 -42
c-3 -1 -8 -3 -15 -4c-23 -8 -42 -5 -65 0c-29 7 -48 23 -60 50c-7 13 -12 26 -19 38c-3 7 -7 11 -12 14c-11 7 -18 3 -21 -9c-2 -9 -3 -19 -3 -28c0 -8 2 -16 3 -23c1 -10 -3 -16 -12 -17c-16 -3 -32 -3 -48 -4h-52c-8 0 -13 4 -15 11c-2 5 -3 9 -3 14c-3 24 -9 48 -8 73
c0 23 7 43 21 60c17 21 39 34 65 40c8 3 18 3 27 3c15 -1 30 0 46 1c21 1 38 -7 55 -19c17 -15 26 -33 33 -54c3 -7 4 -13 7 -20l3 -10c7 -15 24 -15 32 -2c7 12 13 25 14 40v53c0 11 2 15 14 16c12 3 24 2 37 2h8z" />
    <glyph glyph-name="ograve" unicode="&#xf2;" horiz-adv-x="639" 
d="M29 300h-1c3 32 2 65 5 97c5 39 14 75 27 110c11 28 22 54 38 78c21 33 48 55 82 68c23 9 46 14 67 17c16 3 32 1 48 1c13 0 25 -1 40 -1c9 -1 18 -1 29 -4c27 -7 51 -15 76 -26c32 -15 61 -35 86 -60c16 -16 27 -36 38 -56c19 -36 30 -74 39 -113c7 -32 10 -63 8 -92
c-1 -16 -1 -31 -1 -46c1 -20 -3 -39 -7 -58c-8 -32 -23 -60 -42 -87c-4 -7 -8 -12 -12 -17l-22 -24c-21 -23 -47 -40 -71 -59c-27 -20 -53 -36 -88 -40l-65 -9c-47 -3 -90 5 -127 36c-21 17 -43 32 -63 51c-27 24 -43 54 -58 87c-15 35 -23 70 -26 107c-1 13 0 25 0 40z
M446 338c-1 13 0 27 -3 40l-8 39c-13 49 -44 80 -91 94c-7 1 -12 2 -19 1c-11 0 -21 -1 -32 -3c-8 -3 -16 -4 -24 -7c-26 -13 -45 -31 -58 -56c-15 -31 -29 -64 -34 -99c-1 -9 -2 -17 -1 -26c0 -19 4 -37 11 -54c10 -35 31 -62 62 -80c23 -13 44 -23 71 -18c19 3 36 6 51 18
c27 19 47 44 61 75c11 25 13 49 14 76zM175 940c11 -3 22 -3 37 -6l56 -8c9 -1 15 -6 18 -16l9 -45c8 -31 16 -62 23 -93c1 -5 2 -9 2 -10c2 -10 -2 -16 -12 -18l-56 -9c-15 -3 -21 -1 -32 14l-86 140c-5 8 -10 15 -14 23c-8 13 -5 21 10 24l5 2c12 0 24 1 40 2z" />
    <glyph glyph-name="oacute" unicode="&#xf3;" horiz-adv-x="639" 
d="M28 300h1c0 -15 -1 -27 0 -40c3 -37 11 -72 26 -107c15 -33 31 -63 58 -87c20 -19 42 -34 63 -51c37 -31 80 -39 127 -36l65 9c35 4 61 20 88 40c24 19 50 36 71 59l22 24c4 5 8 10 12 17c19 27 34 55 42 87c4 19 8 38 7 58c0 15 0 30 1 46c2 29 -1 60 -8 92
c-9 39 -20 77 -39 113c-11 20 -22 40 -38 56c-25 25 -54 45 -86 60c-25 11 -49 19 -76 26c-11 3 -20 3 -29 4c-15 0 -27 1 -40 1c-16 0 -32 2 -48 -1c-21 -3 -44 -8 -67 -17c-34 -13 -61 -35 -82 -68c-16 -24 -27 -50 -38 -78c-13 -35 -22 -71 -27 -110
c-3 -32 -2 -65 -5 -97zM446 338c-1 -27 -3 -51 -14 -76c-14 -31 -34 -56 -61 -75c-15 -12 -32 -15 -51 -18c-27 -5 -48 5 -71 18c-31 18 -52 45 -62 80c-7 17 -11 35 -11 54c-1 9 0 17 1 26c5 35 19 68 34 99c13 25 32 43 58 56c8 3 16 4 24 7c11 2 21 3 32 3
c7 1 12 0 19 -1c47 -14 78 -45 91 -94l8 -39c3 -13 2 -27 3 -40zM404 935c16 -1 28 -2 40 -2l5 -2c15 -3 18 -11 10 -24c-4 -8 -9 -15 -14 -23l-86 -140c-11 -15 -17 -17 -32 -14l-56 9c-10 2 -14 8 -12 18c0 1 1 5 2 10c7 31 15 62 23 93l9 45c3 10 9 15 18 16l56 8
c15 3 26 3 37 6z" />
    <glyph glyph-name="ocircumflex" unicode="&#xf4;" horiz-adv-x="639" 
d="M29 300h-1c3 32 2 65 5 97c5 39 14 75 27 110c11 28 22 54 38 78c21 33 48 55 82 68c23 9 46 14 67 17c16 3 32 1 48 1c13 0 25 -1 40 -1c9 -1 18 -1 29 -4c27 -7 51 -15 76 -26c32 -15 61 -35 86 -60c16 -16 27 -36 38 -56c19 -36 30 -74 39 -113c7 -32 10 -63 8 -92
c-1 -16 -1 -31 -1 -46c1 -20 -3 -39 -7 -58c-8 -32 -23 -60 -42 -87c-4 -7 -8 -12 -12 -17l-22 -24c-21 -23 -47 -40 -71 -59c-27 -20 -53 -36 -88 -40l-65 -9c-47 -3 -90 5 -127 36c-21 17 -43 32 -63 51c-27 24 -43 54 -58 87c-15 35 -23 70 -26 107c-1 13 0 25 0 40z
M446 338c-1 13 0 27 -3 40l-8 39c-13 49 -44 80 -91 94c-7 1 -12 2 -19 1c-11 0 -21 -1 -32 -3c-8 -3 -16 -4 -24 -7c-26 -13 -45 -31 -58 -56c-15 -31 -29 -64 -34 -99c-1 -9 -2 -17 -1 -26c0 -19 4 -37 11 -54c10 -35 31 -62 62 -80c23 -13 44 -23 71 -18c19 3 36 6 51 18
c27 19 47 44 61 75c11 25 13 49 14 76zM353 939v-1c8 0 15 -1 23 -1c11 0 20 -5 27 -16c20 -33 33 -68 48 -103c4 -11 9 -19 12 -30c7 -15 11 -28 18 -43c6 -15 2 -23 -13 -24l-32 -2c-20 -1 -39 0 -58 -3c-11 -1 -19 3 -23 13c-4 8 -9 16 -13 25c-11 19 -20 38 -31 58l-6 7
c-5 5 -9 5 -11 -1c-7 -10 -11 -19 -14 -28l-19 -54c-3 -10 -10 -15 -21 -15c-25 1 -50 3 -77 3c-7 1 -11 0 -18 1s-10 6 -10 15c1 4 1 9 4 13c13 31 22 62 31 93c9 27 22 48 38 71c3 5 9 10 17 13c19 4 36 7 56 7c11 0 24 2 35 2h37z" />
    <glyph glyph-name="otilde" unicode="&#xf5;" horiz-adv-x="639" 
d="M29 300h-1c3 32 2 65 5 97c5 39 14 75 27 110c11 28 22 54 38 78c21 33 48 55 82 68c23 9 46 14 67 17c16 3 32 1 48 1c13 0 25 -1 40 -1c9 -1 18 -1 29 -4c27 -7 51 -15 76 -26c32 -15 61 -35 86 -60c16 -16 27 -36 38 -56c19 -36 30 -74 39 -113c7 -32 10 -63 8 -92
c-1 -16 -1 -31 -1 -46c1 -20 -3 -39 -7 -58c-8 -32 -23 -60 -42 -87c-4 -7 -8 -12 -12 -17l-22 -24c-21 -23 -47 -40 -71 -59c-27 -20 -53 -36 -88 -40l-65 -9c-47 -3 -90 5 -127 36c-21 17 -43 32 -63 51c-27 24 -43 54 -58 87c-15 35 -23 70 -26 107c-1 13 0 25 0 40z
M446 338c-1 13 0 27 -3 40l-8 39c-13 49 -44 80 -91 94c-7 1 -12 2 -19 1c-11 0 -21 -1 -32 -3c-8 -3 -16 -4 -24 -7c-26 -13 -45 -31 -58 -56c-15 -31 -29 -64 -34 -99c-1 -9 -2 -17 -1 -26c0 -19 4 -37 11 -54c10 -35 31 -62 62 -80c23 -13 44 -23 71 -18c19 3 36 6 51 18
c27 19 47 44 61 75c11 25 13 49 14 76zM448 953l55 -3c11 -1 17 -7 17 -18c0 -25 -1 -50 -2 -75c0 -23 -5 -47 -16 -70c-3 -7 -7 -13 -12 -18c-20 -24 -47 -35 -75 -42c-3 -1 -8 -3 -15 -4c-23 -8 -42 -5 -65 0c-29 7 -48 23 -60 50c-7 13 -12 26 -19 38c-3 7 -7 11 -12 14
c-11 7 -18 3 -21 -9c-2 -9 -3 -19 -3 -28c0 -8 2 -16 3 -23c1 -10 -3 -16 -12 -17c-16 -3 -32 -3 -48 -4h-52c-8 0 -13 4 -15 11c-2 5 -3 9 -3 14c-3 24 -9 48 -8 73c0 23 7 43 21 60c17 21 39 34 65 40c8 3 18 3 27 3c15 -1 30 0 46 1c21 1 38 -7 55 -19
c17 -15 26 -33 33 -54c3 -7 4 -13 7 -20l3 -10c7 -15 24 -15 32 -2c7 12 13 25 14 40v53c0 11 2 15 14 16c12 3 24 2 37 2h8z" />
    <glyph glyph-name="odieresis" unicode="&#xf6;" horiz-adv-x="639" 
d="M29 300h-1c3 32 2 65 5 97c5 39 14 75 27 110c11 28 22 54 38 78c21 33 48 55 82 68c23 9 46 14 67 17c16 3 32 1 48 1c13 0 25 -1 40 -1c9 -1 18 -1 29 -4c27 -7 51 -15 76 -26c32 -15 61 -35 86 -60c16 -16 27 -36 38 -56c19 -36 30 -74 39 -113c7 -32 10 -63 8 -92
c-1 -16 -1 -31 -1 -46c1 -20 -3 -39 -7 -58c-8 -32 -23 -60 -42 -87c-4 -7 -8 -12 -12 -17l-22 -24c-21 -23 -47 -40 -71 -59c-27 -20 -53 -36 -88 -40l-65 -9c-47 -3 -90 5 -127 36c-21 17 -43 32 -63 51c-27 24 -43 54 -58 87c-15 35 -23 70 -26 107c-1 13 0 25 0 40z
M446 338c-1 13 0 27 -3 40l-8 39c-13 49 -44 80 -91 94c-7 1 -12 2 -19 1c-11 0 -21 -1 -32 -3c-8 -3 -16 -4 -24 -7c-26 -13 -45 -31 -58 -56c-15 -31 -29 -64 -34 -99c-1 -9 -2 -17 -1 -26c0 -19 4 -37 11 -54c10 -35 31 -62 62 -80c23 -13 44 -23 71 -18c19 3 36 6 51 18
c27 19 47 44 61 75c11 25 13 49 14 76zM329 797c3 19 1 33 4 49c3 15 8 21 24 22l84 4c11 1 18 -5 21 -17c8 -28 10 -58 7 -89l-2 -17c-2 -11 -7 -16 -16 -17c-8 -1 -16 -3 -25 -3c-16 -3 -33 -4 -49 -4c-9 -1 -17 1 -26 2c-9 2 -15 8 -16 18c-3 19 -3 37 -6 52zM143 800v44
c0 15 3 21 18 24c13 3 25 5 38 6c16 1 32 1 48 -3c11 -3 16 -10 16 -21c0 -12 0 -25 -1 -38c0 -19 -1 -36 -2 -55c0 -3 1 -5 0 -8c0 -13 -6 -20 -19 -20c-15 0 -28 1 -43 1c-12 0 -24 -1 -36 -2c-11 -1 -16 3 -17 12c-3 15 -2 30 -3 45c0 5 1 10 1 15z" />
    <glyph glyph-name="divide" unicode="&#xf7;" horiz-adv-x="352" 
d="M326 331c-3 -19 -3 -38 -6 -57c0 -3 -1 -7 -2 -11c-3 -8 -9 -12 -16 -12l-67 2l-24 2c-16 0 -31 2 -47 2c-23 -1 -47 1 -70 4c-19 1 -34 1 -53 -2c-16 -2 -23 5 -21 20c3 28 2 56 2 84c1 11 7 17 19 18c33 1 66 0 98 3c9 0 18 2 27 3c20 3 39 4 59 3c23 -3 44 0 67 -1h14
c10 -2 15 -7 16 -15c2 -5 3 -11 3 -17v-25c1 0 1 0 1 -1zM246 183l3 -69c1 -15 -2 -31 -5 -50l-3 -18c-2 -10 -8 -15 -17 -16c-8 0 -16 0 -24 1l-69 8c-7 1 -12 2 -19 5c-9 3 -13 9 -14 18c0 11 -2 22 -2 33c-1 25 -1 50 -1 77c0 13 6 20 19 22c19 3 36 6 55 7
c12 1 23 2 34 2c9 0 18 -1 27 -2c8 0 13 -4 15 -12c0 -3 1 -3 1 -6zM98 496h1l-2 42c-1 11 -2 20 -2 31c-1 9 4 15 14 16h15c19 0 37 1 56 0c13 0 25 -1 40 -2c16 -3 20 -7 23 -24c1 -17 6 -33 3 -52c-3 -17 -4 -34 -7 -51c-3 -13 -11 -20 -25 -19l-38 4l-51 2
c-3 0 -8 1 -15 2c-8 1 -12 6 -12 15v18v18z" />
    <glyph glyph-name="oslash" unicode="&#xf8;" horiz-adv-x="639" 
d="M276 671c23 0 46 1 70 -2c8 0 16 -1 24 -4l41 -12c9 -3 16 -1 23 6c1 3 2 4 5 7c7 7 15 8 24 4l85 -35c7 -3 14 -7 19 -10c9 -6 11 -14 7 -25c-4 -12 -9 -23 -15 -32c-6 -12 -6 -24 1 -35c19 -33 29 -70 40 -107c9 -31 12 -63 12 -95c0 -27 1 -52 -2 -77
c-3 -32 -12 -61 -25 -87c-11 -21 -25 -42 -41 -63c-4 -5 -8 -9 -15 -16c-19 -20 -43 -35 -64 -54c-17 -15 -35 -24 -54 -33c-8 -5 -18 -8 -30 -10c-25 -4 -49 -8 -76 -11c-33 -3 -67 0 -98 15l-14 9c-11 5 -14 5 -21 -4l-9 -11c-8 -11 -14 -12 -26 -7l-60 24l-48 20
c-2 1 -5 2 -9 5c-9 6 -11 13 -5 22c9 15 18 27 29 42l15 22c5 7 6 15 2 24c-3 5 -4 10 -7 17c-14 32 -22 66 -24 102c-3 28 -2 57 1 85c1 7 1 12 1 17c-1 27 5 53 10 80c7 32 16 62 29 91c11 27 24 53 44 74c19 22 41 37 67 46c22 9 44 14 65 17c5 1 24 2 29 1zM176 326
c0 -5 1 -12 3 -20c2 -7 6 -7 11 -2c3 3 4 7 7 10c12 19 23 35 36 54c12 17 26 32 38 51c16 25 32 50 48 77c1 3 2 5 2 6c2 4 0 7 -5 8c-2 1 -4 1 -6 0c-35 0 -60 -14 -83 -41c-21 -25 -30 -55 -41 -86c-7 -19 -10 -36 -10 -57zM440 371c-7 -1 -8 -5 -11 -9
c-9 -12 -17 -24 -25 -36l-93 -139c-3 -4 -4 -7 -5 -9c-2 -4 -1 -7 4 -8c1 -1 3 -1 6 -1c11 3 19 2 30 5c16 4 29 15 42 26c25 21 39 48 50 79c9 27 8 54 8 81c0 5 -2 9 -6 11z" />
    <glyph glyph-name="ugrave" unicode="&#xf9;" horiz-adv-x="611" 
d="M32 402h2c0 20 -1 40 0 60c1 19 4 36 5 55c1 16 2 32 2 47c1 19 1 39 1 58c0 11 6 17 17 19c15 3 30 1 45 -2c27 -3 54 -5 81 -1l17 2c3 0 7 -1 11 -1c9 -2 13 -7 13 -16c0 -20 0 -41 -1 -62c-1 -23 -2 -45 -5 -68l-2 -54l-3 -62l-3 -48l-2 -16c0 -27 6 -50 17 -71
c4 -8 7 -17 12 -24c15 -23 41 -28 64 -16c25 13 37 34 45 59c7 21 8 43 11 66l8 59c1 9 2 17 2 28c3 25 3 49 4 74c1 9 0 18 -1 27c-4 27 -4 53 0 80c3 16 2 33 1 49c0 19 1 21 20 22c29 3 59 2 88 -1c23 -3 42 -2 65 -2c7 0 13 1 20 1c13 1 19 -5 18 -18
c-3 -29 -3 -59 -6 -88c-1 -12 1 -24 -2 -36l-13 -97l-9 -74c-3 -27 -5 -54 -10 -81c-4 -23 -11 -46 -22 -66c-13 -27 -25 -52 -40 -77c-17 -29 -37 -54 -62 -74c-19 -15 -40 -24 -63 -31c-7 -1 -12 -3 -17 -4c-10 -3 -21 -4 -32 -4c-16 0 -32 -1 -49 -2c-31 -3 -58 6 -85 21
c-21 12 -40 27 -59 44c-11 11 -20 24 -27 37c-23 39 -36 78 -45 121c-4 17 -3 34 -6 53c-3 39 -2 75 -5 114zM189 920c11 -3 22 -3 37 -6l56 -8c9 -1 15 -6 18 -16l9 -45c8 -31 16 -62 23 -93c1 -5 2 -9 2 -10c2 -10 -2 -16 -12 -18l-56 -9c-15 -3 -21 -1 -32 14l-86 140
c-5 8 -10 15 -14 23c-8 13 -5 21 10 24l5 2c12 0 24 1 40 2z" />
    <glyph glyph-name="uacute" unicode="&#xfa;" horiz-adv-x="611" 
d="M34 402h-2c3 -39 2 -75 5 -114c3 -19 2 -36 6 -53c9 -43 22 -82 45 -121c7 -13 16 -26 27 -37c19 -17 38 -32 59 -44c27 -15 54 -24 85 -21c17 1 33 2 49 2c11 0 22 1 32 4c5 1 10 3 17 4c23 7 44 16 63 31c25 20 45 45 62 74c15 25 27 50 40 77c11 20 18 43 22 66
c5 27 7 54 10 81l9 74l13 97c3 12 1 24 2 36c3 29 3 59 6 88c1 13 -5 19 -18 18c-7 0 -13 -1 -20 -1c-23 0 -42 -1 -65 2c-29 3 -59 4 -88 1c-19 -1 -20 -3 -20 -22c1 -16 2 -33 -1 -49c-4 -27 -4 -53 0 -80c1 -9 2 -18 1 -27c-1 -25 -1 -49 -4 -74c0 -11 -1 -19 -2 -28
l-8 -59c-3 -23 -4 -45 -11 -66c-8 -25 -20 -46 -45 -59c-23 -12 -49 -7 -64 16c-5 7 -8 16 -12 24c-11 21 -17 44 -17 71l2 16l3 48l3 62l2 54c3 23 4 45 5 68c1 21 1 42 1 62c0 9 -4 14 -13 16c-4 0 -8 1 -11 1l-17 -2c-27 -4 -54 -2 -81 1c-15 3 -30 5 -45 2
c-11 -2 -17 -8 -17 -19c0 -19 0 -39 -1 -58c0 -15 -1 -31 -2 -47c-1 -19 -4 -36 -5 -55c-1 -20 0 -40 0 -60zM386 920c16 -1 28 -2 40 -2l5 -2c15 -3 18 -11 10 -24c-4 -8 -9 -15 -14 -23l-86 -140c-11 -15 -17 -17 -32 -14l-56 9c-10 2 -14 8 -12 18c0 1 1 5 2 10
c7 31 15 62 23 93l9 45c3 10 9 15 18 16l56 8c15 3 26 3 37 6z" />
    <glyph glyph-name="ucircumflex" unicode="&#xfb;" horiz-adv-x="611" 
d="M32 402h2c0 20 -1 40 0 60c1 19 4 36 5 55c1 16 2 32 2 47c1 19 1 39 1 58c0 11 6 17 17 19c15 3 30 1 45 -2c27 -3 54 -5 81 -1l17 2c3 0 7 -1 11 -1c9 -2 13 -7 13 -16c0 -20 0 -41 -1 -62c-1 -23 -2 -45 -5 -68l-2 -54l-3 -62l-3 -48l-2 -16c0 -27 6 -50 17 -71
c4 -8 7 -17 12 -24c15 -23 41 -28 64 -16c25 13 37 34 45 59c7 21 8 43 11 66l8 59c1 9 2 17 2 28c3 25 3 49 4 74c1 9 0 18 -1 27c-4 27 -4 53 0 80c3 16 2 33 1 49c0 19 1 21 20 22c29 3 59 2 88 -1c23 -3 42 -2 65 -2c7 0 13 1 20 1c13 1 19 -5 18 -18
c-3 -29 -3 -59 -6 -88c-1 -12 1 -24 -2 -36l-13 -97l-9 -74c-3 -27 -5 -54 -10 -81c-4 -23 -11 -46 -22 -66c-13 -27 -25 -52 -40 -77c-17 -29 -37 -54 -62 -74c-19 -15 -40 -24 -63 -31c-7 -1 -12 -3 -17 -4c-10 -3 -21 -4 -32 -4c-16 0 -32 -1 -49 -2c-31 -3 -58 6 -85 21
c-21 12 -40 27 -59 44c-11 11 -20 24 -27 37c-23 39 -36 78 -45 121c-4 17 -3 34 -6 53c-3 39 -2 75 -5 114zM339 942v-1c8 0 15 -1 23 -1c11 0 20 -5 27 -16c20 -33 33 -68 48 -103c4 -11 9 -19 12 -30c7 -15 11 -28 18 -43c6 -15 2 -23 -13 -24l-32 -2
c-20 -1 -39 0 -58 -3c-11 -1 -19 3 -23 13c-4 8 -9 16 -13 25c-11 19 -20 38 -31 58l-6 7c-5 5 -9 5 -11 -1c-7 -10 -11 -19 -14 -28l-19 -54c-3 -10 -10 -15 -21 -15c-25 1 -50 3 -77 3c-7 1 -11 0 -18 1s-10 6 -10 15c1 4 1 9 4 13c13 31 22 62 31 93c9 27 22 48 38 71
c3 5 9 10 17 13c19 4 36 7 56 7c11 0 24 2 35 2h37z" />
    <glyph glyph-name="udieresis" unicode="&#xfc;" horiz-adv-x="611" 
d="M32 402h2c0 20 -1 40 0 60c1 19 4 36 5 55c1 16 2 32 2 47c1 19 1 39 1 58c0 11 6 17 17 19c15 3 30 1 45 -2c27 -3 54 -5 81 -1l17 2c3 0 7 -1 11 -1c9 -2 13 -7 13 -16c0 -20 0 -41 -1 -62c-1 -23 -2 -45 -5 -68l-2 -54l-3 -62l-3 -48l-2 -16c0 -27 6 -50 17 -71
c4 -8 7 -17 12 -24c15 -23 41 -28 64 -16c25 13 37 34 45 59c7 21 8 43 11 66l8 59c1 9 2 17 2 28c3 25 3 49 4 74c1 9 0 18 -1 27c-4 27 -4 53 0 80c3 16 2 33 1 49c0 19 1 21 20 22c29 3 59 2 88 -1c23 -3 42 -2 65 -2c7 0 13 1 20 1c13 1 19 -5 18 -18
c-3 -29 -3 -59 -6 -88c-1 -12 1 -24 -2 -36l-13 -97l-9 -74c-3 -27 -5 -54 -10 -81c-4 -23 -11 -46 -22 -66c-13 -27 -25 -52 -40 -77c-17 -29 -37 -54 -62 -74c-19 -15 -40 -24 -63 -31c-7 -1 -12 -3 -17 -4c-10 -3 -21 -4 -32 -4c-16 0 -32 -1 -49 -2c-31 -3 -58 6 -85 21
c-21 12 -40 27 -59 44c-11 11 -20 24 -27 37c-23 39 -36 78 -45 121c-4 17 -3 34 -6 53c-3 39 -2 75 -5 114zM324 779c3 19 1 33 4 49c3 15 8 21 24 22l84 4c11 1 18 -5 21 -17c8 -28 10 -58 7 -89l-2 -17c-2 -11 -7 -16 -16 -17c-8 -1 -16 -3 -25 -3c-16 -3 -33 -4 -49 -4
c-9 -1 -17 1 -26 2c-9 2 -15 8 -16 18c-3 19 -3 37 -6 52zM138 782v44c0 15 3 21 18 24c13 3 25 5 38 6c16 1 32 1 48 -3c11 -3 16 -10 16 -21c0 -12 0 -25 -1 -38c0 -19 -1 -36 -2 -55c0 -3 1 -5 0 -8c0 -13 -6 -20 -19 -20c-15 0 -28 1 -43 1c-12 0 -24 -1 -36 -2
c-11 -1 -16 3 -17 12c-3 15 -2 30 -3 45c0 5 1 10 1 15z" />
    <glyph glyph-name="yacute" unicode="&#xfd;" horiz-adv-x="594" 
d="M193 67h1v-20c1 -19 5 -23 24 -22s38 2 57 2c5 0 10 1 14 1l61 -2c17 0 33 -2 50 -3c8 0 13 4 16 12c1 7 3 11 2 18c0 27 -2 51 -3 78l-2 113c0 23 -1 42 -2 65c-1 11 0 20 4 27c8 16 16 32 25 48l27 50c7 12 11 25 18 37l44 89c7 15 15 30 20 45c8 23 16 46 23 69
c2 10 -2 16 -12 18l-23 2c-7 0 -14 0 -21 1c-16 3 -31 2 -47 5l-32 2c-10 0 -18 -4 -23 -11c-24 -32 -43 -68 -59 -105l-48 -107l-6 -9c-3 -5 -7 -5 -10 0l-6 12c-4 9 -7 18 -10 26c-12 31 -24 61 -41 89c-8 15 -16 29 -23 44l-14 27c-5 12 -15 18 -29 18l-45 -3
c-21 -3 -41 -4 -64 -7c-11 0 -19 1 -30 -2c-11 -1 -14 -7 -11 -18c2 -7 5 -13 9 -19l33 -57c19 -32 34 -65 53 -97c12 -24 23 -48 42 -68l15 -21c9 -15 18 -27 26 -42c6 -9 9 -18 10 -26c4 -27 3 -50 2 -77c-1 -24 -2 -48 -5 -72l-4 -44zM393 929c16 -1 28 -2 40 -2l5 -2
c15 -3 18 -11 10 -24c-4 -8 -9 -15 -14 -23l-86 -140c-11 -15 -17 -17 -32 -14l-56 9c-10 2 -14 8 -12 18c0 1 1 5 2 10c7 31 15 62 23 93l9 45c3 10 9 15 18 16l56 8c15 3 26 3 37 6z" />
    <glyph glyph-name="thorn" unicode="&#xfe;" horiz-adv-x="470" 
d="M77 668h29c13 0 30 1 47 2h24c11 -1 17 -7 17 -18c0 -12 -1 -23 -1 -35c0 -9 0 -17 1 -26c1 -8 5 -12 14 -12c29 0 57 -6 86 -9c23 -1 41 -11 60 -22c31 -19 57 -43 76 -74c11 -19 16 -40 16 -63c0 -19 0 -35 -3 -52c-5 -24 -14 -47 -21 -71l-8 -20
c-5 -12 -11 -24 -20 -36l-21 -27c-12 -17 -26 -30 -43 -39c-11 -7 -21 -11 -32 -18c-19 -11 -40 -15 -60 -20l-10 -2c-10 -3 -14 -9 -13 -20l4 -33c1 -13 1 -26 0 -39c0 -11 -1 -19 -2 -28c-2 -10 -7 -15 -16 -16c-15 -3 -26 -3 -41 -4l-59 -4c-19 0 -35 -1 -54 -1
c-10 0 -15 5 -15 16l-2 36c0 19 -1 39 -1 58c-1 17 0 33 1 52l4 69c1 27 2 55 2 82c-1 25 -2 49 -2 74c-1 9 0 18 0 27l-4 82v8c0 39 0 77 1 116c0 15 1 31 1 46c1 9 7 14 16 17c11 3 18 3 29 4zM197 322h-1c0 -15 1 -30 2 -45c1 -13 7 -17 19 -10c4 3 9 4 12 7
c8 5 15 10 22 17c8 7 14 15 18 24c3 9 7 17 10 28c12 44 -17 79 -66 80c-3 0 -3 -1 -6 -1c-7 -1 -10 -5 -11 -12c0 -15 -1 -30 -1 -45s2 -28 2 -43z" />
    <glyph glyph-name="ydieresis" unicode="&#xff;" horiz-adv-x="594" 
d="M194 67h-1l6 66l4 44c3 24 4 48 5 72c1 27 2 50 -2 77c-1 8 -4 17 -10 26c-8 15 -17 27 -26 42l-15 21c-19 20 -30 44 -42 68c-19 32 -34 65 -53 97l-33 57c-4 6 -7 12 -9 19c-3 11 0 17 11 18c11 3 19 2 30 2c23 3 43 4 64 7l45 3c14 0 24 -6 29 -18l14 -27
c7 -15 15 -29 23 -44c17 -28 29 -58 41 -89c3 -8 6 -17 10 -26l6 -12c3 -5 7 -5 10 0l6 9l48 107c16 37 35 73 59 105c5 7 13 11 23 11l32 -2c16 -3 31 -2 47 -5c7 -1 14 -1 21 -1l23 -2c10 -2 14 -8 12 -18c-7 -23 -15 -46 -23 -69c-5 -15 -13 -30 -20 -45l-44 -89
c-7 -12 -11 -25 -18 -37l-27 -50c-9 -16 -17 -32 -25 -48c-4 -7 -5 -16 -4 -27c1 -23 2 -42 2 -65l2 -113c1 -27 3 -51 3 -78c1 -7 -1 -11 -2 -18c-3 -8 -8 -12 -16 -12c-17 1 -33 3 -50 3l-61 2c-4 0 -9 -1 -14 -1c-19 0 -38 -1 -57 -2s-23 3 -24 22v20zM323 819
c3 19 1 33 4 49c3 15 8 21 24 22l84 4c11 1 18 -5 21 -17c8 -28 10 -58 7 -89l-2 -17c-2 -11 -7 -16 -16 -17c-8 -1 -16 -3 -25 -3c-16 -3 -33 -4 -49 -4c-9 -1 -17 1 -26 2c-9 2 -15 8 -16 18c-3 19 -3 37 -6 52zM137 822v44c0 15 3 21 18 24c13 3 25 5 38 6
c16 1 32 1 48 -3c11 -3 16 -10 16 -21c0 -12 0 -25 -1 -38c0 -19 -1 -36 -2 -55c0 -3 1 -5 0 -8c0 -13 -6 -20 -19 -20c-15 0 -28 1 -43 1c-12 0 -24 -1 -36 -2c-11 -1 -16 3 -17 12c-3 15 -2 30 -3 45c0 5 1 10 1 15z" />
    <glyph glyph-name="dotlessi" unicode="&#x131;" 
d="M37 118c0 16 1 31 1 46c0 16 -2 31 -2 47c-1 12 0 24 0 36v15c1 17 4 34 1 51c-1 16 1 31 1 46c1 39 0 79 1 118l4 125c1 12 1 25 1 37c1 11 6 17 15 20c7 1 12 2 15 2c21 1 44 -1 69 -5c15 -3 30 -1 45 -4h6c20 0 27 -7 28 -27c0 -48 -4 -96 -11 -144
c-7 -31 -8 -63 -4 -95c1 -7 0 -14 1 -21c1 -27 4 -54 5 -81c1 -24 0 -49 0 -74v-5c-1 -36 -2 -71 -2 -107c0 -19 0 -36 1 -53c0 -24 -6 -30 -29 -29l-60 2c-19 0 -38 -1 -58 -1c-2 -1 -5 -1 -8 0c-10 1 -15 7 -16 16l-3 35c0 17 -1 34 -1 50z" />
    <glyph glyph-name="Lslash" unicode="&#x141;" horiz-adv-x="394" 
d="M188 255v-30v-34c1 -12 7 -16 19 -13c24 7 49 10 76 7h3c27 3 51 3 76 0c12 0 18 -6 18 -19c1 -28 1 -56 1 -84c0 -13 0 -26 -1 -38c-3 -17 -7 -22 -23 -25c-24 -3 -48 -8 -73 -7c-7 0 -13 1 -20 1c-23 1 -43 -2 -66 -3c-15 -1 -27 -1 -40 -1c-4 0 -8 1 -11 1h-88
c-5 0 -9 0 -12 1c-6 1 -10 4 -11 11c-1 5 -2 9 -2 14c0 25 -1 50 -1 75l4 100l3 39v7c-1 7 -5 11 -12 12s-11 1 -16 1c-13 0 -20 6 -21 17s-3 22 -3 33c-1 27 0 53 3 79c2 14 9 21 22 21h18c15 1 18 4 21 19l8 61l8 76c3 13 3 27 6 40c2 10 7 16 16 19h6c20 0 40 -1 61 -2
c12 0 23 -1 33 -4c15 -3 17 -9 16 -24c-4 -22 -7 -44 -9 -66c-3 -15 -1 -29 -1 -44c0 -12 0 -24 -1 -36c0 -9 -1 -17 -1 -25s4 -13 13 -15c7 0 12 0 15 -1c7 0 13 0 16 -1c13 -2 20 -9 19 -22c0 -20 0 -39 -1 -58c0 -15 -1 -30 -2 -45c0 -17 -5 -22 -22 -23h-24h-7
c-8 -1 -12 -5 -13 -14z" />
    <glyph glyph-name="lslash" unicode="&#x142;" horiz-adv-x="422" 
d="M37 198h1l-3 84c0 12 -3 15 -16 18c-11 3 -13 5 -16 17c-1 11 -3 22 -3 33c-1 27 0 53 3 79c2 13 9 20 21 21c15 1 18 4 18 19l2 94c1 21 2 43 5 64c2 20 12 31 31 34c23 3 42 7 65 10c8 1 16 -1 24 -2l47 -3c13 0 18 -6 16 -19l-12 -120c-3 -20 -2 -41 -2 -61
c-1 -13 3 -15 16 -18c5 0 11 0 16 -1c13 -2 20 -10 19 -23c0 -19 0 -36 -1 -53c0 -19 -1 -35 -2 -52c0 -11 -6 -18 -18 -20h-10h-15c-9 -1 -12 -2 -13 -13c-1 -12 -2 -24 -2 -36s1 -24 2 -36c0 -3 -1 -6 0 -9c1 -10 6 -15 16 -15c32 -1 64 -8 96 -13c19 -3 38 -6 57 -7
c11 -1 17 -7 19 -18c4 -25 8 -49 11 -76c1 -11 1 -21 0 -31c0 -10 -5 -16 -14 -17c-15 -3 -26 -6 -41 -7l-55 -2c-23 -1 -46 -2 -69 -2c-15 0 -26 2 -41 3s-30 1 -46 1c-17 1 -35 1 -52 1c-7 0 -12 0 -19 -1h-10c-9 0 -15 5 -17 14c-1 3 -1 7 -1 12c0 31 -2 60 -5 91z" />
    <glyph glyph-name="OE" unicode="&#x152;" horiz-adv-x="825" 
d="M787 609h1c0 -24 1 -48 0 -72c0 -15 -3 -19 -18 -22c-19 -3 -38 -4 -55 -2c-19 1 -34 -2 -53 -7c-6 -2 -9 -6 -9 -13v-27c1 -11 1 -21 4 -32v-4c3 -13 6 -17 21 -14c11 3 23 3 35 2l33 -4l19 -2c11 -2 16 -8 16 -19c3 -24 4 -49 5 -73c1 -5 1 -9 0 -13
c0 -11 -5 -16 -14 -17c-12 -3 -25 -3 -37 -4l-54 -4h-18c-13 -1 -20 -7 -22 -20c-1 -10 -1 -20 0 -30c0 -15 1 -26 1 -41c1 -15 5 -19 20 -19c19 -1 35 -2 54 -2l39 -2c15 0 22 -7 22 -22v-24c1 -28 2 -56 2 -84v-8c-1 -11 -7 -16 -16 -16c-7 -1 -13 0 -20 0
c-15 0 -26 1 -41 1l-36 3l-66 6l-68 2c-13 0 -26 1 -39 2c-9 0 -16 -2 -22 -5c-27 -17 -54 -23 -85 -28c-15 -3 -27 -2 -42 -5h-3c-33 3 -65 1 -96 16c-19 11 -38 17 -57 28l-23 16c-15 11 -30 22 -45 34c-19 17 -36 36 -51 59c-15 27 -32 52 -39 83c-2 6 -3 12 -3 17
c-3 27 -2 55 3 83c7 35 14 71 27 104c7 18 15 37 26 56c15 24 29 48 45 71c15 23 32 44 55 60c20 15 40 30 63 42c27 16 57 26 90 25c17 -1 33 -3 52 -3c8 -1 16 -1 25 0c19 0 37 -5 56 -14l22 -11c7 -3 14 -5 22 0c5 2 10 3 15 3c13 2 26 3 39 3c19 -1 38 -1 57 -4h8
c20 -1 39 -1 59 -1c13 -1 25 1 38 1c15 -1 30 -2 45 -2c9 -1 13 -6 13 -15v-32zM476 343c3 23 -4 46 -11 69c-8 31 -25 54 -45 77c-5 6 -10 10 -15 13c-15 9 -31 16 -46 21c-7 3 -13 4 -20 3c-12 -3 -24 -6 -35 -10c-25 -9 -43 -26 -59 -46c-31 -37 -46 -79 -57 -124
c-6 -27 -5 -55 2 -83c11 -44 37 -76 80 -97c8 -4 17 -7 26 -11c23 -11 46 -10 70 -5c22 4 39 15 50 32l4 4c24 27 38 57 49 92c7 21 7 42 7 65z" />
    <glyph glyph-name="oe" unicode="&#x153;" horiz-adv-x="899" 
d="M775 253c-31 1 -59 -4 -90 -8l-39 -4c-12 -3 -16 -5 -17 -18c-1 -16 -2 -32 -2 -48v-7c1 -7 6 -12 15 -14c19 -3 38 0 57 3c16 3 32 4 49 3c13 -3 25 0 38 0c7 0 12 -1 19 -1h40c15 0 23 -8 24 -23v-46c1 -15 1 -31 1 -47c1 -7 0 -12 -1 -19c-1 -9 -6 -14 -15 -15
c-17 -3 -34 -3 -53 -6h-4c-23 3 -45 -1 -68 -4s-42 -4 -65 -1c-31 1 -62 2 -93 -5c-13 -3 -25 -4 -40 -7c-11 -1 -19 -2 -30 -2h-39c-10 0 -15 5 -16 15v9c-1 6 -5 8 -10 6s-10 -4 -13 -7c-15 -9 -31 -14 -48 -17c-29 -7 -58 -11 -87 -12c-36 -1 -70 5 -101 28
c-27 20 -53 39 -78 62c-27 23 -42 55 -57 87c-15 35 -22 70 -25 106c-3 31 -2 60 2 89c1 2 1 5 1 8c-3 28 4 54 9 81c7 33 17 65 30 95c11 27 25 52 44 73c16 19 35 33 58 42c21 9 42 15 65 19c19 5 39 3 59 2c13 0 26 0 38 -1c11 -1 18 0 29 -3c27 -7 51 -14 75 -26
c11 -7 22 -10 33 -17c9 -3 14 -1 16 8c1 7 0 11 3 18c2 11 8 17 18 18c7 1 14 1 21 1c24 1 47 0 71 1c20 0 41 2 61 2c27 1 53 -2 80 -5l43 -2c5 0 10 1 15 0c13 0 19 -5 20 -16c3 -11 1 -23 2 -34v-53c0 -8 1 -16 1 -24c0 -10 -5 -15 -15 -16c-11 -3 -21 -2 -32 -3l-57 -2
c-23 -3 -45 -3 -68 -6c-11 -1 -17 -7 -16 -20v-58c0 -4 1 -8 2 -13c1 -11 7 -16 20 -16c15 1 29 2 44 2c30 0 60 -1 90 -3c16 -1 31 -2 47 -5c11 -1 16 -6 17 -17c3 -15 3 -30 6 -45c1 -19 1 -36 4 -53c1 -13 -5 -21 -18 -24c-17 -3 -34 -7 -51 -6c-7 0 -12 1 -19 1z
M445 345h-1c0 5 0 10 -1 17c-3 17 -5 33 -9 52c-12 50 -42 82 -91 96c-7 3 -13 2 -20 2c-11 -1 -20 -1 -31 -4c-7 -1 -12 -2 -19 -5c-29 -11 -51 -31 -64 -59c-13 -27 -24 -53 -31 -84c-3 -12 -4 -24 -4 -36c0 -20 4 -39 11 -58c11 -35 31 -61 62 -80c23 -12 44 -22 71 -17
c19 3 37 6 52 17c27 20 47 46 60 77c4 8 7 16 9 25c3 19 3 38 6 57z" />
    <glyph glyph-name="Scaron" unicode="&#x160;" horiz-adv-x="508" 
d="M62 62v-36c0 -9 4 -16 13 -20l25 -9c27 -7 53 -11 80 -18c13 -3 26 -5 39 -6c27 0 53 3 77 10c31 9 58 20 83 34c20 11 36 28 52 44c15 15 28 34 37 56c15 35 18 70 18 107c0 1 -1 2 -1 5c-3 19 -11 37 -19 56c-8 20 -19 38 -36 51c-24 21 -51 40 -80 53l-46 20l-17 8
c-22 9 -42 18 -61 28c-18 9 -29 25 -33 46c-1 9 2 16 7 23c4 4 9 8 14 11c19 13 40 16 63 15c31 -1 59 -3 90 -6c10 -1 16 4 19 13c1 3 2 5 2 6l14 68c3 13 4 26 7 39c1 9 -2 15 -10 18c-3 1 -7 3 -10 3c-24 3 -48 5 -71 6c-29 1 -58 -1 -87 -6c-17 -3 -32 -7 -47 -12
c-12 -4 -23 -10 -35 -14c-29 -11 -52 -27 -71 -54c-15 -21 -27 -43 -36 -67c-7 -19 -13 -39 -14 -59c-1 -21 0 -41 3 -62c7 -39 25 -71 53 -98c17 -15 36 -26 58 -34l22 -8c26 -9 52 -19 78 -30c12 -4 22 -9 33 -16c12 -7 20 -17 24 -31c1 -5 2 -10 1 -14
c-1 -11 -7 -19 -18 -24c-22 -12 -45 -16 -70 -12c-15 3 -29 4 -40 1c-13 -2 -25 -1 -38 2l-48 9c-11 2 -18 -2 -21 -13l-2 -13c0 -23 -1 -46 -1 -70zM330 735v-1h-37c-11 0 -24 2 -35 2c-20 0 -37 3 -56 7c-8 3 -14 8 -17 13c-16 23 -29 44 -38 71c-9 31 -18 62 -31 93
c-3 4 -3 9 -4 13c0 8 3 13 10 15c7 1 11 0 18 1c27 0 52 2 77 3c11 0 18 -5 21 -15l19 -54c3 -9 7 -18 14 -28c3 -7 7 -5 11 -1l6 7c11 20 20 39 31 58c4 9 9 17 13 25c4 10 12 14 23 13c19 -3 38 -2 58 -3l32 -2c15 -1 19 -9 13 -24c-7 -15 -11 -28 -18 -43
c-3 -11 -8 -19 -12 -30c-15 -35 -28 -70 -48 -103c-7 -11 -16 -16 -27 -16c-8 0 -15 -1 -23 -1z" />
    <glyph glyph-name="scaron" unicode="&#x161;" horiz-adv-x="526" 
d="M232 706c-2 -1 -4 -1 -6 -1c-17 -3 -35 -5 -52 -6c-40 -3 -69 -24 -93 -53c-16 -23 -29 -46 -37 -73c-9 -27 -13 -53 -14 -80c-3 -31 2 -59 9 -90c11 -40 35 -70 66 -95c37 -31 81 -46 126 -57c27 -7 51 -13 75 -25c9 -5 15 -10 22 -19c5 -8 6 -16 2 -25s-10 -16 -19 -20
c-24 -11 -47 -14 -70 -7c-12 3 -24 5 -37 6c-28 1 -55 4 -80 19c-7 4 -14 7 -21 9c-9 3 -15 0 -19 -8c-1 -3 -3 -6 -4 -10c-11 -35 -18 -70 -22 -107l-3 -18c-1 -11 4 -19 14 -24c4 -1 7 -2 8 -3c31 -11 61 -20 93 -23l28 -2c17 -1 32 -5 51 -2c32 4 65 7 97 14
c39 8 71 28 99 55c24 24 38 54 47 86c5 16 6 33 7 50c3 21 4 42 -3 63l-4 23c-7 27 -17 52 -36 72c-11 11 -23 19 -34 30c-11 8 -24 14 -37 17c-24 5 -49 12 -73 17c-25 5 -50 11 -73 22c-11 5 -22 9 -30 20c-11 12 -18 26 -11 43c3 8 9 14 16 21c11 11 24 15 39 18
c9 3 19 2 28 2c17 3 33 4 50 4c23 -1 45 -2 68 -5c11 -1 18 4 21 14c1 7 2 12 2 15l6 48l4 50c0 12 -6 19 -17 22c-9 3 -18 5 -27 6c-13 1 -27 1 -40 1c-20 -1 -40 -1 -61 -1c-5 0 -10 1 -17 2c-13 1 -26 2 -38 5zM313 756v-1h-37c-11 0 -24 2 -35 2c-20 0 -37 3 -56 7
c-8 3 -14 8 -17 13c-16 23 -29 44 -38 71c-9 31 -18 62 -31 93c-3 4 -3 9 -4 13c0 8 3 13 10 15c7 1 11 0 18 1c27 0 52 2 77 3c11 0 18 -5 21 -15l19 -54c3 -9 7 -18 14 -28c3 -7 7 -5 11 -1l6 7c11 20 20 39 31 58c4 9 9 17 13 25c4 10 12 14 23 13c19 -3 38 -2 58 -3
l32 -2c15 -1 19 -9 13 -24c-7 -15 -11 -28 -18 -43c-3 -11 -8 -19 -12 -30c-15 -35 -28 -70 -48 -103c-7 -11 -16 -16 -27 -16c-8 0 -15 -1 -23 -1z" />
    <glyph glyph-name="Ydieresis" unicode="&#x178;" horiz-adv-x="606" 
d="M44 671h22c21 1 41 2 64 2c11 0 20 0 31 -1c8 0 14 -4 19 -12c7 -9 12 -18 19 -27c13 -17 26 -33 41 -50c21 -27 42 -53 65 -80c11 -15 16 -13 23 4c17 35 31 70 52 105c11 19 19 37 30 56c5 10 13 15 24 14c11 0 22 2 33 1c19 -1 38 -1 57 -4c15 -1 29 -3 44 -6h5
c11 -2 15 -8 13 -19c0 -3 -1 -5 -2 -8l-23 -57c-9 -19 -18 -38 -29 -57c-31 -57 -67 -111 -100 -167c0 -1 -1 -2 -2 -3c-11 -11 -13 -25 -14 -40c-1 -27 -3 -55 -2 -83c1 -19 -1 -35 -1 -54c-1 -9 0 -18 -1 -27c-3 -31 -4 -62 -5 -93c-1 -11 0 -23 0 -35c0 -4 -1 -8 -1 -11
c-3 -12 -10 -18 -21 -18l-70 3l-31 2c-12 0 -23 1 -35 2c-10 1 -15 7 -15 20c-1 16 -1 31 -1 47c0 9 1 18 0 27c0 21 -1 41 -2 64c0 15 1 28 0 43c0 9 -1 17 -1 25v29c0 24 0 48 -1 72c0 12 -3 22 -10 31c-24 31 -45 63 -68 94c-19 27 -36 55 -51 83c-3 3 -4 5 -5 8
c-20 24 -36 49 -53 76c-5 8 -10 15 -17 22c-4 4 -7 7 -8 9c-5 7 -2 13 7 13c7 1 13 0 20 0zM325 787c3 19 1 33 4 49c3 15 8 21 24 22l84 4c11 1 18 -5 21 -17c8 -28 10 -58 7 -89l-2 -17c-2 -11 -7 -16 -16 -17c-8 -1 -16 -3 -25 -3c-16 -3 -33 -4 -49 -4
c-9 -1 -17 1 -26 2c-9 2 -15 8 -16 18c-3 19 -3 37 -6 52zM139 790v44c0 15 3 21 18 24c13 3 25 5 38 6c16 1 32 1 48 -3c11 -3 16 -10 16 -21c0 -12 0 -25 -1 -38c0 -19 -1 -36 -2 -55c0 -3 1 -5 0 -8c0 -13 -6 -20 -19 -20c-15 0 -28 1 -43 1c-12 0 -24 -1 -36 -2
c-11 -1 -16 3 -17 12c-3 15 -2 30 -3 45c0 5 1 10 1 15z" />
    </font>
</defs>
</svg>
